<svg xmlns="http://www.w3.org/2000/svg" xmlns:xlink="http://www.w3.org/1999/xlink" viewBox="0 0 378.63 263.44"><defs><style>.cls-1,.cls-30{fill:none;}.cls-2{fill:#faba92;}.cls-3{fill:url(#radial-gradient);}.cls-4{fill:#ffbd66;}.cls-5{fill:#f4aa5b;}.cls-6{opacity:0.07;}.cls-13,.cls-46,.cls-7{fill:#00003f;}.cls-8{fill:#003;}.cls-9{fill:url(#radial-gradient-2);}.cls-10{fill:#ed9e77;}.cls-11{opacity:0.33;fill:url(#linear-gradient);}.cls-12{fill:#f9f4e4;}.cls-13{opacity:0.1;}.cls-14,.cls-32{opacity:0.9;}.cls-14{fill:url(#linear-gradient-2);}.cls-15{fill:#040442;}.cls-16{fill:#d3cdcd;}.cls-17{fill:#020223;}.cls-18{fill:#eee;}.cls-19{fill:#e0e0e0;}.cls-20{fill:#011615;}.cls-21{fill:#022321;}.cls-22{fill:#ccb1b0;opacity:0.18;}.cls-23{fill:url(#linear-gradient-3);}.cls-24{fill:url(#radial-gradient-3);}.cls-25{clip-path:url(#clip-path);}.cls-26{fill:#91293c;}.cls-27{fill:#fffeff;}.cls-28{fill:#b22442;}.cls-29{fill:#b85326;}.cls-30{stroke:#b85326;stroke-width:1px;}.cls-30,.cls-73{stroke-miterlimit:10;}.cls-31{fill:#ed8b0a;}.cls-32{fill:url(#linear-gradient-4);}.cls-33{fill:#006;}.cls-34{fill:#0f3c72;}.cls-35,.cls-39{fill:#c0706a;}.cls-35,.cls-52{opacity:0.44;}.cls-36{fill:#333;}.cls-37{fill:#255160;}.cls-38{opacity:0.25;}.cls-40,.cls-48{opacity:0.43;}.cls-41{fill:#ba5427;}.cls-42{fill:#4f2743;}.cls-43{fill:#1c003f;}.cls-44{fill:#4b2d1a;}.cls-45{fill:#11a9c5;}.cls-46{opacity:0.64;}.cls-47{opacity:0.29;fill:url(#linear-gradient-5);}.cls-48{fill:#ff5c50;}.cls-49{opacity:0.31;fill:url(#radial-gradient-4);}.cls-50{fill:#f4a77d;}.cls-51{fill:url(#radial-gradient-5);}.cls-52{fill:url(#radial-gradient-6);}.cls-53{fill:#ea9e42;}.cls-54{clip-path:url(#clip-path-2);}.cls-55{clip-path:url(#clip-path-3);}.cls-56{fill:url(#linear-gradient-6);}.cls-57{fill:#dd7f5b;}.cls-58{fill:url(#radial-gradient-7);}.cls-59{fill:#43c59e;}.cls-60{clip-path:url(#clip-path-4);}.cls-61{fill:url(#linear-gradient-7);}.cls-62{clip-path:url(#clip-path-5);}.cls-63{fill:url(#linear-gradient-8);}.cls-64{clip-path:url(#clip-path-6);}.cls-65{fill:url(#linear-gradient-9);}.cls-66{clip-path:url(#clip-path-7);}.cls-67{fill:url(#linear-gradient-10);}.cls-68{clip-path:url(#clip-path-8);}.cls-69{fill:url(#linear-gradient-11);}.cls-70{fill:#1b2246;}.cls-71{clip-path:url(#clip-path-9);}.cls-72{opacity:0.6;fill:url(#linear-gradient-12);}.cls-73{fill:#daeaea;stroke:#1b2246;stroke-width:2.67px;}.cls-74{fill:url(#linear-gradient-13);}.cls-75{fill:#e91f63;}.cls-76{fill:url(#linear-gradient-14);}.cls-77{fill:url(#linear-gradient-15);}</style><radialGradient id="radial-gradient" cx="221.81" cy="214.72" r="239.04" gradientUnits="userSpaceOnUse"><stop offset="0" stop-color="#38447a" stop-opacity="0.3"/><stop offset="1" stop-color="#fff" stop-opacity="0.1"/></radialGradient><radialGradient id="radial-gradient-2" cx="60.72" cy="223.22" r="45.63" xlink:href="#radial-gradient"/><linearGradient id="linear-gradient" x1="561.15" y1="50.69" x2="578.72" y2="50.69" gradientTransform="translate(-287.14 -158.99) rotate(21.48)" gradientUnits="userSpaceOnUse"><stop offset="0.22" stop-color="#d9936c" stop-opacity="0"/><stop offset="0.99" stop-color="#a6515a"/></linearGradient><linearGradient id="linear-gradient-2" x1="220.59" y1="74.86" x2="256.04" y2="74.86" gradientTransform="matrix(1, 0, 0, 1, 0, 0)" xlink:href="#linear-gradient"/><linearGradient id="linear-gradient-3" x1="488.35" y1="165.32" x2="509.8" y2="153" gradientTransform="translate(-135.65 -251.58) rotate(19.05)" gradientUnits="userSpaceOnUse"><stop offset="0.22" stop-color="#da946c" stop-opacity="0"/><stop offset="0.99" stop-color="#a65059"/></linearGradient><radialGradient id="radial-gradient-3" cx="271.89" cy="33.72" r="10.3" gradientUnits="userSpaceOnUse"><stop offset="0" stop-color="#ec9981"/><stop offset="0.78" stop-color="#ec9981" stop-opacity="0"/></radialGradient><clipPath id="clip-path"><path class="cls-1" d="M275,41.57s2,2.2,9.22,3.18c0,0-1.24,5.34-6,4.29S274,43.38,275,41.57Z"/></clipPath><linearGradient id="linear-gradient-4" x1="447.32" y1="232.55" x2="467.4" y2="220.02" gradientTransform="translate(-100.97 -190.44) rotate(14.6)" xlink:href="#linear-gradient"/><linearGradient id="linear-gradient-5" x1="110.8" y1="482.65" x2="119.37" y2="482.65" gradientTransform="matrix(1, 0.05, -0.05, 1, 178.53, -340.31)" xlink:href="#linear-gradient"/><radialGradient id="radial-gradient-4" cx="255.82" cy="42.68" r="9.66" gradientUnits="userSpaceOnUse"><stop offset="0" stop-color="#fff"/><stop offset="0.78" stop-color="#ec9981" stop-opacity="0"/></radialGradient><radialGradient id="radial-gradient-5" cx="855.78" cy="-929.48" r="12.05" gradientTransform="matrix(0.42, 0.85, -0.9, 0.39, -900.62, -322.19)" xlink:href="#radial-gradient-3"/><radialGradient id="radial-gradient-6" cx="-756.04" cy="306.11" fx="-778.3349518401373" r="22.46" gradientTransform="matrix(0.94, -0.27, 0.26, 0.96, 820.97, -406.42)" gradientUnits="userSpaceOnUse"><stop offset="0" stop-color="#fff"/><stop offset="0.95" stop-color="#03002a" stop-opacity="0"/></radialGradient><clipPath id="clip-path-2"><path class="cls-2" d="M225.55,122s-.5-2.64-.85-6.32c-.64-6.85-7.95-5.75-10.63-4.85s-2,2-1,2.62c0,0-3.82,1.06-1,3.39,0,0-3.2,1.33-.69,3.22,0,0-2.74,1.22-.57,2.94,2-.29,2.54.86,2.54.86a3.91,3.91,0,0,0,1.29,3.33,6.3,6.3,0,0,0,3.86,1.43S225.25,127.22,225.55,122Z"/></clipPath><clipPath id="clip-path-3"><path class="cls-1" d="M225.43,121.69a45.88,45.88,0,0,0-.86-6.91c-1.19-5.85-7.81-4.85-10.49-3.94s-2,2-1,2.62c0,0-3.82,1.06-1,3.39,0,0-3.2,1.33-.69,3.22,0,0-10.3.37-.57,2.94,2-.29,2.54.86,2.54.86a3.91,3.91,0,0,0,1.29,3.33,6.3,6.3,0,0,0,3.86,1.43S225.13,126.9,225.43,121.69Z"/></clipPath><linearGradient id="linear-gradient-6" x1="364.66" y1="567.59" x2="344.37" y2="555.58" gradientTransform="matrix(0.96, 0.29, -0.29, 0.96, 39.29, -518.07)" gradientUnits="userSpaceOnUse"><stop offset="0.22" stop-color="#d9936c" stop-opacity="0"/><stop offset="0.98" stop-color="#975a40"/></linearGradient><radialGradient id="radial-gradient-7" cx="-998.98" cy="254.07" r="110.87" gradientTransform="translate(1017.48) scale(0.72 1)" xlink:href="#radial-gradient"/><clipPath id="clip-path-4"><path class="cls-1" d="M302.75,194.58S323,210,327.94,214.38c0,0,1.94.83,4.89,11.19l.66-.16s-1.17-7-4.78-11.17a21.42,21.42,0,0,0-1.91-7.54c-1.68-3.22-3.38-2.59-5.75-5.65s-2.11-4.22-7.54-5-3.33-2.43-5.45-2.79A6.55,6.55,0,0,0,302.75,194.58Z"/></clipPath><linearGradient id="linear-gradient-7" x1="-1007.36" y1="-66.74" x2="-998.82" y2="-72.87" gradientTransform="matrix(0.95, -0.32, 0.32, 0.95, 1288.29, -49.34)" gradientUnits="userSpaceOnUse"><stop offset="0.32" stop-color="#43c59e" stop-opacity="0"/><stop offset="0.4" stop-color="#42bd98" stop-opacity="0.19"/><stop offset="0.53" stop-color="#41b190" stop-opacity="0.48"/><stop offset="0.67" stop-color="#3fa889" stop-opacity="0.7"/><stop offset="0.79" stop-color="#3fa184" stop-opacity="0.87"/><stop offset="0.9" stop-color="#3e9d81" stop-opacity="0.97"/><stop offset="0.99" stop-color="#3e9c80"/></linearGradient><clipPath id="clip-path-5"><path class="cls-1" d="M302.9,210.86c4.13-.19,11.82.73,14.29,1.91s5.89,5.14,7.22,5.82,5,2.25,6.18,3.73a22.08,22.08,0,0,1,2.22,4.21l-.54.06a13.54,13.54,0,0,0-2.45-4.11,7.84,7.84,0,0,0-5.71-2.4c-1.76.06-5.73,1.37-8.52,1s-18.7-5.59-18.7-5.59-2.5-.36-3.05-1.32S298.78,211.06,302.9,210.86Z"/></clipPath><linearGradient id="linear-gradient-8" x1="-239.05" y1="169.2" x2="-229.06" y2="152.38" gradientTransform="translate(514.78 28.06) rotate(-7.41)" xlink:href="#linear-gradient-7"/><clipPath id="clip-path-6"><path class="cls-1" d="M355.25,142.75S336.81,155.23,337,184s0,53.79,0,53.79h3.27s-2.5-30-1.54-36.88,3.31-6.79,7.4-9.22-.67-7.3,2-10.37,4.23-1.35,2.88-9,5.7-7.3,6-13.83S354.29,149.66,355.25,142.75Z"/></clipPath><linearGradient id="linear-gradient-9" x1="5242.61" y1="164.23" x2="5226.48" y2="170.58" gradientTransform="matrix(-1, 0, 0, 1, 5575.34, 0)" xlink:href="#linear-gradient-7"/><clipPath id="clip-path-7"><path class="cls-1" d="M305.82,154.37s-.42,14.19,6.07,19.17,3.59,7.15,3.71,10.05a10.35,10.35,0,0,0,4.73,8.11c2.91,1.74-1.32,6.87,7.7,13.36s6.08,25.14,5.2,33.7l1.83.19s1.92-23.79-1.44-38.26c-3.43-14.77-7.48-25.49-17.09-34.3S305.82,154.37,305.82,154.37Z"/></clipPath><linearGradient id="linear-gradient-10" x1="330.64" y1="176.7" x2="318.82" y2="183.77" gradientTransform="matrix(1, 0, 0, 1, 0, 0)" xlink:href="#linear-gradient-7"/><clipPath id="clip-path-8"><path class="cls-1" d="M374.67,180.77a10.48,10.48,0,0,0-3.68,5.41c-1,3.42-2.32,6.29-4.6,7.26-6.4,2.72-2.08,6.64-6.92,10-2.61,1.8-4.27,3.23-5,6.23-.92,3.81-1.8,5-5,6.77-.62.34-4.61-.65-6.55,3.21-2.66,5.29-3.36,16-3.33,17.57h-1.46a71.38,71.38,0,0,1,5.19-25.42C349.37,197.61,361.6,183.48,374.67,180.77Z"/></clipPath><linearGradient id="linear-gradient-11" x1="361.05" y1="203.28" x2="355.17" y2="197.93" gradientTransform="matrix(1, 0, 0, 1, 0, 0)" xlink:href="#linear-gradient-7"/><clipPath id="clip-path-9"><path class="cls-1" d="M345.09,253.93H334.82a8.35,8.35,0,0,1-8.19-6.69l-4.12-20.33a3.88,3.88,0,0,1,3.8-4.65h27.61a3.6,3.6,0,0,1,3.53,4.32l-4.18,20.66A8.35,8.35,0,0,1,345.09,253.93Z"/></clipPath><linearGradient id="linear-gradient-12" x1="329.53" y1="223.61" x2="360.22" y2="255.49" gradientUnits="userSpaceOnUse"><stop offset="0.04" stop-color="#2fb5be" stop-opacity="0"/><stop offset="0.07" stop-color="#58348c" stop-opacity="0.11"/><stop offset="0.25" stop-color="#744ea7" stop-opacity="0.41"/><stop offset="0.41" stop-color="#8862bb" stop-opacity="0.63"/><stop offset="0.49" stop-color="#9069c3" stop-opacity="0.72"/><stop offset="0.63" stop-color="#9d75cf" stop-opacity="0.84"/><stop offset="0.77" stop-color="#a77ed8" stop-opacity="0.93"/><stop offset="0.9" stop-color="#ad84de" stop-opacity="0.98"/><stop offset="0.99" stop-color="#af86e0"/></linearGradient><linearGradient id="linear-gradient-13" x1="271.95" y1="185.88" x2="269" y2="209.14" gradientUnits="userSpaceOnUse"><stop offset="0.22" stop-color="#fff" stop-opacity="0"/><stop offset="0.99" stop-color="#fff"/></linearGradient><linearGradient id="linear-gradient-14" x1="268.46" y1="230.34" x2="258.47" y2="224.57" xlink:href="#radial-gradient"/><linearGradient id="linear-gradient-15" x1="196.54" y1="155.4" x2="184.37" y2="143.23" gradientUnits="userSpaceOnUse"><stop offset="0.19" stop-color="#d8916b" stop-opacity="0"/><stop offset="0.99" stop-color="#a6515a" stop-opacity="0.5"/></linearGradient></defs><title>call_back_footer_illustration</title><g id="Layer_2" data-name="Layer 2"><g id="Layer_1-2" data-name="Layer 1"><path class="cls-3" d="M359.37,229.1c10.9-9.64,4.63-25.93-6.53-32.16-10.33-5.77-23.51-7.52-35.19-6.81h0c-6.64.42-13.06,2.29-19.41,4.16-59.24,17.45-84.46,18.49-146.43,22.89-9.37.67-29.51-29.07-38.24-32.31-11.35-4.21-25.14,17.91-35,21.62,16.67-6.3,16.37,10.12,24.94,18.69,5.88,4.74,13.52,7.08,21,9,48.9,12.77,90.11,12.88,149.79,7.5,15.1-1.36,30.29-1.89,45.36-3.52,7.08-.76,14-2.07,21.06-3.23,5.81-1,12.65-1.24,17.51-5Q358.84,229.57,359.37,229.1Z"/><path class="cls-4" d="M374.08,100.09a218.23,218.23,0,0,1-18.68,68.25c-4.46,9.63-5.76,19.59-12.21,28-17.49,22.87-39.67,36.1-68.25,39.52-25.91,3.1-51,3.69-77.11-.45a73.2,73.2,0,0,1-7.94-1.71c-22.1-6.1-49.62-6.44-65.62-22.87s-23.54-43.06-12-62.89c7.08-12.21,19.8-19.84,32-27L176,102.46c9.44-5.51,19-11.09,26.93-18.59,19.14-18,27.66-45.72,48.42-61.87a62.25,62.25,0,0,1,48.83-11.92l9,1.42c17,.19,26.07,3,34.42,11.88A88.66,88.66,0,0,1,354,37.59C366.54,57.92,376.72,76.33,374.08,100.09Z"/><path class="cls-5" d="M323.67,27.19c-.75,6.61-1.45,13.58,1.17,19.69,2.44,5.7,7.42,9.83,11.31,14.66a44.29,44.29,0,0,1,9.48,32.3,43.05,43.05,0,0,1-16.57,29.24,83.87,83.87,0,0,1-10.89,6.6l-26.34,14.2c-1.48-1.6-1-4.13-.31-6.21A138.17,138.17,0,0,1,305,107.8c3.16-5.24,6.71-10.35,8.56-16.18,1.75-5.53,1.87-11.43,1.85-17.23q0-11-.69-22c-.26-4.39-.59-8.86.44-13.14s3.67-8.42,7.76-10.06"/><g class="cls-6"><path class="cls-7" d="M372.59,100.31a218.23,218.23,0,0,1-18.68,68.25c-4.46,9.63-5.76,19.59-12.21,28-17.49,22.87-39.67,36.1-68.25,39.52a258.59,258.59,0,0,1-74.72-1.44c-18.49-5.38-34.23-2.2-50.29-12.93,11.84.18,15.42-2.56,27.19-1.31,59.24,6.28,119.68-20.34,159.7-64.48,5.95-6.57,11.54-13.56,15.53-21.46,13.08-25.89,7.32-56.87,1.27-85.24-1.72-8-7.78-17.42-10-25.63a88.66,88.66,0,0,1,10.38,14.2C365.06,58.13,375.24,76.54,372.59,100.31Z"/></g><path class="cls-8" d="M322.18,36.77c-6.45,13.44-3.35,22.24,0,27.63,4.47,7.29,11.59,12.82,15.26,20.55a26.15,26.15,0,0,1,1.2,19.52,24.38,24.38,0,0,1-13.18,14.34c-3.45,1.48-7.23,2.12-10.65,3.69s-6.15,3.86-9.47,5.32a20.1,20.1,0,0,1-7.93,1.72c-1-4.38-.13-9,1.4-13.22s3.68-8.2,5.32-12.38a55,55,0,0,0,3.72-17.09c.46-8.45-1-17.07.89-25.31a13,13,0,0,1,3.15-6.46c1.85-1.83,3-5.16,5.47-5.93"/><path class="cls-9" d="M86.68,201.37c-11.44,4.67-23.89,6.09-36,8.34A263.26,263.26,0,0,0,6.34,222c-2,.73-4,1.57-5.27,3.24-2.75,3.69.18,9.3,4.37,11.19s9,1.35,13.6,1.35c11,0,21.79,3.33,32.69,5.12A198.71,198.71,0,0,0,80.58,245c5,.09,10.16.1,15-1.41a48.66,48.66,0,0,0,9.86-4.84L118.55,231a6,6,0,0,0,2.59-2.32,4.7,4.7,0,0,0-.48-4.14c-2.87-5.3-9.44-7.07-15.08-9.19A61,61,0,0,1,85,202.45"/><path class="cls-8" d="M279.21,10a37.13,37.13,0,0,0-17.64,20.32c-5.42,14.82,4.66,30.45,7.24,35.28s10,6.19,11.75-4.14S291.62,3,279.21,10Z"/><path class="cls-10" d="M238.52,97.44s-8.33,2.45-16.94,6-16.4,2.67-20.47-3.12c-3.66-5.21,7.16-16.35,34.47-24.22C235.58,76.08,266.94,72,238.52,97.44Z"/><path class="cls-11" d="M231,86.5l-18.21,16.44,1.08,2.59s16.79-5,18.85-5.84S231,86.5,231,86.5Z"/><path class="cls-12" d="M275.18,63.35s-3.53-1.22-10.61-.93-38.86,19.36-38.86,19.36,7.54-.74,7.24,18.59l21.32-8.12c12.14-7,20-11.84,20.82-20.74C275.4,68,277,67.58,275.18,63.35Z"/><path class="cls-13" d="M251.73,75.89s-11,8.82-19.48,14.22c0,0,.59,4.45.71,10.26l9.48-3.71s9.51-15.23,9.88-16.32.21-2.6-1.53-1.41C250.79,78.94,253.91,75.74,251.73,75.89Z"/><path class="cls-10" d="M278.9,54.16s.43,3-2.36,9.66c0,0-10-.26-14,.47s-7.62,28.64,22.56,25.4,14-17.92,14-17.92l6.74-24.23S292.86,58.38,278.9,54.16Z"/><path class="cls-12" d="M276.54,63.82s-5.14,6.48,1.35,11c9,6.32,18,.54,17.06-3.7,0,0,20.79,7.93,22.11,12.89.87,3.28-7.39,41.76-48.26,84.59q-1.16,1.21-2.23,2.5a120.69,120.69,0,0,1-13.93,13.76L204,138.05s19-4.55,31.35-27.06a12.21,12.21,0,0,0,1.8-6.09c.22-5,1.58-17.62,8.24-22.1,10.68-7.18,9.47-5.45,12-10.9s1.72-6.68,5.12-7.78C270.67,61.48,276.54,63.82,276.54,63.82Z"/><path class="cls-10" d="M268.41,47.52c.11-1.15-.05-13.93-.65-14.68a4,4,0,0,0-1.61-1.11c-1.64-.57-4.19.6-5.62,1.22-4.12,1.77-8.68,2.89-11.45,6.54-2.52,3.34-2.58,8.66-5.41,11.79a38.44,38.44,0,0,1-9.14,8.07,189.75,189.75,0,0,0-18.28,13.44c-18.41,15.26-15.8,26.21-13.84,28.05s9.77.93,19.07-5.5a46.58,46.58,0,0,0,9.78-9.58c1.45-1.82,2.82-3.71,4.17-5.6,2.88-4,4.74-8.62,7.51-12.69,2.29-3.36,7-8.92,11.14-9.67l.25,0q.57-.09,1.15-.13C257.7,57.5,260,56.1,262,55,263.3,54.32,268.25,49.18,268.41,47.52Z"/><path class="cls-14" d="M256,57.74s-1.32-.55-4.3,1.08a23.14,23.14,0,0,0-8.6,8.07s-7.53,14-10.2,16.61c-1.41,1.39-6.24,7.51-6.94,8.28s-8,1.27-4.44-4.11,12.07-11,18-18.31S248.72,56.2,256,57.74Z"/><path class="cls-15" d="M214.43,133.88l20.48-10.14,0,1.65c0,1.65-17.93,10.83-20.24,11.15-9,1.25-50.27,4.88-70.14,6.11-1.28.08-1.34-1.94-1.34-1.94l66.56-5.54A12.9,12.9,0,0,0,214.43,133.88Z"/><path class="cls-16" d="M234.91,123.74l-50.61,3.76-3.85.11S165,138,164,138s50.61-4.09,50.61-4.09Z"/><path class="cls-17" d="M214.64,133.9s.05,2-4.17.12c-4-1.77-4.16-60.41-4.16-60.41s.53-2.16.8-.12"/><path class="cls-18" d="M137.3,86.54c-.75-.47,69.55-13.92,69.55-13.92l6.85,62.22-70.47,5.87-7.09-53.85Z"/><path class="cls-19" d="M178.19,107.57a4.33,4.33,0,1,1-4.45-4.33A4.41,4.41,0,0,1,178.19,107.57Z"/><path class="cls-20" d="M274.52,26.09s-1.91-.94-3.18.3S252.15,39.88,251,41.46a5.07,5.07,0,0,0-.55,4.84c.57,1.59,4.19,6.89,4.19,6.89s2.31,3,6.35.24,7.74-5,7.74-5Z"/><path class="cls-21" d="M274.31,27.69a2.66,2.66,0,0,0-2.85.28c-1.14,1.13-17.27,12.28-18.27,13.71a4.63,4.63,0,0,0-.51,4.38c.5,1.44,3.51,6.53,3.51,6.53s1.68,3.11,5.32.57,7.57-5.24,7.57-5.24Z"/><path class="cls-8" d="M273.94,28.84s-1.68-.82-2.78.23S254.44,40.5,253.48,41.84A4.24,4.24,0,0,0,253,46c.51,1.37,3.5,6.23,3.5,6.23s1.68,3,5.2.6,7.33-4.87,7.33-4.87Z"/><path class="cls-22" d="M263.81,47.25l-3.25-5.17a3.1,3.1,0,0,1,1.16-4.21l8.79-6.29c1.48-.84.82,2.44,1.66,3.92l2.42,4.26A3.1,3.1,0,0,1,273.42,44l-6.23,3.54C265.71,48.35,264.64,48.73,263.81,47.25Z"/><path class="cls-23" d="M303.4,46.69s3.58,4.58,1.72,9.09S295,71.1,295,71.1s-2.57-5-16.45-14.05Z"/><path class="cls-10" d="M312.55,47.88a5.1,5.1,0,0,1-7.63,1,24.17,24.17,0,0,1-21.24,8.76c-2.54-.38-14.81-1.49-14.28-16.7v-.07a32.41,32.41,0,0,1,1.73-9.26,41.9,41.9,0,0,1,10.53-16.4c16.47-14.8,26.22,15.89,31,18.16S315.65,43.95,312.55,47.88Z"/><path class="cls-24" d="M273.79,37a4.8,4.8,0,0,1-4.39,3.92v-.07a32.41,32.41,0,0,1,1.73-9.26A4.81,4.81,0,0,1,273.79,37Z"/><g class="cls-25"><path class="cls-26" d="M275,41.57s2,2.2,9.22,3.18c0,0-1.24,5.34-6,4.29S274,43.38,275,41.57Z"/><path class="cls-27" d="M274.46,42.54s1.65,2.77,7.27,3.19c0,0,2.41-.4,3.38-1.87l-10.56-3.67S273.92,41.69,274.46,42.54Z"/><path class="cls-28" d="M274.46,45.78a9.9,9.9,0,0,1,5.89,1.29c3.34,1.76,1.33,3.19,1.33,3.19s-5.27.31-6.78-2.34S274.46,45.78,274.46,45.78Z"/></g><path class="cls-29" d="M282.23,32.85a7.37,7.37,0,0,1-1.62,2.28,6.89,6.89,0,0,1-1.16.89c-.1.07-.22.12-.32.18l-.24.14a1.9,1.9,0,0,0-.4.34,1.79,1.79,0,0,0-.38,1.87,6.17,6.17,0,0,0,1.4,2.16A3.74,3.74,0,0,1,277.16,39a2.84,2.84,0,0,1-.37-1.63,2.72,2.72,0,0,1,.74-1.59,3.21,3.21,0,0,1,.67-.52l.36-.2.29-.13a12.43,12.43,0,0,0,1.13-.61C280.71,33.88,281.45,33.27,282.23,32.85Z"/><path class="cls-30" d="M310.37,40.14s-1.92,1.16-1.75,2.43.43,2.27-.85,3.35"/><path class="cls-13" d="M276.67,188.17c2-9.16,10.56-13.8,24.64-66.21,7-26-15.69-15.94-15.69-15.94s-5,21.69-23.52,16.69c0,0-4.52,6.86,12.82,9.74,0,0-2.88,27.49-19,36.16C255.95,168.61,256,191.18,276.67,188.17Z"/><path class="cls-10" d="M225.47,121.74c2.78,2.55,19.51,16.33,34,21.46,5.56,2,13.74,2.14,14.83,7.9a6.55,6.55,0,0,1,.11.95c.33,8.1-9.79,14.65-18.8,9.43s-28.88-24.85-28.88-24.85-14.15-6.83-9.1-10.89a33.45,33.45,0,0,1,7-3.86"/><path class="cls-31" d="M297.82,130.58a1.51,1.51,0,0,1-2.11.59l1.2-2.44S298.22,129.77,297.82,130.58Z"/><path class="cls-10" d="M298.78,132.12s-15.58,28-21.4,32.34c-7.32,5.44-22.65.81-11.48-17.32s18.62-35.84,20.2-38.53S298.78,132.12,298.78,132.12Z"/><path class="cls-32" d="M300.08,130.33s-14,24.46-21.19,32.3l-.42.47a11.78,11.78,0,0,1-4.23,2.87,9.31,9.31,0,0,1-6.82,0s10.77-1.81,12.58-8.67c4.27-16.2-3.63-29.85-3.63-29.85Z"/><path class="cls-12" d="M300.68,76.42s12.4,6.6,16.22,17.43c3,8.64-3.5,18.82-16.6,38.28-1.5,2.23-2.77,4.51-4.52,6.94,0,0-1.05,2.52-1.29,2-3.75-8.57-18.12-5.69-17.93-14.39l12.52-23.33Z"/><path class="cls-13" d="M292.09,136.58s19.18-28.28,20.48-41.49c0,0,.6-7.38,1.9-6.32,1,.82,5,3.19,2.95,12.9-1.06,5.06-4.2,10.65-7.43,15.6-3.05,4.69-8.12,13-15.5,23.79C294.49,141,293,138.37,292.09,136.58Z"/><path class="cls-8" d="M300.95,30.06a7.18,7.18,0,0,0-3.38-6C294,21.91,285,22.72,280.14,16.5s-3.42-11.2.7-14.33S291.3-.9,300.05,3.65s29.89,13.66,19.42,42.22,6.82,24.21,1.49,46.65c-5.1,21.51-28.26,17.83-26.7,5.06a7.88,7.88,0,0,1,.86-2.66c1.64-3.15,6.42-13.28,2.5-17.44-4.66-5-3.61-11-1.74-15.17,2.7-6.05,5.35-8.47,8.41-13.79,0,0,4.77,3.77,8-3s2.37-9.5-.16-10.07-6.22,4.83-7.15,6.64S300.08,43.12,300.95,30.06Z"/><path class="cls-33" d="M185.45,148.17a44.71,44.71,0,0,1,7.1,39.75l31.27,2.56s19.26,1.7,24-6.7c7.6-13.45,3.43-25.88-12-33.74S185.45,148.17,185.45,148.17Z"/><path class="cls-34" d="M150,200.6c7.22-7.31,14.62-14.63,23.51-19.78s19.55-8,29.55-5.65c10.41,2.44,18.72,10,26.53,17.31a52.43,52.43,0,0,1-14.49,5.47,104.76,104.76,0,0,1-17.34,1.76L150,201.87"/><path class="cls-7" d="M210.87,173.89v.54A14.67,14.67,0,0,1,207.05,159l11.54,3.19s1.11,6.76-7.72,11.7C210.17,174.28,211.66,174,210.87,173.89Z"/><path class="cls-35" d="M189.9,157.22S203.34,167.44,213,176c5.21,4.63,15.44,18.78,36.6,16.11,0,0,7.74-1.27,11.89-5.5,0,0-12.91,8.53-46-16.48S180.33,147.48,180,148,183.88,150.31,189.9,157.22Z"/><path class="cls-10" d="M189.14,135.84c-4.35-6.65-24.17-13.49-36.28-4.46-59.15,44.09-85.92,66-85.92,66a51.17,51.17,0,0,0-.66,6.61c-.3,5,3.49,9,7,7.53,16.13-7,71.52-39.25,71.52-39.25s22.55-8.13,31.76-9.34C176.56,162.9,198.93,150.79,189.14,135.84Z"/><path class="cls-35" d="M178.73,157.63s-2.84-2.77-27.78,6.05c-24.63,8.71-71.74,42.11-73.7,43.1a23.79,23.79,0,0,0-6.86,3.78c-4.1,3.09-7.33,3.09-9.67,4.53l17.39-5.74A51.24,51.24,0,0,0,88.87,204c17.21-10.75,58.64-31.76,58.64-31.76C172,165.17,178.73,157.63,178.73,157.63Z"/><path class="cls-36" d="M28.85,213.56s-4.56,2.43-4.47,6S30,228.52,42.21,226c9.6-2,9.52-4.63,18.05-6.28,11.24-2.17,14.69-4,14-8.84-.6-4.07-8.22-8.72-15.24-6.26S28.85,213.56,28.85,213.56Z"/><path class="cls-10" d="M67.73,197.13C50,205.62,35.1,210.48,31.57,212c-7.7,3.39-7,9.11-1.42,11A27.23,27.23,0,0,0,54,219.59c5.91-4,15-4,18.18-6,2.32-1.42,3.64-5.53.25-9.45,2.66-7.58,11.15-4.49,11.15-4.49S88.76,187.08,67.73,197.13Z"/><path class="cls-37" d="M35.74,221s.53-12.76,17-17.17a30.31,30.31,0,0,0-9,6C39.6,213.72,39,220.63,35.74,221Z"/><g class="cls-38"><path class="cls-39" d="M71.55,204.47A12.53,12.53,0,0,0,73.4,207a3.35,3.35,0,0,1,.86,2.87,4.06,4.06,0,0,1-1.31,1.73l-3.12,2.85c-.33.3-.77,0-1.16.18A3.79,3.79,0,0,1,67,215c-1.73.08-3.45.93-6.58,1.9,2.46-3,6.68-3.93,9.8-6.28a5.81,5.81,0,0,0,2.26-2.94,2.87,2.87,0,0,0-1.19-3.28"/></g><path class="cls-37" d="M35.74,221s2.37-4.35,12.38-6c8.76-1.41,20,.08,20,.08s-4.5.89-5.49,1.15a62.4,62.4,0,0,0-13.58,1A56.93,56.93,0,0,0,35.74,221Z"/><g class="cls-40"><path class="cls-41" d="M26.07,217.17a4.73,4.73,0,0,1,1.54-1.53,8,8,0,0,1,6.24-1c-.69.23-1.37.38-2,.55s-1.31.34-2,.54A23.9,23.9,0,0,0,26.07,217.17Z"/></g><g class="cls-40"><path class="cls-41" d="M25.89,219.32a6.8,6.8,0,0,1,1.62-1.41,9.61,9.61,0,0,1,1.92-1,8.21,8.21,0,0,1,2.13-.44,5,5,0,0,1,2.14.33c-.72.14-1.37.27-2,.44s-1.28.38-1.91.61C28.49,218.33,27.26,218.86,25.89,219.32Z"/></g><g class="cls-40"><path class="cls-41" d="M27.32,221.6a5,5,0,0,1,1.31-1.35,7.28,7.28,0,0,1,1.65-.9,5.81,5.81,0,0,1,3.71-.27c-.6.24-1.16.39-1.72.59s-1.1.38-1.63.6C29.55,220.69,28.5,221.16,27.32,221.6Z"/></g><g class="cls-40"><path class="cls-41" d="M31.1,223.24a5.68,5.68,0,0,1,2.2-1.89,5.87,5.87,0,0,1,1.38-.49,3.25,3.25,0,0,1,1.5,0,27.32,27.32,0,0,1-2.42,1.4A11,11,0,0,1,31.1,223.24Z"/></g><path class="cls-10" d="M181.44,109.08c-5.66-.95-12.67-.61-21.33,12.79-8.86,13.7-47.61,83-47.61,83s-.43,2.36,2.52,6.46,5.77,4,5.77,4,37.56-42.83,51.54-56.27c5.27-5.07,16.22-13.25,19.5-22C191.84,137.16,196.88,111.67,181.44,109.08Z"/><path class="cls-42" d="M289.94,26.87A8.2,8.2,0,0,1,291.88,28a6.72,6.72,0,0,1,1.52,1.55,4.22,4.22,0,0,1,.72,2,4.4,4.4,0,0,1-.32,1.94,4,4,0,0,0-.33-1.78,3.22,3.22,0,0,0-1.05-1.26,5.1,5.1,0,0,0-1.48-.69,5.83,5.83,0,0,0-1.56-.25Z"/><path class="cls-42" d="M279.93,26.3c0-.07-.19-.26-.32-.39a3.13,3.13,0,0,0-.5-.37,3.28,3.28,0,0,0-1.26-.42,4.41,4.41,0,0,0-1.48.12c-.26.05-.5.16-.76.24l-.75.35a7.47,7.47,0,0,1,1.21-1.19,5.44,5.44,0,0,1,1.61-.85,5,5,0,0,1,2-.18,5.32,5.32,0,0,1,1,.21,4,4,0,0,1,1.05.49Z"/><ellipse class="cls-42" cx="288.68" cy="33.71" rx="1.58" ry="1.22" transform="translate(162.58 295.58) rotate(-70.95)"/><ellipse class="cls-42" cx="276.84" cy="29.32" rx="1.58" ry="1.22" transform="translate(158.76 281.43) rotate(-70.95)"/><path class="cls-2" d="M305.93,39.37"/><path class="cls-43" d="M276.73,126.38c0,.12-.1.27-.13.36s0-.06,0-.13l.1-.18.38-.72.72-1.45,1.47-2.89,2.95-5.77c2-3.83,3.93-7.68,6-11.5a70.8,70.8,0,0,1-5,12c-1,1.92-2.05,3.83-3.19,5.68-.56.93-1.15,1.84-1.76,2.74l-.95,1.33-.49.65-.13.16-.07.08s-.15.11-.13,0A2.33,2.33,0,0,1,276.73,126.38Z"/><path class="cls-43" d="M286.85,100.32c.08,1.15.08,2.14.17,3.15,0,.5.08,1,.14,1.51s.14,1,.16,1.63a4.41,4.41,0,0,1-1.44-3.05,5,5,0,0,1,.17-1.71A3.52,3.52,0,0,1,286.85,100.32Z"/><path class="cls-43" d="M254.35,76.65c-1.23.9-2.47,1.77-3.67,2.71s-2.41,1.84-3.57,2.8-2.29,2-3.34,3a13.22,13.22,0,0,0-2.62,3.44,34.15,34.15,0,0,0-1.36,4.25c-.41,1.45-.73,2.93-1.06,4.4s-.6,3-.84,4.46-.48,3-.69,4.51a53.56,53.56,0,0,1,.65-9.13c.21-1.52.52-3,.88-4.51a32.51,32.51,0,0,1,1.36-4.45A13.78,13.78,0,0,1,243,84.42a37.6,37.6,0,0,1,3.56-2.94q1.86-1.35,3.8-2.57C251.68,78.11,253,77.33,254.35,76.65Z"/><path class="cls-44" d="M300.86,47.52"/><path class="cls-10" d="M186.42,129.47s-15.16,21.11-25.5,33.25l47.3,14.94s8.38-9.79,12.51-42.83Z"/><path class="cls-45" d="M213.82,133.88s2.72.39,2.72,7.25c0,6.58-2.64,10.37-4.67,16.5-5.42,16.35-3.37,15.07-3.37,15.07s32.18,37.6,69.93,13.7c0,0-.23.54,1.37-4.17,1.76-5.17-9.35-15-12.25-18-12.54-12.85-28.07-24.65-45.63-29.16A32.06,32.06,0,0,0,213.82,133.88Z"/><path class="cls-46" d="M210.33,174.43s21.51,25.27,40.84,17.75c0,0,11.35-1.49,17.13-14.32,0,0,.29-.42-.31.09a1.05,1.05,0,0,0,0-.13l-.1.19c-4.33,8.23-14.37,8.65-22.45,7-10.72-2.21-20.13-8.08-29-14.24-.77-.53-1.08-.6-1.83-1.16-3.23,5.92-4.3,4.84-4.3,4.84"/><path class="cls-47" d="M266.7,145.78s7.6,2.49,8.4,3.82C275.11,149.61,273.21,142.51,266.7,145.78Z"/><path class="cls-43" d="M266.83,145.29a7.67,7.67,0,0,1,2.39,0,9.82,9.82,0,0,1,2.32.63,7.5,7.5,0,0,1,2.08,1.27,4.22,4.22,0,0,1,1.35,2,11.06,11.06,0,0,0-1.87-1.3,18.83,18.83,0,0,0-2-.94C269.73,146.42,268.3,146,266.83,145.29Z"/><circle class="cls-48" cx="258.74" cy="46.76" r="1.98"/><path class="cls-49" d="M267.78,31.88,256.2,52.17l-3.42-6.06s-1.32-3.53,1.32-5.07S267.78,31.88,267.78,31.88Z"/><path class="cls-36" d="M82.5,220.13s-4.55,2.44-4.47,6,5.62,8.92,17.85,6.41c9.59-2,9.51-4.64,18-6.3,11.24-2.19,14.69-4,14-8.86-.6-4.07-8.23-8.71-15.25-6.24S82.5,220.13,82.5,220.13Z"/><path class="cls-10" d="M125.13,182.41c-11,29.26-32.21,32.8-39.91,36.2s-7,9.12-1.4,11a27.23,27.23,0,0,0,23.8-3.51c5.91-4,15-4,18.17-6,2.32-1.42,3.87-5.57.47-9.48h0Z"/><g class="cls-38"><path class="cls-39" d="M125.21,210.8c.63,1.42,2.46,1.7,2.93,3.27.7,2.33-.86,4.8-2.71,6.09-3.2,2.23-7.49,2.74-11.27,3.18.31,0,1.27-1.26,1.58-1.5a17.19,17.19,0,0,1,2-1.33c1.5-.86,3.1-1.55,4.56-2.49,2.1-1.35,6.41-5.13,2.59-7.12"/></g><path class="cls-1" d="M94.61,228.92"/><g class="cls-40"><path class="cls-41" d="M80,226.35A5.37,5.37,0,0,1,81.37,225a9.77,9.77,0,0,1,1.69-.92,9,9,0,0,1,3.76-.75,12.83,12.83,0,0,1-1.68.92c-.56.28-1.13.51-1.69.75C82.31,225.48,81.19,225.92,80,226.35Z"/></g><g class="cls-40"><path class="cls-41" d="M82.23,228.93a6.74,6.74,0,0,1,1.5-1.45,9.8,9.8,0,0,1,1.8-1,6.71,6.71,0,0,1,4.1-.54l-1.9.7c-.61.25-1.21.48-1.81.75C84.72,227.88,83.54,228.45,82.23,228.93Z"/></g><g class="cls-40"><path class="cls-41" d="M86.06,230.38A3.28,3.28,0,0,1,86.9,229a5.34,5.34,0,0,1,1.29-1,4.94,4.94,0,0,1,3.13-.56,14.49,14.49,0,0,1-1.36.76l-1.3.68C87.8,229.35,87,229.82,86.06,230.38Z"/></g><g class="cls-40"><path class="cls-41" d="M89.31,230.77a5.69,5.69,0,0,1,2.39-1.65,5.87,5.87,0,0,1,1.42-.35,3.26,3.26,0,0,1,1.49.14,27.31,27.31,0,0,1-2.56,1.14A11,11,0,0,1,89.31,230.77Z"/></g><path class="cls-37" d="M85.23,224.61s8-6.89,17.49-6.58a17.58,17.58,0,0,1,12.65,6.07,26.52,26.52,0,0,0-3,.45,14.2,14.2,0,0,0-12.8-3.79C91.36,222.16,88.46,225.15,85.23,224.61Z"/><path class="cls-37" d="M84.86,224.92c2.91-7.72,11-11.77,18.13-14,0,0-3.67,1-8.78,5.06C89.76,219.54,88.17,224.58,84.86,224.92Z"/><path class="cls-50" d="M253.76,37.09a7.85,7.85,0,0,1,3.17.56,2.68,2.68,0,0,1,1.63,2.56.6.6,0,0,1-.12.33.63.63,0,0,1-.41.17,7.75,7.75,0,0,1-2.11-.23,19.67,19.67,0,0,0-3.62-.15l-2.59,0a4.43,4.43,0,0,1,3.91-3.13"/><path class="cls-50" d="M258.19,34.61a16.38,16.38,0,0,1,4.3,0c.67.15.84,1.17,1,1.84a.66.66,0,0,1-.1.57,1,1,0,0,1-.75.24c-.72,0-1.45,0-2.17,0l-6.07-.18A13.7,13.7,0,0,1,257.52,35"/><path class="cls-50" d="M257.39,34.67a15.83,15.83,0,0,0,2.25-1.74,10.5,10.5,0,0,1,3.18-1.61,7,7,0,0,1,4.84.72c.08,0,.17.1.16.19a.21.21,0,0,1-.06.11c-.92,1.05-2.46,1-3.74,1.12-1.44.11-2.28,1.5-3.67,1.69-.79.11-1-.48-1.61,0"/><ellipse class="cls-51" cx="290.83" cy="43.99" rx="4.87" ry="4.61" transform="translate(189.65 320.18) rotate(-78.48)"/><polygon class="cls-52" points="171.46 80.46 211.76 122.87 206.56 73.67 171.46 80.46"/><path class="cls-53" d="M211.71,201.46c-5.75-2.87,56-41.94,88.58-43.78,3.81-.22,8.25.27,10.43,4.92s.74,11.7-2.2,15.49-6.89,5.22-10.68,6.52L243,203.45c-10.45,3.59-22.2,6.88-31.25-1.66"/><path class="cls-4" d="M217.46,200c-5-5,24.07-34.2,88.58-43.78,3.77-.56,8.25.27,10.43,4.92s.74,11.7-2.2,15.49-6.89,5.22-10.68,6.52L248.71,202c-10.45,3.59-22.2,6.88-31.25-1.66Z"/><path class="cls-53" d="M260.26,174.87c6.69-12.37,15.75-19.45,24.85-19.4,4.64,0,9.22,1.82,13.77,3.61a.62.62,0,0,1,.4.35,1.69,1.69,0,0,1-.6,1.77,29.6,29.6,0,0,1-5.11,2.78c-5.68,2.62-11.38,5.24-17.16,6.67-6,1.49-9.91,2.09-15.85,4.22"/><path class="cls-4" d="M265.29,172.72c6.69-12.37,15.75-19.45,24.85-19.4,4.64,0,9.22,1.82,13.77,3.61a.62.62,0,0,1,.4.35,1.69,1.69,0,0,1-.6,1.77,29.6,29.6,0,0,1-5.11,2.78c-5.68,2.62-11.42,7.3-17.21,8.73-6,1.49-9.86.74-15.81,2.87"/><path class="cls-5" d="M296.41,139.57a259.39,259.39,0,0,1,22.78-13.91c10.52-5.7,22.4-10.81,34.12-8.4A38.1,38.1,0,0,0,331,114.6"/><path d="M155.88,128.65c-3,5.61-6.13,11.17-9.25,16.71s-6.32,11.05-9.48,16.58-6.42,11-9.68,16.46l-4.91,8.19c-1.67,2.71-3.31,5.44-5,8.14,1.5-2.81,3.05-5.59,4.58-8.38l4.67-8.33c3.12-5.55,6.32-11.05,9.48-16.58s6.42-11,9.68-16.46S152.51,134.05,155.88,128.65Z"/><path class="cls-2" d="M225.55,122s-.5-2.64-.85-6.32c-.64-6.85-7.95-5.75-10.63-4.85s-2,2-1,2.62c0,0-3.82,1.06-1,3.39,0,0-3.2,1.33-.69,3.22,0,0-2.74,1.22-.57,2.94,2-.29,2.54.86,2.54.86a3.91,3.91,0,0,0,1.29,3.33,6.3,6.3,0,0,0,3.86,1.43S225.25,127.22,225.55,122Z"/><g class="cls-54"><path class="cls-10" d="M223.65,112s-1.81,9.15-7.34,12.73a3.91,3.91,0,0,1-2.94-.91c-1.66-1.57-1.72,6.64-1.72,6.64s5.6.76,5.83.75a55.56,55.56,0,0,0,6.54-2.9c.08-.28,4.16-6.1,4.18-6.4s1.25-5.23.89-5.79-3.61-4.4-3.85-4.63S223.65,112,223.65,112Z"/></g><g class="cls-55"><path class="cls-56" d="M223.84,112.07s-1.81,9.15-7.34,12.73a3.91,3.91,0,0,1-2.94-.91c-1.66-1.57-1.72,6.64-1.72,6.64s5.6.76,5.83.75a55.56,55.56,0,0,0,6.54-2.9c.08-.28,4.16-6.1,4.18-6.4s1.25-5.23.89-5.79-3.61-4.4-3.85-4.63S223.84,112.07,223.84,112.07Z"/></g><path class="cls-10" d="M223.1,111.84a17,17,0,0,0-7.66-3c-2.71-.43-10.6,2.58-9.88,3.55.91,1.22,7.23.42,8.44.24a25.49,25.49,0,0,1,3.5-.1Z"/><path class="cls-10" d="M211.76,122.87s2.59,2,4.55,1.9c0,0,5.28-2.48,7.41-12.15,0,0-.32-1.43-3.64-2.48s-.5-.2-.5-.2l-5.87.22-2.31,11Z"/><path class="cls-10" d="M218.72,113.45a56.76,56.76,0,0,0-5.85-.69c-2.74.14-9.36,1.58-8.85,2.67.83,1.75,5.65,1,6.85.84s5.09-.69,5.09-.69Z"/><path class="cls-10" d="M218.78,116.72s-6.56-.85-7.77-.79c-2.74.14-7.65,1.81-6.94,2.77.91,1.22,6.16,1.82,7.37,1.64a37.16,37.16,0,0,0,4.57-1.5Z"/><path class="cls-57" d="M205.49,112.23a1.87,1.87,0,0,0,1.23.65,7.15,7.15,0,0,0,1.42.12,18.56,18.56,0,0,0,2.86-.26c.47-.07.95-.16,1.42-.25a10,10,0,0,1,1.48-.25,2.86,2.86,0,0,1,1.58.3,14.27,14.27,0,0,1,1.26.79,4.89,4.89,0,0,1-1.49-.17,3.89,3.89,0,0,0-1.29-.05c-.9.07-1.9.24-2.88.33a14.72,14.72,0,0,1-3,0,6.84,6.84,0,0,1-1.46-.33A1.86,1.86,0,0,1,205.49,112.23Z"/><path class="cls-57" d="M204.12,115.59a5.94,5.94,0,0,0,3,.64c1,0,2.07-.11,3.13-.18a28.46,28.46,0,0,1,3.2-.07,7.52,7.52,0,0,1,3.16.69,15.53,15.53,0,0,0-3.15,0c-1,.08-2.1.18-3.16.25a17.25,17.25,0,0,1-3.24,0A4.59,4.59,0,0,1,204.12,115.59Z"/><path class="cls-10" d="M219.57,120.25s-4.73,0-5.92-.13c-4.79-.71-7.57,1.28-6.86,2.24.91,1.22,6.24,1.29,7.45,1.11s4-.85,4-.85Z"/><path class="cls-57" d="M204.07,118.68a4.34,4.34,0,0,0,1.4.57c.49.14,1,.25,1.48.35,1,.19,2,.4,3,.52a24.44,24.44,0,0,0,3,.15,21.83,21.83,0,0,1,3.1.11c-1,.16-2,.41-3.06.51a13.6,13.6,0,0,1-3.15,0,17,17,0,0,1-3.06-.7A6,6,0,0,1,204.07,118.68Z"/><path class="cls-57" d="M206.64,122.23a10,10,0,0,0,2.06.6c.69.14,1.41.2,2.11.32l1.05.2a4.6,4.6,0,0,0,1,.15,12.39,12.39,0,0,1,2.19.12,21.59,21.59,0,0,1-2.16.5,8.22,8.22,0,0,1-2.23-.17,11.94,11.94,0,0,1-2.16-.51A4.66,4.66,0,0,1,206.64,122.23Z"/><path class="cls-4" d="M145.82,199c7.84-7.31,16.64-22.81,26.29-28s27.69-9.87,38.56-7.53c11.31,2.44,37.08,15.29,45.57,22.58-4.91,2.53-24.13,7.9-29.63,9-6.18,1.23-13.62,6.56-19.93,6.82-17.31.73-39.37-.73-56.68,0"/><path class="cls-58" d="M221.13,252.4s26.71,6.64,66.59,7.51,82.35-4.34,79.3-6.07-21.84-4.27-21.84-4.27S242.47,244.94,221.13,252.4Z"/><path class="cls-59" d="M302.75,194.58S323,210,327.94,214.38c0,0,1.94.83,4.89,11.19l.66-.16s-1.17-7-4.78-11.17a21.42,21.42,0,0,0-1.91-7.54c-1.68-3.22-3.38-2.59-5.75-5.65s-2.11-4.22-7.54-5-3.33-2.43-5.45-2.79A6.55,6.55,0,0,0,302.75,194.58Z"/><g class="cls-60"><path class="cls-61" d="M302.42,194.5s1.13,1.17,3.9.61,5,1.65,6.51,3.73a24.33,24.33,0,0,0,6.38,5.77c2.44,1.54,8.31,6.23,8.41,10.7s-7.42-4.45-7.42-4.45L304,198Z"/></g><path class="cls-59" d="M302.9,210.86c4.13-.19,11.82.73,14.29,1.91s5.89,5.14,7.22,5.82,5,2.25,6.18,3.73a22.08,22.08,0,0,1,2.22,4.21l-.54.06a13.54,13.54,0,0,0-2.45-4.11,7.84,7.84,0,0,0-5.71-2.4c-1.76.06-5.73,1.37-8.52,1s-18.7-5.59-18.7-5.59-2.5-.36-3.05-1.32S298.78,211.06,302.9,210.86Z"/><g class="cls-62"><path class="cls-63" d="M294.47,214.31s6.71-1.65,10.29-.21,8.6,6.31,8.6,6.31L307.49,222l-14.27-4.79S292.69,214.76,294.47,214.31Z"/></g><path class="cls-59" d="M374.67,180.77a10.48,10.48,0,0,0-3.68,5.41c-1,3.42-2.32,6.29-4.6,7.26-6.4,2.72-2.08,6.64-6.92,10-2.61,1.8-4.27,3.23-5,6.23-.92,3.81-1.8,5-5,6.77-.62.34-4.61-.65-6.55,3.21-2.66,5.29-3.36,16-3.33,17.57h-1.46a71.38,71.38,0,0,1,5.19-25.42C349.37,197.61,361.6,183.48,374.67,180.77Z"/><path class="cls-59" d="M305.82,154.37s-.42,14.19,6.07,19.17,3.59,7.15,3.71,10.05a10.35,10.35,0,0,0,4.73,8.11c2.91,1.74-1.32,6.87,7.7,13.36s6.08,25.14,5.2,33.7l1.83.19s1.92-23.79-1.44-38.26c-3.43-14.77-7.48-25.49-17.09-34.3S305.82,154.37,305.82,154.37Z"/><path class="cls-59" d="M355.25,142.75S336.81,155.23,337,184s0,53.79,0,53.79h3.27s-2.5-30-1.54-36.88,3.31-6.79,7.4-9.22-.67-7.3,2-10.37,4.23-1.35,2.88-9,5.7-7.3,6-13.83S354.29,149.66,355.25,142.75Z"/><g class="cls-64"><path class="cls-65" d="M355.25,142.75a19.6,19.6,0,0,0-4.66,12.77c0,7.91-1.94,7.07-5.39,11.11s-1.94,4.63-2.19,10.86-5.47,10.78-5.72,17.59-3.54-2.27-3.54-2.27l6-47.4L350,139.1Z"/></g><g class="cls-66"><path class="cls-67" d="M305.82,154.37s1.58,8.28,5.62,12.74,8.07,4.45,8.76,9.46-.33,6.7,4,10.48c2.6,2.26,2.37,3.7,3.06,8.15s7.68,10.43,8.43,16.53c.36,2.94,1.55-5.41-.23-20-1.27-10.44-7.23-28.37-7.23-28.37L307,152.09l-1.25,1.81"/></g><g class="cls-68"><path class="cls-69" d="M374.44,181.19a15.15,15.15,0,0,0-11.14,9.44c-3.41,8.39-4.85,5.51-6.95,7.87s-2.13,7.29-7,10c-5.76,3.22-6.77,3-8.74,10.58l-1.18,5.51,10,.92L376,196.27l2.62-18-4,2.47"/></g><path class="cls-70" d="M345.09,253.93H334.82a8.35,8.35,0,0,1-8.19-6.69l-4-19.69a4.41,4.41,0,0,1,4.32-5.29h27a3.6,3.6,0,0,1,3.53,4.32l-4.18,20.66A8.35,8.35,0,0,1,345.09,253.93Z"/><g class="cls-71"><path class="cls-72" d="M350.88,222.05s-6.53,15.62-27.21,22.66l.61,7.72a8.35,8.35,0,0,0,4.49,6.75c3.49,1.81,8,4.12,8.68,4.25,1.07.21,21.76-4.91,22.18-5.55s4.05-22.39,4.05-23,0-12.58-.43-13.22-12.58-4.05-12.58-4.05l.47,3Z"/></g><path class="cls-73" d="M298.92,253.6H245.27a7.18,7.18,0,0,1,7.18-7.18h46"/><path class="cls-73" d="M293.89,245.7H240.24a7.18,7.18,0,0,1,7.18-7.18h46"/><path class="cls-74" d="M260.75,218.12s-6.27-7.76-.9-11,14.62,2.09,14.62-3-9.25-3.88-6.56-8.06,10.74-4.18,10.74-4.18-8.06,1.79-6.86,4.77,7.16,1.49,8.65,4.77-1.19,7.16-7.46,7.76-9.85,1.19-8.36,6.27,1.19,4.18,1.19,4.18Z"/><path class="cls-75" d="M269.11,237.52l1.79-21.19s-17.9-.3-18.2,0,1.49,21.19,1.49,21.19Z"/><path class="cls-75" d="M271.2,218.12c-2.88,0-5.23,3.71-5.36,8.37.13-4,2.15-6.88,4.62-6.88s3.73,3,3.73,7.16-1.18,7.4-3.73,7.4-4.62-3.09-4.62-7.27h0c0,4.86,2.4,8.8,5.37,8.8s5.37-3.94,5.37-8.8S274.17,218.12,271.2,218.12Z"/><path class="cls-76" d="M265.83,216.26a15.94,15.94,0,0,0-5.37,5.74c-1.79,3.58-1.7,7.34-6.67,10.68l.4,4.83h6.56s6.86-3.28,9.18-10.43l1-10.75Z"/><path class="cls-10" d="M179.94,109s15.72-.38,35.14,25.81L187.54,134Z"/><path class="cls-77" d="M214.43,133.88S203,130.67,198,132.15c0,0-5.11,1.31-5.94,3.88L166.6,164.88l6.63,1.73c2-2,3.89-3.89,5.94-5.83,4.25-4,9-8.08,13.46-11.83a59.19,59.19,0,0,1,12.86-8.24c2.12-1,3.65-.57,5.91-1.14a8.78,8.78,0,0,0,4.29-3.73Z"/><path d="M167.35,164.11c3-3.73,6.1-7.39,9.21-11s6.27-7.25,9.4-10.87l4.77-5.38,1.19-1.34a10.46,10.46,0,0,1,1.31-1.32,12.28,12.28,0,0,1,3.18-1.91,13.49,13.49,0,0,1,7.25-.75c2.38.46,4.7,1,7,1.48-1.19-.13-2.38-.28-3.57-.43s-2.39-.31-3.55-.49a12.79,12.79,0,0,0-6.84,1,12.08,12.08,0,0,0-2.93,1.82,9.48,9.48,0,0,0-1.2,1.24l-1.18,1.36-4.72,5.42c-3.2,3.57-6.35,7.18-9.58,10.72S170.66,160.65,167.35,164.11Z"/></g></g></svg>