<?xml version="1.0" encoding="UTF-8"?>
<svg width="478px" height="318px" viewBox="0 0 478 318" version="1.1" xmlns="http://www.w3.org/2000/svg" xmlns:xlink="http://www.w3.org/1999/xlink">
    <!-- Generator: Sketch 43.2 (39069) - http://www.bohemiancoding.com/sketch -->
    <title>Widgets</title>
    <desc>Created with Sketch.</desc>
    <defs>
        <path d="M434.382674,0.0760166914 C439.630673,0.0760166914 443.885017,4.32880205 443.885017,9.56682241 L443.885017,275.213625 C443.885017,279.616808 439.828905,283.188599 434.82614,283.188599 L9.05887791,283.188599 C4.05611258,283.188599 0,279.616808 0,275.213625 L0,9.56682241 C0,4.32519515 4.25094152,0.0760166914 9.50234317,0.0760166914 L434.382674,0.0760166914 Z" id="path-1"></path>
        <filter x="-6.2%" y="-8.3%" width="112.4%" height="119.4%" filterUnits="objectBoundingBox" id="filter-3">
            <feOffset dx="0" dy="4" in="SourceAlpha" result="shadowOffsetOuter1"></feOffset>
            <feGaussianBlur stdDeviation="8.5" in="shadowOffsetOuter1" result="shadowBlurOuter1"></feGaussianBlur>
            <feColorMatrix values="0 0 0 0 0   0 0 0 0 0   0 0 0 0 0  0 0 0 0.08 0" type="matrix" in="shadowBlurOuter1"></feColorMatrix>
        </filter>
    </defs>
    <g id="Website" stroke="none" stroke-width="1" fill="none" fill-rule="evenodd">
        <g id="Homepage" transform="translate(-148.000000, -4870.000000)">
            <g id="Widgets" transform="translate(165.000000, 4883.000000)">
                <g id="Browser">
                    <g id="Shape" transform="translate(0.000000, 0.327409)">
                        <mask id="mask-2" fill="white">
                            <use xlink:href="#path-1"></use>
                        </mask>
                        <g id="Mask">
                            <use fill="black" fill-opacity="1" filter="url(#filter-3)" xlink:href="#path-1"></use>
                            <use fill="#FFFFFF" fill-rule="evenodd" xlink:href="#path-1"></use>
                        </g>
                        <path d="M539.856512,61.263255 C539.091755,62.4454041 539.117345,64.4222092 537.434289,64.6936511 C535.833909,63.8458869 534.207939,63.0482805 533.302435,61.5061758 C530.567223,61.4874896 529.157786,60.138148 527.226701,59.3041526 C526.703083,59.9207978 528.431415,61.3979925 527.710949,62.2388722 C525.982617,62.7925744 523.553505,62.6243984 522.125367,63.4662617 C524.662747,63.6275532 526.492455,67.6529578 524.305466,69.5864896 C520.862583,68.7003695 518.242527,69.7477811 515.322277,71.5406745 C513.479774,72.6765998 511.96207,75.1244943 510.215038,75.2130079 C508.646154,75.304472 507.327268,74.0770826 505.593031,74.2383742 C505.095004,74.2816475 504.47001,74.8412505 503.89029,74.975988 C500.160008,75.8807943 498.885413,76.6007054 497.093105,79.6259056 C501.014331,81.3145496 496.902162,84.4184286 497.093105,87.9511072 C496.251577,88.490057 495.015368,88.6375798 494.17384,89.1765296 C493.032117,93.0180225 490.991781,95.928155 486.872722,96.7631338 C485.673914,90.1019891 485.12569,82.6196344 489.792972,79.6259056 C490.487848,79.1823539 491.476028,79.2925042 492.228975,78.8941927 C493.52916,78.2067366 494.49175,76.3056599 496.104925,74.7311002 C498.018294,72.8821482 500.683625,71.8740759 499.752531,69.0986809 C497.679714,68.565632 498.298804,70.7302828 497.807666,71.7904797 C497.520267,72.5802183 496.863777,72.9657444 496.09902,73.7485986 C492.560665,77.4042128 496.047839,73.2421037 497.565542,71.0587668 C496.678739,71.3793829 495.206311,73.7358133 492.694522,72.529077 C492.528185,71.5918157 493.682702,71.341027 492.936646,70.5630903 C488.313654,70.8079781 485.361909,72.727741 484.672938,76.928206 C480.509589,79.1253117 476.575568,74.679959 473.005717,76.928206 C472.4821,77.6933574 472.762609,79.2984051 471.55199,79.3761004 C471.621871,78.4762115 472.50769,78.3867144 472.272456,77.1730938 C468.899454,77.5645208 466.017589,76.8908335 463.766624,77.9107076 C461.942821,78.7397856 460.393622,81.6233639 458.908399,83.0504008 C456.880858,84.9760647 454.757845,85.8621848 453.559036,87.9432393 C454.961583,88.1753418 455.599373,89.1519425 456.708615,89.6653217 C459.628865,88.3612205 462.758759,89.6013952 463.040253,92.1132162 C463.161315,93.2874974 462.102269,94.867958 461.815854,96.023553 C461.509754,97.3020837 461.744989,98.8953296 461.088498,100.680355 C460.387717,102.595201 458.079666,105.715799 456.472397,108.023055 C454.636783,110.655845 452.239166,113.083086 450.153554,113.655474 C447.62897,114.341947 445.990205,113.841353 444.804191,115.370672 C444.179197,116.185981 444.644744,117.592365 443.593572,118.305392 C442.420354,118.440129 441.699888,119.011534 440.673322,119.287894 C441.495165,122.306209 444.204787,123.404762 443.593572,127.850115 C442.560116,129.107992 441.335718,130.149503 438.977471,130.059023 C438.913495,129.866259 438.772748,129.775779 438.492239,129.815118 C437.414492,128.370379 438.383972,125.942154 438.492239,124.1886 C437.63201,123.661452 435.923363,124.002721 435.329865,123.211999 C434.820026,122.069189 436.497177,120.411034 435.087741,119.538682 C433.474566,121.343377 431.632062,122.910069 431.198011,125.903798 C429.751173,126.808604 427.62127,127.033822 427.073047,128.846385 C429.144879,130.335382 429.120273,134.002798 429.751173,136.681811 C429.999202,137.772496 431.102539,139.051027 430.955887,140.10434 C430.834825,140.946203 429.668497,141.536294 428.762993,142.551251 C427.391942,144.12581 425.874238,147.542437 424.886058,148.673445 C423.457921,150.297179 421.411679,150.297179 419.052447,151.120356 C415.481612,152.372333 412.121406,153.290908 407.390148,153.078475 C407.046647,154.434701 404.527968,156.219727 404.713006,158.224069 C404.898043,160.272669 409.003323,161.583655 409.813355,163.856489 C411.15291,167.575046 409.208045,170.530419 407.135229,172.424611 C405.777957,173.664786 404.387221,174.480095 402.761251,175.611103 C400.964023,171.628972 398.955182,167.851405 394.256404,166.791208 C394.236719,169.978683 393.669795,174.030642 394.97687,177.318433 C397.51425,177.883937 398.955182,179.523407 400.575246,180.993717 C398.993567,183.209509 402.003384,184.455584 401.785866,186.871024 C398.872505,187.563397 395.728832,183.812385 394.492622,180.505908 C394.32038,180.042687 394.542819,179.227378 394.249514,178.545822 C393.466056,176.715557 391.693434,176.3497 391.572372,174.878406 C391.457216,173.34417 393.070391,169.020769 393.274129,168.024499 C392.394215,166.535502 390.889307,161.152888 389.149165,161.165673 C387.970041,161.177475 388.084214,163.966639 385.992696,163.613568 C385.202349,161.807889 384.488773,159.912713 384.781093,157.017333 C382.135447,154.98742 379.885466,151.505883 376.034122,152.11466 C374.771338,152.314307 373.9554,154.03639 372.864858,155.051346 C369.530242,158.224069 364.091313,161.146004 361.929914,164.846858 C363.95155,170.041627 360.362014,174.46731 356.103193,175.622905 C353.6229,168.937173 348.011728,161.89837 350.026475,153.092244 C348.222357,153.304677 345.384783,155.186084 344.185974,153.092244 C344.415303,152.243496 345.652497,151.440972 345.16136,150.64435 C343.995031,149.996233 342.32477,150.426016 341.272614,150.156541 C340.213568,149.104212 340.315929,146.874651 338.836612,146.23932 C334.042362,147.484412 330.178223,146.347503 324.988307,146.23932 C324.306227,145.532194 324.19796,144.253663 323.52769,143.547521 C320.078901,145.28829 314.397848,144.336276 314.295487,139.874204 C313.218725,137.946573 308.850653,136.360212 307.970739,139.629316 C309.890014,139.667672 310.087847,141.415325 310.641976,142.814825 C312.058302,143.270178 313.211835,143.984188 313.805334,145.262719 C313.371283,145.967878 313.415574,146.032788 313.569116,146.976934 C316.132085,151.266896 320.850548,146.931693 323.279661,144.77491 C323.719618,145.236165 323.457809,146.392743 323.52769,147.221821 C325.16055,148.59575 327.628048,149.1347 328.871147,150.901039 C327.921353,152.629023 326.269792,153.650864 326.44794,156.521657 C323.55328,157.523828 322.246205,160.137931 319.881068,161.667251 C318.823007,161.500058 318.516907,162.090149 317.445066,161.917056 C314.964773,164.871445 304.203055,169.99737 300.434388,167.29967 C300.039706,165.905088 300.676511,163.915498 300.434388,161.917056 C299.30546,160.035649 297.871418,158.461089 297.035795,156.284637 C294.115545,155.385731 294.262197,152.674263 292.910831,149.919521 C291.259271,146.565837 288.740592,143.894691 287.555563,140.617719 C289.959085,138.305545 286.859703,131.530316 289.748457,130.084593 C288.894134,128.865072 289.570309,126.577485 289.506333,125.677596 C286.018175,125.491718 282.855801,126.038535 279.298745,126.418161 C275.319449,125.197656 272.571442,122.736976 272.730889,117.355345 C271.341137,117.745789 270.167919,118.362434 268.114788,118.087058 C267.095111,120.849668 270.225005,125.144547 266.406141,126.410293 C265.156152,121.999362 260.094188,120.271379 261.062684,114.412758 C256.816658,113.224708 255.458402,109.132426 251.340328,107.802754 C250.931867,114.258351 257.097167,116.191882 261.305792,118.819755 C260.221156,119.460987 258.659161,118.7873 257.658186,118.568966 C258.092237,123.200197 255.203483,122.973996 254.502702,126.410293 C253.896408,124.568225 251.346233,124.683293 250.370848,123.224784 C250.689743,120.545771 254.917068,123.251339 256.204458,121.754474 C255.650329,121.25388 255.36293,120.482828 255.478087,119.307563 C253.450545,117.096689 250.191716,116.146642 247.941735,114.161969 C247.769493,111.895036 246.290175,110.93122 244.052005,110.739441 C241.865016,113.725302 238.370952,112.39563 235.298145,112.69756 C235.489088,116.795742 231.294243,116.493812 230.197795,119.307563 C230.318857,120.168113 230.566887,120.892941 230.439919,121.999362 C228.769658,124.053862 226.486214,126.294241 222.661444,125.42189 C221.972473,126.359152 221.073859,127.091848 220.958703,128.614283 C226.084642,131.632599 228.412378,126.776149 233.117061,126.159504 C237.759737,125.563512 241.935882,125.524173 246.00376,125.916583 C245.793132,128.170731 247.450598,129.783647 246.724226,132.52462 C248.700587,135.068896 255.432812,132.075167 255.714305,136.687712 C258.26448,136.488065 258.691641,138.428481 260.343202,139.128722 C260.673908,138.242602 261.573506,137.920019 262.293972,137.419425 C262.357948,136.225474 261.751654,135.454422 262.293972,134.478805 C265.634494,132.820649 267.464203,135.023655 269.58131,135.698326 C270.563585,136.014025 272.030108,135.807493 273.228916,136.186135 C274.43363,136.578545 275.147207,137.394838 275.900153,137.413524 C276.965104,137.427293 278.507413,136.245144 280.031022,136.186135 C284.386299,136.018942 288.562444,138.023285 285.623493,142.802039 C285.062474,142.879735 284.686493,142.757782 284.399094,142.551251 C286.38825,145.146668 286.624469,148.692132 288.052606,151.614066 C288.639215,152.814901 289.665781,153.746262 290.2455,154.800558 C290.965966,156.148916 290.838999,157.407777 291.457104,158.955782 C291.667732,159.515385 292.56044,160.170386 292.917721,160.921769 C293.306497,161.775434 293.299607,162.816945 293.638187,163.36868 C295.480691,166.317168 299.94325,167.009542 300.198169,170.961185 C303.596762,174.063097 309.966785,170.414367 313.326992,170.472393 C311.815194,178.314703 308.894944,183.704202 303.845775,187.853526 C302.570196,188.912739 300.823164,189.503814 299.720811,190.794146 C297.69327,193.17713 296.634224,196.162991 294.371448,198.386651 C295.473801,201.437422 294.587982,204.641616 295.09782,207.694354 C295.550572,210.371401 296.793671,212.201667 296.322219,214.791183 C295.276952,220.359676 288.690395,220.937965 286.349865,225.561328 C289.00929,228.041678 286.777026,234.098963 283.436504,234.374339 C283.398119,235.561405 284.475865,235.601728 284.169766,237.066137 C280.382397,243.064413 276.798767,248.826652 268.854939,249.788501 C266.789012,250.046174 262.459325,250.875252 260.82745,250.528082 C258.512509,250.03929 259.124708,248.016261 258.398337,245.145468 C257.435747,241.311843 253.450545,237.893248 252.321618,232.41622 C252.066699,231.162276 252.372799,229.769661 252.0854,228.497032 C251.397414,225.542642 248.642516,223.146872 248.196654,220.416718 C247.546069,216.467042 249.688767,212.144624 251.353123,209.646572 C249.560816,207.296043 251.295052,201.38038 248.196654,200.338869 C248.489959,196.17676 243.344334,195.013297 243.331539,191.039034 C243.331539,188.674736 245.608094,187.345064 244.792156,183.941222 C243.293154,183.093458 240.864041,183.171153 238.715438,182.95872 C237.415252,181.416615 236.126878,179.86861 233.615088,179.534225 C229.298197,182.059815 220.646698,183.710103 214.410532,182.476812 C211.783586,181.957532 208.111374,176.021216 205.662576,172.437396 C203.609445,169.445635 200.45396,168.371669 201.524817,163.137561 C202.736421,161.640697 201.99627,158.872186 201.766941,156.772445 C198.47071,154.29898 202.276779,151.363277 203.95393,148.692132 C205.420452,146.360288 205.930291,143.900592 207.365317,142.814825 C209.679274,142.128352 211.567052,141.011113 212.950899,139.385412 C212.452871,138.903504 212.223543,138.152122 212.223543,137.176504 C213.001095,134.856463 214.072936,132.834418 216.60441,132.281699 C217.400663,130.308828 218.414434,128.563142 220.244142,127.624897 C219.428204,126.732876 218.874075,125.583182 218.057153,124.689194 C217.043383,125.152415 215.647725,124.721649 214.659545,124.439389 C214.652655,122.736976 213.65857,122.260969 213.926284,120.764105 C214.135928,119.640965 215.437097,119.164958 215.628041,118.074273 C215.96662,116.185981 214.793402,114.496354 214.659545,112.196966 C217.567,110.071654 221.800231,112.704444 226.320861,111.946177 C227.914351,110.521107 227.679117,106.532092 226.320861,104.849348 C224.210643,104.425466 221.149646,103.731126 222.195897,100.931144 C225.160438,102.215575 226.218499,100.680355 228.029507,99.9486421 C229.406464,99.4018244 230.879876,99.6073728 231.919237,98.7281371 C232.288328,95.5032894 235.01173,94.9899102 237.2686,92.85083 C238.358157,91.8171872 239.142599,90.2504954 240.18196,89.909226 C241.802025,89.3948633 244.077596,90.6222528 244.568733,88.194028 C243.580553,86.742404 242.522491,85.349789 242.611073,82.8114139 C243.969329,82.047246 244.561843,80.5257945 246.500803,80.3586021 C246.62777,82.9215643 248.489959,83.7506422 249.656287,85.2593084 C249.140544,86.9420514 246.666156,86.6460224 246.500803,88.6828201 C248.381692,90.8799259 251.225171,87.2626676 253.546017,89.6653217 C254.891478,89.5886099 255.630644,88.2451692 257.199528,87.9432393 C259.24577,87.5586966 261.796929,88.688721 263.275263,87.2115264 C263.995729,84.0122493 264.952414,81.0647444 267.64924,79.863909 C267.547863,81.3411037 267.694516,82.5871793 268.376596,83.2874207 C269.639381,83.1644851 269.300801,81.4433861 269.836229,80.595622 C269.262415,79.3761004 268.032111,78.8105965 268.134472,76.9223051 C269.976976,76.1197812 273.725959,75.7785119 275.42181,76.9223051 C276.250543,75.4254407 280.356807,74.5835774 278.099937,72.265503 C277.678681,73.0749113 277.63439,74.250176 276.639319,74.4675262 C275.517282,74.2954163 274.784021,73.7358133 273.968083,73.2480047 C271.641332,74.0957688 270.015362,75.6378735 266.425826,75.207107 C265.117766,73.5115787 265.927799,69.6700858 265.214222,67.377582 C266.552793,64.3789359 270.633466,63.9540703 271.041927,60.2728855 C269.102968,60.1843718 267.879553,60.8383894 266.189607,61.0055819 C265.602998,62.386395 264.716195,63.4397076 264.480961,65.1676909 C261.350083,66.9930393 258.385542,68.9836132 257.919995,73.4928925 C259.991827,73.7682683 261.18473,74.943533 260.833355,77.6550015 C257.498738,78.5086666 257.875704,81.6813895 256.459377,84.263038 C254.119831,84.263038 253.501726,86.0234763 251.353123,86.2221403 C249.375778,83.634591 249.108064,79.3377445 246.979145,76.9154207 C245.359081,79.5295241 239.417203,81.8682517 237.740052,77.6550015 C238.084538,77.2753762 238.715438,77.1652259 238.467408,76.1827242 C235.64263,67.9430859 243.376814,66.7865074 246.972255,63.4603608 C247.285245,61.4363484 249.401368,61.0380369 250.370848,59.5411726 C250.689743,59.0602483 250.555886,58.1220035 250.861985,57.5830537 C251.652333,56.1560168 253.118855,55.6426375 254.01747,54.1526576 C252.659214,54.1339714 251.384619,54.0316889 250.861985,53.1760569 C252.44268,52.4895843 254.07554,51.3585764 255.956429,50.723245 C256.708391,50.4783572 257.435747,50.7291459 258.149323,50.4783572 C259.144393,50.1331539 259.711318,48.969691 260.82056,48.5202383 C261.847126,48.1081581 263.148295,48.4690971 264.226042,48.0324297 C265.544928,47.4865955 265.934688,45.9444908 267.394321,45.8225386 C269.319501,46.5168791 270.015362,44.5823639 272.004517,44.6020336 C273.088169,44.4092705 272.48286,45.9120358 273.47104,45.8225386 C275.594053,44.4545108 278.584184,45.8471258 280.509364,46.8050403 C280.496569,47.550522 279.623545,48.0766865 280.27413,48.7572582 C281.740653,48.7002161 284.150081,49.50274 285.132356,50.7173441 C288.205164,49.5273271 289.652986,51.3143195 291.457104,51.9368656 C292.439379,52.2899368 293.720863,52.1040581 294.364559,52.4315586 C296.073205,53.2989925 297.438351,55.4695442 298.01118,56.837572 C294.919672,61.8985864 288.269139,58.2636254 283.671738,56.837572 C285.081175,59.316938 288.460083,59.4457745 287.555563,63.6973807 C288.868544,64.2500993 289.933495,65.0654085 291.935446,64.9178857 C292.113594,64.1920737 289.25732,63.2862839 290.474829,61.494374 C292.776974,61.5386308 294.007278,63.7160669 296.315329,62.9656677 C296.11848,61.6940215 295.154906,61.1934276 295.091914,59.7801594 C298.426531,59.8686731 299.127312,56.9850947 302.628266,58.5586709 C302.819209,55.5914963 301.455048,54.1851126 300.93143,51.9427665 C302.245395,52.109959 304.993403,52.669562 306.511106,53.4150438 C306.459926,54.8981393 305.585917,55.7714741 304.566241,55.6170669 C305.057379,57.5122428 306.944173,57.332265 308.698095,56.837572 C308.857542,55.8678556 307.747316,55.4184029 308.461877,54.6345653 C312.434283,54.1339714 315.283667,51.2366242 319.160602,51.4549579 C319.211783,52.4187733 318.280689,52.3676321 318.433246,53.4150438 C320.882044,52.3027221 323.323952,51.1667968 326.691048,50.9671493 C327.74222,51.1343418 327.423325,52.6754629 328.877053,52.4374595 C329.254018,51.8404841 329.241223,50.8442137 329.362285,49.9905486 C328.361309,49.002146 325.555231,48.6549758 325.963692,47.0499281 C327.576867,46.1756098 329.0365,47.6459201 330.828807,48.2694496 C332.741192,48.9303516 334.940976,48.8792104 336.898636,49.4899546 C339.276568,50.2275685 340.711595,52.5348246 342.739137,52.9134663 C343.127913,50.4026288 340.768681,50.6524341 340.297229,48.9942781 C340.72439,46.9456786 339.461606,46.5867066 339.333655,45.0839413 C341.125962,43.0471436 343.401532,41.5060225 344.683017,38.9627299 C346.940872,39.2961314 349.758761,39.0718968 350.510722,40.9149479 C350.007774,42.1993795 348.706604,42.6881716 348.323734,44.1014397 C350.530407,45.2058935 349.3503,49.0778744 349.784351,51.449057 C349.969389,52.4118889 350.625879,52.7334886 350.510722,53.6520637 C350.141631,56.7598766 346.673157,57.3253806 344.440894,58.5468691 C350.383755,59.4644607 352.219369,56.2592827 352.704601,51.6870604 C355.24198,51.2621948 356.516576,52.0912728 357.333498,53.401275 C359.341354,48.5261392 351.448706,52.5780979 350.765641,49.4840537 C350.497927,48.2891193 351.868978,47.6911604 351.984135,46.2965785 C350.67017,44.4869659 350.090451,41.1214798 353.188849,40.909047 C353.342391,40.2471615 352.882749,38.9696143 353.430973,38.7060403 C355.669142,39.7652538 353.890614,42.1797098 353.430973,43.850651 C354.732142,44.3709146 356.300042,45.367185 357.81184,44.3384596 C357.17405,43.587077 355.24198,44.1456965 355.133714,42.8681493 C355.273476,41.9367889 355.478199,41.0890248 356.829565,41.3968556 C356.631732,40.2983027 357.269522,40.0357122 358.059869,39.9265454 C359.73013,41.2876888 363.26258,44.049315 365.832439,42.1285685 C363.957456,41.5827343 362.045071,41.6033875 361.69468,39.9265454 C360.923033,35.9631003 366.985972,35.1664774 371.41802,36.0083406 C371.832387,34.2479023 373.464262,31.5374173 375.54889,30.86373 C376.091208,30.6906366 376.971122,30.9414253 377.742768,30.86373 C380.050819,30.6581816 383.123627,29.3983372 385.527149,29.1485319 C387.140324,28.9872404 388.874561,29.4248913 390.379469,29.1485319 C392.586143,28.7561214 394.256404,27.1373049 396.219969,27.4392348 C396.621541,27.0350224 396.410913,26.0013796 396.462093,25.2362281 C398.157945,23.9006554 401.002408,22.4952551 403.992539,23.2781093 C404.183483,24.2291394 404.247458,24.5497555 403.750416,25.2362281 C405.33111,25.2037731 405.36359,26.7271916 406.427558,27.196314 C410.76315,25.8341871 418.128243,26.038752 417.847734,30.3818223 C417.770963,31.5177476 416.425502,32.4687777 415.417637,33.0736211 C412.216877,35.0061693 406.179528,36.0525975 404.725801,38.7060403 C407.403927,37.3252272 411.45212,37.3252272 412.988524,34.7888191 C413.523952,35.3080992 412.676519,35.5136476 412.75329,36.2591293 C416.317235,36.978057 420.18728,36.1755331 423.923468,36.9908423 C425.9953,37.440295 427.085842,39.2961314 428.781693,39.4387367 C430.962777,39.6246154 432.856461,38.4936075 433.646808,36.2512615 C436.451902,36.3741971 438.766842,36.9721561 441.431189,37.2337631 C442.955782,39.3669423 441.278632,44.742672 444.10341,45.5530637 C444.453801,45.8166377 446.219533,45.4104584 446.781536,45.0642716 C447.762827,42.2259336 444.823876,40.4969667 445.563043,37.9605586 C446.118156,39.3551405 446.430161,41.0113294 447.02366,42.3734563 C447.731331,43.0599289 447.502002,41.4096409 448.483293,41.634859 C449.937021,45.3534162 454.974378,42.6557166 459.176113,43.5929779 C459.691857,42.89372 459.182019,41.1529513 459.667251,40.4074696 C462.695768,39.0325574 468.580559,41.7115708 470.359087,39.187948 C470.716367,39.9639178 469.243939,40.645473 470.359087,40.6582583 C473.062803,40.9542873 476.301948,40.7034986 476.677929,43.3431727 C478.673975,43.4720092 480.102112,45.1350825 482.027292,45.3081759 C484.539081,45.5392949 486.592213,44.4987677 488.830382,44.8203673 C489.983915,44.9875598 491.648271,45.6750159 492.471098,46.2906776 C494.683678,47.9488335 494.441554,50.7173441 497.342119,48.9834598 C497.928728,48.6284217 496.12461,47.8072116 496.850982,47.2682618 C498.35589,50.62588 503.979856,47.9871894 507.785926,48.4877833 C508.563478,49.9394073 509.443391,51.7568878 511.675655,50.4459022 C511.789828,49.1103294 509.813467,48.8467554 510.706176,47.5052817 C520.715931,47.7934428 529.610538,51.3143195 535.993357,56.0802884 C536.050443,56.7352895 534.972696,57.4729034 535.737453,58.0325064 C536.375243,57.6155087 535.896901,56.0861893 536.713823,55.8294997 C539.582892,56.6133374 541.935234,57.9095707 543.995255,59.548057 L543.995255,60.2807534 C542.598614,60.5885842 541.208862,60.9032994 539.856512,61.263255 L539.856512,61.263255 Z M524.070232,45.0583707 C525.032822,42.7393128 528.985544,42.8681493 531.36446,43.8378657 C531.249304,46.3880426 525.650927,46.3044463 524.070232,45.0583707 L524.070232,45.0583707 Z M470.595305,32.8228323 C470.626801,30.3169123 477.200562,31.3643239 478.131657,32.5710602 C477.334419,34.3639535 471.838404,33.7089524 470.595305,32.8228323 L470.595305,32.8228323 Z M466.712465,37.7097699 C465.303028,38.59589 461.87294,38.2683894 460.387717,37.7097699 C460.584566,35.2058168 466.463451,35.3975964 466.712465,37.7097699 L466.712465,37.7097699 Z M455.771615,32.5710602 C455.178117,26.5924541 460.833579,30.9787977 462.81683,28.8977432 C464.378824,30.4654185 466.852227,29.0137945 468.899454,29.8802449 C469.026421,30.9011024 468.771502,31.5374173 468.414222,32.0832515 C464.11111,32.0704662 459.737132,34.1397189 455.771615,32.5710602 L455.771615,32.5710602 Z M393.554638,22.2887232 C393.599914,20.2263549 397.730783,19.9057388 396.474888,18.1256307 C398.432549,16.4940289 402.832117,18.0046621 403.763211,20.3306044 C401.295713,21.7743605 396.392212,22.7893172 393.554638,22.2887232 L393.554638,22.2887232 Z M394.03987,20.5676243 C390.443445,20.6453196 386.980877,18.5642651 384.067516,17.1431291 C383.920864,16.553038 383.717126,16.02589 383.825393,15.1850102 C383.149217,15.4810393 382.155131,15.4544852 381.147266,15.4357989 C380.752585,14.6903172 380.063614,14.2349636 380.177787,12.9879045 C383.372641,11.8441113 386.318481,9.38539849 390.621593,10.7780134 C391.106825,12.5581215 390.322383,12.8590679 389.888332,14.2084095 C390.533011,15.3581036 392.859763,14.805385 394.517228,14.9401224 C394.657975,16.1871816 393.714086,18.3380635 394.03987,20.5676243 L394.03987,20.5676243 Z M203.233464,11.9995019 C203.195078,14.3500314 200.147861,15.2813918 197.647882,15.9177066 C197.47564,16.822513 198.062249,16.9700357 197.890991,17.8758255 C196.615411,19.1091159 195.009126,20.0286744 194.492398,22.0379345 C196.411673,22.0644886 197.539616,22.8797978 197.890991,24.4848455 C199.1272,24.3048677 199.7394,24.7484195 200.326009,25.2175419 C200.459866,26.4183773 199.943138,26.9514262 199.356529,27.4205486 C198.521891,27.5169301 197.329972,25.0955898 195.467783,26.2000436 C194.94515,28.846602 197.284697,28.6095821 198.13902,29.874344 C197.896896,32.7323517 196.704977,34.6275275 195.952031,36.9721561 C194.91956,37.241631 193.860514,37.4786509 193.280795,38.1975785 C193.988466,39.5272504 193.273905,40.0986553 192.547533,41.140166 C194.153818,44.7888958 190.316253,44.8715085 189.143035,46.528681 C189.143035,46.7725853 189.346774,46.8188091 189.391065,47.0174731 C190.558377,47.6075641 192.910719,46.4332829 194.007166,47.5052817 C188.862526,50.394761 183.940325,53.5173262 176.263226,53.8703974 C174.382337,55.2059702 174.171709,57.8653139 172.131373,59.2579288 C169.588088,60.999681 165.283992,59.7722916 163.135388,62.4454041 C163.740698,66.5681737 161.394262,67.704099 159.73089,69.5481336 C159.97892,70.8650202 160.686591,71.1158089 160.464152,72.4907211 C159.666915,77.2055488 153.348072,72.6697154 150.013455,72.9785297 C148.292014,69.060325 143.745794,64.3268111 142.23498,60.2482984 C141.355066,57.8908845 140.047991,55.6367366 142.23498,53.1514697 C143.083398,53.0285341 143.816659,52.7846298 144.906216,52.900681 C145.346173,51.9427665 145.219206,49.7269746 144.906216,48.738572 C143.624732,48.7572582 143.618826,50.0554586 142.477104,50.2088823 C141.189713,50.1193851 140.577514,49.3493163 139.556854,48.9834598 C140.494838,47.9094941 139.921024,48.3019046 139.31473,47.2682618 C139.270439,46.4067288 140.137557,46.4637709 140.28421,45.7959845 C142.011557,46.9269924 143.599141,46.1244686 145.142435,45.3081759 C143.930831,44.4928668 143.133594,43.2536755 141.985966,42.3655885 C141.463333,43.8703207 138.396431,44.9039635 137.363959,43.0982849 C137.459431,40.8313517 138.498792,40.2983027 138.097221,37.9546577 C137.842302,36.4961493 133.398443,30.9925665 132.505734,30.3680535 C127.092395,26.5403294 116.380875,31.5049623 113.059053,25.7122349 C113.103344,24.6903939 114.320853,24.8575864 114.76081,24.2478256 C113.447829,23.1168177 110.60435,23.528898 109.660461,22.0379345 C112.51083,18.472801 118.223378,18.8524262 122.297162,16.8923404 C122.150509,15.9747488 121.379847,15.6915051 121.328666,14.6903172 C120.295211,14.5044385 118.446802,15.1397699 118.166292,14.2025086 C118.140702,12.8275964 119.849348,13.0587154 120.60131,12.7321983 C123.592426,11.4271136 126.824681,10.0974417 129.349266,8.81989454 C129.814813,8.55632053 129.686861,7.68987014 130.082527,7.34860081 C133.926982,7.29155867 138.148401,4.47780774 141.992856,5.14559414 C143.574535,5.42195346 144.511535,7.29647609 146.366834,6.86079219 C146.685729,6.35921478 144.722163,6.07695455 145.149325,4.65778552 C148.40028,3.77166543 151.225059,5.37081223 153.412048,6.36511569 C153.648266,5.87730707 151.978005,5.20952067 151.709307,4.41289773 C151.964226,3.59168765 152.442568,4.3883106 153.169924,3.9191882 C153.112838,3.16092117 152.487843,2.96815809 152.194539,2.44789446 C156.912017,1.25394353 166.769215,3.30844394 170.180602,0 L171.64122,0 C175.957127,0.977584208 179.872447,-0.461254521 183.793673,0.244887795 C187.051518,0.834978866 189.652873,3.77166543 192.541628,4.16309251 C192.457967,5.22919038 191.196167,5.10035382 190.596763,5.63340276 C191.699115,6.32184234 193.178433,6.6286897 194.243385,7.34860081 C192.98749,8.69105799 191.96683,10.2715186 190.838887,11.7546141 C192.822137,11.3828568 195.372312,9.46112684 197.163635,8.08031373 C197.794535,8.34388775 198.355553,8.67827269 199.350624,8.57008932 C200.951003,6.69359972 207.148784,6.44871192 209.310182,8.08031373 C208.557236,10.6698301 205.758048,11.1959946 203.233464,11.9995019 L203.233464,11.9995019 Z M81.9638521,24.980522 C80.6823672,25.1280448 80.1203642,24.5497555 78.8014781,24.7356342 C78.813289,22.6614641 82.8624663,23.1492727 81.9638521,24.980522 L81.9638521,24.980522 Z M117.451732,8.57599023 C118.631839,10.1810379 122.240076,8.94774761 124.012698,8.82579545 C121.59638,11.4457998 116.801147,11.6779023 114.289358,14.2084095 L111.618121,14.2084095 C111.662412,15.0502728 113.422239,14.1838224 113.319878,15.1850102 C110.802183,17.7155174 104.292397,15.1909111 102.14281,18.3646176 C103.501066,17.0801861 104.833731,17.2532794 107.486267,17.3880169 C107.275639,19.2182827 106.503992,20.4781271 104.329799,20.3306044 C103.667403,20.9905229 104.954793,20.9334807 104.815031,21.7950137 C103.692993,22.371336 102.978433,23.3803917 100.925301,23.0204362 C100.281606,23.3803917 101.81801,23.5731548 101.416438,24.4907464 C100.932191,24.8261148 100.019797,24.7297333 99.4656679,24.980522 C99.9883012,25.5057031 100.88101,25.6728955 101.652657,25.9551558 C100.721562,27.8257445 96.9273042,29.2262273 94.8426767,27.6703538 C90.3092517,29.1996732 85.5337028,27.6270805 81.4727146,28.4030502 C84.9283931,33.4325931 92.9047015,27.8827866 98.2471746,30.6070404 C98.4705979,32.3792806 97.9351695,33.3942372 97.520803,34.5252451 C95.4617658,34.1839757 93.3446583,35.4162826 92.6556879,33.7925487 C90.5395647,34.2095464 85.954959,35.4044808 84.1567463,33.7925487 C82.0908195,34.7681659 79.7000923,33.702068 77.8379038,33.0529679 C78.3743164,30.4782038 77.3723567,29.2576988 75.8871334,28.1601294 C73.0692446,28.1463606 69.7218328,28.6607233 70.0535229,25.4683306 C72.1194497,24.4720602 75.5879234,26.7655475 79.5337551,26.4508323 C82.2502669,26.2265977 83.9913934,25.4299747 86.3378297,24.7356342 C86.1586974,23.9390113 84.7689457,24.356009 84.6350886,23.5082448 C85.1390212,20.9659358 89.3151659,24.2802806 89.4933139,22.0379345 C88.5622197,21.8579568 86.6941258,22.1667711 85.6045683,21.5501259 C85.4766167,19.9509791 86.8732581,19.8860691 87.0642013,18.6154063 C84.7817409,19.7651004 83.5829324,22.3280626 80.5032349,22.0379345 C78.5396693,21.8579568 77.0160606,20.3040503 75.1538721,19.8349279 L75.1538721,18.6154063 C75.1538721,17.8050146 75.8428425,17.676178 76.6144893,17.6329047 C75.8359527,16.9444651 74.2867537,17.5738956 73.9422685,18.1256307 C72.0682691,17.8827099 71.6981936,16.1419413 70.7798945,14.9479903 C72.0810642,12.7380993 73.2218023,10.110227 75.6450095,9.80239618 C79.177459,9.35884439 80.9116959,14.0864574 84.8841022,13.483581 C85.5533877,14.6008201 86.2925545,15.6482317 87.5553387,16.1734128 C88.3968668,15.3384339 86.509088,14.7542437 87.3063251,13.9713896 C90.4686991,13.0655998 93.6310731,14.4149414 96.0601858,12.9879045 C93.5552864,12.4686243 91.5464456,12.3850281 88.5238342,12.9879045 C87.9697052,12.7321983 87.8486433,12.0319569 87.3063251,11.760515 C82.5120756,12.9692183 81.7276336,9.19755283 78.0741222,8.57599023 C79.6932026,5.31278661 87.0514061,7.83050851 89.2511901,5.14559414 C94.9962187,6.40543858 97.2914743,1.70929714 102.136904,3.67528389 C103.539451,2.00532616 106.574858,1.93353174 108.213623,3.43039609 C110.316951,0.963815416 115.998004,3.44908231 119.632815,2.94258747 C119.816868,3.77166543 118.740106,3.34089895 118.663335,3.9191882 C122.883771,2.55804479 126.008743,3.94475881 128.870923,5.63340276 C126.984129,8.41469867 121.303076,8.58877554 117.451732,8.57599023 L117.451732,8.57599023 Z M76.6144893,23.2712249 C76.0721712,24.7739901 72.3231881,24.3373227 70.773989,23.9970369 C71.1755603,22.2828223 75.6322144,22.8856987 76.6144893,23.2712249 L76.6144893,23.2712249 Z M73.451131,21.5501259 C73.1834168,23.0715774 70.6332422,22.3015085 69.5623854,23.0145353 C68.5929057,22.1156299 67.809448,21.0298623 67.3694912,19.5910236 C69.2306954,18.8071859 72.5141313,19.8801682 73.451131,21.5501259 L73.451131,21.5501259 Z M64.2130226,15.9236076 C63.964009,12.7440002 68.5043238,15.1781258 66.6421353,16.9002083 C65.8773782,16.5343518 65.1825024,16.0839156 64.2130226,15.9236076 L64.2130226,15.9236076 Z M65.9157637,23.2712249 C63.3390145,22.2690535 61.2927725,20.7407177 57.1678085,21.313106 C57.052652,20.6059802 56.3065955,20.5479546 56.4404526,19.597908 C57.0083611,19.5143117 57.351862,19.2054974 58.136304,19.3530202 C57.3902475,18.6340925 55.8351429,18.7304741 55.2229436,17.8827099 C58.1490991,15.4997255 62.6953193,19.1091159 65.6726556,19.8408288 C66.1893833,21.1783685 66.9866205,22.0890758 65.9157637,23.2712249 L65.9157637,23.2712249 Z M56.676671,29.6363406 C56.5428139,30.6129413 56.5428139,30.3759214 56.676671,31.3456377 C55.5930191,32.1343928 54.2406687,32.6428546 53.0290651,33.3037566 C48.7446536,31.5502026 46.3155409,35.1527086 41.6098733,34.5301625 C41.2663724,33.7600937 40.5833075,33.0598523 41.1256256,32.0832515 C39.2506419,32.2120881 36.5990902,32.8533204 35.7762628,31.3456377 C35.5981147,30.2716719 36.5666102,30.3434664 36.7457425,29.6363406 C34.9918208,31.0437078 32.7861314,29.4504619 30.9180374,30.3680535 C30.503671,30.1369345 30.382609,29.6038856 30.1847761,29.142631 C29.4515148,29.4180069 27.7231834,29.6107699 27.0283076,29.142631 C27.0224021,28.5702427 27.442674,28.4217364 27.2704314,27.6782217 C31.433781,27.7028088 31.5873229,23.6960904 36.5026344,24.4907464 C36.674877,23.1433718 38.4474993,24.2665118 38.6896232,23.9970369 C39.4041839,25.3011382 38.6522219,27.228769 37.7211277,27.6782217 C36.4780283,27.8768857 35.8146483,27.4785742 35.292015,26.9386409 C34.7309963,27.427433 33.9140743,27.6782217 34.0804114,28.8977432 C37.86778,27.8886875 44.4346518,26.5019735 47.2023442,30.6129413 C48.0694626,30.265771 49.389333,30.3621526 49.8735808,29.6363406 C49.3312627,29.0383816 48.2859962,28.9429836 47.4444681,28.6528554 C47.3676971,27.7618179 47.7180878,27.2926955 47.9287158,26.6947366 C49.4720095,26.861929 50.2692466,26.2777389 51.8184457,26.4508323 C51.3076234,27.5169301 51.6717934,28.9813395 52.3026934,29.6363406 C53.8203967,29.7917312 55.4010916,28.9360992 56.676671,29.6363406 L56.676671,29.6363406 Z M42.579353,21.0623173 C43.4277708,19.1405874 46.4877835,19.4503852 48.8981956,19.1091159 C49.5231901,19.6097098 49.7909043,20.489929 49.6314569,21.7950137 C48.1196591,20.7082627 44.5114228,21.7301037 42.579353,21.0623173 L42.579353,21.0623173 Z M43.3185198,22.5463963 C44.9700802,22.0831749 47.8204491,21.0623173 49.3952385,22.0507198 C48.9237859,22.3910057 48.3371768,22.6221247 47.686592,22.7834163 C47.7633629,23.3617055 48.8342197,22.930939 48.6619772,23.760017 C46.8637645,24.9539679 43.0960808,26.1734895 42.3431346,23.2712249 C41.131531,23.226968 40.8962969,23.6311804 40.1561458,23.034205 C39.9592972,21.1006732 42.7200998,21.8520558 43.3185198,22.5463963 L43.3185198,22.5463963 Z M33.1050262,35.2628589 C33.9652549,35.3464552 34.9347347,34.6599825 35.7762628,34.7750503 C37.1916048,34.9746978 38.9770223,36.0407957 39.4228845,37.4658656 C35.9868909,39.155493 31.7526758,40.0288278 30.4337897,43.8378657 C29.0046683,44.0296453 28.2143209,44.8587232 26.7861837,45.0583707 C25.0460414,44.0375132 24.5224239,41.7951671 21.6789448,41.8787633 C23.7635723,40.079969 25.8678846,37.0046111 23.8659336,33.7984496 C25.5106043,33.669613 29.4702154,33.6253562 31.3963797,34.2862582 C32.0715707,34.5173772 32.5312123,35.2117177 33.1050262,35.2628589 L33.1050262,35.2628589 Z M70.7798945,39.6757567 C71.4117787,41.0378835 70.7611939,42.5780212 70.0535229,43.3431727 C68.5289299,42.8740503 68.0574773,43.6392017 66.6480408,43.8378657 C65.4049414,41.7381249 62.0959151,41.7243562 60.3301825,40.1635653 C60.5083305,39.6049457 60.546716,38.9115887 60.8144302,38.4483672 C62.0260338,38.4552516 63.001419,39.720997 64.2130226,38.9371593 C64.3340846,37.6723975 62.8291764,38.0500557 62.2681577,37.4658656 C63.0585051,35.4625064 69.2434906,34.5498322 70.0466332,36.978057 C70.288757,38.2054464 68.9629812,37.8445074 68.8350296,38.693255 C69.0525473,39.4446376 70.3596226,39.1161536 70.7798945,39.6757567 L70.7798945,39.6757567 Z M76.1292573,30.8578291 C76.3595702,32.3979668 75.7591818,33.1041091 75.1538721,33.7984496 C73.5219966,32.8228323 72.2720075,34.6275275 71.0289081,34.0433374 C70.3852129,33.3037566 70.6903283,32.712682 70.7867842,31.5954429 C68.1470434,30.86373 67.0692969,34.2420014 63.9768042,32.5710602 C63.3901952,32.0832515 64.3852652,31.4095642 63.7346803,30.8578291 C61.2799773,30.2529857 59.2839318,33.5535618 58.3853175,30.8578291 C59.1628698,31.062394 59.3095221,30.6453963 59.6028266,30.3680535 C59.1254686,28.9360992 56.874504,28.1080047 57.4158378,26.4508323 C59.5457405,26.5088579 59.5142447,28.2683128 61.298678,28.1660303 C62.3321335,28.1080047 62.4915809,26.9189712 63.7287749,26.6947366 C65.2710843,26.4183773 66.5594589,27.394978 68.3448764,27.6782217 C68.6057008,28.3066687 68.9442806,28.879057 68.8350296,29.8802449 C70.3212371,31.1518911 74.6243491,29.6038856 76.1292573,30.8578291 L76.1292573,30.8578291 Z M24.3698662,48.0117765 C25.3452514,48.178969 24.8669091,49.8046699 26.0785127,49.7269746 C28.2782967,46.7981559 29.1257302,48.8733095 31.6640939,49.9718624 C34.4819827,51.185483 37.7339229,51.0320593 41.1453104,51.1913839 C41.463221,51.9309647 41.9287682,52.5269567 41.871682,53.6451793 C41.8145959,54.4870425 40.2968926,53.8507277 40.4120491,54.8656843 C43.2171428,54.4221325 46.93463,54.9040402 49.4080336,54.1339714 C50.772195,54.4034463 51.0979795,56.9909956 52.3282838,56.5808824 C51.0084134,55.2128546 51.8814373,54.4929434 50.8676666,52.906582 C51.7416747,51.7323007 54.5280677,51.5001982 55.7327816,51.4421726 C54.9552294,51.3261214 54.8725529,50.5049113 54.0310248,50.459671 C50.9828231,51.9044106 46.8007729,53.1514697 42.3628195,52.4187733 C42.6492343,48.6225208 36.2034244,51.5651082 36.5223193,48.5015521 C36.8028286,45.9248211 42.0055391,48.1160259 44.5498083,47.0361593 C41.8077062,45.7517277 37.0646374,47.9222794 35.0685918,45.8097533 C34.8008776,44.7239858 36.1394486,44.5194209 35.5528395,43.8565519 C29.6168677,41.7440259 39.12958,37.8641771 42.3559298,37.9733439 C42.5606524,39.0777977 41.7890056,39.1938489 41.6295582,39.9314628 C42.9809243,38.9115887 46.449398,38.166107 46.4877835,40.909047 C47.387382,40.4330402 48.0438723,39.6944429 48.1905246,38.4611525 C50.351923,38.8083228 50.5556614,41.1332816 52.0733647,42.1364364 C52.066475,41.6033875 50.804675,39.0836986 51.3460089,37.9733439 C52.7239496,37.8445074 52.8893025,37.8445074 54.266259,37.9733439 C54.34303,37.3822694 53.2081973,36.7921783 54.0241351,36.2591293 C57.7032369,35.7575519 58.4168133,38.7502972 56.2111239,40.4133705 C57.8429994,41.7892662 57.6008756,45.0583707 59.1254686,46.5414663 C60.7445489,47.0361593 63.4226752,46.4519691 63.5053516,48.4936842 C63.3586994,49.4899546 61.8350906,49.0985276 61.076239,49.4761859 C60.5152202,50.2157667 61.8596967,50.6848891 61.5604867,51.9240803 C60.1638453,53.3048934 57.1993043,51.4549579 55.969,51.9240803 C58.500474,54.8794531 61.8793816,54.5057288 66.6677256,54.6158791 C67.3183105,54.0434907 67.809448,53.3107943 68.1273586,52.4118889 C67.0633915,52.0981572 65.5073027,52.2771515 64.9649846,51.4362717 C65.7110411,49.8174552 68.0387767,49.798769 68.8547144,48.2507634 C70.0407277,49.2578522 71.5515413,49.9335064 72.9796784,50.6976744 C72.642083,51.7441025 71.7680748,52.2515809 70.5574555,52.4118889 C71.0161129,53.0413194 70.9078461,54.8469981 71.525951,55.8354006 C72.7503497,55.7714741 72.3930694,54.1074173 72.74346,53.1514697 C74.0003388,52.4512283 75.4540663,51.7755741 74.688325,49.7210737 C73.2414872,48.5713795 70.5249754,48.6874308 69.5879757,47.0292749 C69.3133718,44.4092705 72.2720075,43.978504 72.7503497,42.3734563 C73.272983,40.6002327 71.5200455,39.9206444 71.0476087,37.7156708 C72.1440558,34.6078578 78.8585642,34.2862582 81.2561811,36.4902484 C80.2739062,38.3077289 78.5327796,40.2983027 75.9068183,39.6816576 C75.4156808,40.3248568 75.0771011,41.1273807 74.6952147,41.8856477 C76.2444138,43.8309813 78.6351409,44.9423195 78.0997125,48.9834598 C79.7000923,49.3286631 80.5544155,50.4213151 80.5288252,52.4118889 C81.6705475,50.5944084 84.5583176,50.125286 85.3870505,52.6557932 C84.9470938,53.43373 84.2591076,53.9667789 84.4116654,55.3534929 C87.3575058,56.4904017 88.4155674,52.0204619 88.7925327,48.9834598 C87.7974626,46.7145596 83.5130511,47.7688557 82.4668004,45.5530637 C82.8939621,45.0839413 84.462846,45.7635295 84.4116654,44.8203673 C79.0878929,45.8225386 81.5298007,38.1602061 84.1695415,36.7410371 C86.0120451,35.7447666 88.7600526,35.91786 90.488384,36.4902484 C87.4726623,37.4845518 85.6675599,40.844137 88.785643,43.1061527 C89.5376049,41.1332816 89.6340608,40.5884308 89.2698907,38.2113473 C92.3052973,35.5077467 99.9056247,36.6692426 103.852441,37.9605586 C103.086699,38.2565876 103.819961,38.8535631 103.609333,39.9206444 L105.312074,39.9206444 C106.523677,42.6940725 110.151598,43.0412427 113.332673,43.8378657 C114.078729,44.7947967 114.716519,45.8736799 115.277538,47.023374 C117.196812,46.4332829 119.134788,47.6075641 120.135763,48.7326711 C119.664311,50.2993629 117.706651,50.3701738 116.738155,51.4284038 C117.521613,53.1190147 119.096402,53.4720859 121.111148,53.3884897 C122.762709,55.8039291 127.697705,54.9099411 129.125842,57.5505987 C127.570738,59.079918 126.06583,60.6721804 124.516631,62.2005163 C122.119014,61.3340659 121.634766,57.2929256 117.948774,58.5331003 C118.058025,62.2900135 123.592426,62.6125966 123.534356,67.3520114 C122.322752,67.1012227 122.686922,68.4446633 121.838504,68.5734999 C119.657421,68.366968 118.619044,65.8040058 117.215513,65.6309124 C117.981254,68.040451 120.320801,68.861661 121.347367,71.0135265 C118.427117,71.3223408 116.432055,68.6364429 112.84252,68.8105198 C111.171274,67.8280182 110.087623,65.0142672 107.741186,64.403523 C105.471521,63.805564 102.595562,65.3348834 100.689082,63.6649257 C100.638886,60.504988 105.337664,62.1434742 107.014815,60.7302061 C107.96461,59.4644607 105.618173,59.7919613 105.796321,58.5271994 C109.762822,59.047463 110.655531,53.7995864 107.98331,53.1436019 C105.260893,52.4699146 105.662464,55.3997167 104.094565,56.568097 C103.76878,56.0861893 102.404619,56.6457924 102.398713,55.8294997 C102.430209,54.55687 102.857371,53.6845187 103.367209,52.8878957 C104.247122,52.8819948 105.286483,53.0285341 105.554197,52.4000871 C105.057155,51.4225029 103.571931,51.4549579 102.640837,50.9278099 C102.551271,50.0171027 103.629017,50.2865776 103.367209,49.2126118 C101.040457,49.6758333 100.84853,47.9999747 99.4784631,47.4993808 C99.522754,48.2753505 99.4843685,48.9755919 98.9932311,49.2126118 C98.1202072,48.7120179 96.6664797,48.6038346 95.3466094,47.9930903 C93.6763483,49.8105708 97.112342,52.3489459 94.8554719,53.3757044 C95.0916903,54.6158791 96.0985713,55.0653318 96.072981,56.5621961 C94.4096097,59.1310593 91.6871925,57.7305765 88.2945055,58.2754272 C88.1035623,59.7211503 86.9815248,60.2158434 85.8653928,60.7233217 C85.214808,61.4432328 86.7649913,61.4432328 86.3496406,62.6765231 C85.3427596,64.8716619 82.2758572,65.3938925 80.2670165,65.8620314 C79.9038307,66.2534585 80.4776445,67.0953218 80.2670165,68.0650381 C76.7355512,69.8058067 73.4196352,71.7717935 73.7070343,77.3648734 C75.4914676,78.4250703 77.1499177,79.6131203 77.353656,82.2665632 C78.3359309,82.606849 79.6430062,81.3735587 81.4786201,81.7718702 C83.8191508,82.9972926 85.7571261,85.5927099 89.0218614,86.1847679 C90.8003892,86.5053841 93.1153296,85.6635208 94.6064583,87.1603851 C93.5611919,90.3980182 94.912558,94.835503 97.5267084,94.9899102 C101.5188,95.2397154 99.4656679,89.8974242 98.4961882,87.1603851 C99.4656679,86.4217878 101.588681,86.8446864 102.385918,85.9398801 C104.585702,82.2213229 101.86919,80.0055309 99.7136972,78.1044542 C102.072929,76.1394509 102.015843,73.1004819 100.683177,70.0241404 C101.410533,68.1751884 102.7806,69.1124497 104.336688,69.2845596 C105.777621,69.4517521 107.530558,69.0347544 108.461652,69.2845596 C111.171274,70.0359423 113.5246,72.9598435 115.513756,73.4545365 C115.169271,74.1665798 114.863171,74.9179624 115.022619,76.1453518 C115.717495,77.25669 116.839532,77.9107076 117.458621,79.0869558 C118.382826,78.8882918 119.319825,78.6817599 120.371982,78.5981637 C121.2391,77.1858791 121.488114,75.1490814 123.534356,74.9307477 C125.046153,77.9303773 128.685886,80.7303594 128.157347,84.230583 C128.973285,85.3684753 130.63764,85.6576199 131.319721,86.9223817 C133.021478,86.7610902 133.818715,87.500671 134.966343,87.899966 C134.093319,89.0870325 135.228151,88.6700348 135.451575,89.8580848 C136.069679,90.4875153 137.204512,89.3437221 137.637579,90.3527778 C137.663169,92.060108 138.040135,92.7298614 138.364935,94.5148869 C134.603157,94.3221238 132.84333,97.4692762 130.344336,97.9374151 C127.283339,98.5107869 124.267617,97.0650638 120.135763,97.6944942 C118.758807,100.789522 113.779519,100.263357 113.574797,104.547419 C115.800171,102.280485 119.568839,99.0231826 124.025493,100.629214 C123.247941,102.781079 120.55013,103.005314 118.439912,103.814722 C117.764721,105.87709 119.938915,107.969947 119.409392,109.93495 C117.745036,110.949907 114.958643,110.828938 113.574797,112.139924 C113.390743,113.616135 114.270657,115.080544 113.574797,116.294165 C107.511858,115.497542 108.01579,121.305021 104.578812,123.154957 C103.705788,123.149056 104.413459,120.745418 103.361303,121.684647 C102.653632,123.925026 104.547317,124.657722 105.06995,127.309198 C102.130999,129.988212 98.5985495,132.063365 95.8308571,134.901703 C94.8869677,139.686358 100.785538,143.913377 96.3160891,146.899238 C93.6379628,145.024716 93.6123725,140.470196 91.450974,138.081311 C88.6960768,139.282146 87.3643955,136.412336 83.4303747,137.349598 C81.9441672,140.887194 78.0938071,137.895432 74.6755298,138.569119 C72.2277165,139.057911 71.328118,141.0357 69.326167,141.999515 C69.3773477,143.175764 69.7090377,144.074669 69.8173045,145.185024 C67.3311057,148.83277 69.5427006,154.446503 71.5200455,157.183542 C73.8782927,158.500429 76.8113379,157.940826 79.298521,156.945539 C80.1016636,156.20104 79.9235155,154.465189 80.5101246,153.522027 C82.0268436,153.008648 85.1774067,151.799945 86.8279829,153.021433 C85.9736596,155.012007 85.8142122,157.709707 84.3929647,159.141661 C84.6222934,160.760477 84.1380457,161.647581 83.6656089,162.572057 C86.2925545,163.002824 90.7560982,161.820674 92.4204538,163.791579 C91.4440843,168.757195 91.3742031,173.201564 95.5828278,174.569592 C97.6418649,173.015686 101.632972,173.150423 103.354414,175.059368 C104.635898,174.087684 104.463656,171.917133 105.783526,170.896275 C106.701825,170.197017 108.01579,170.619916 109.189008,170.164562 C110.692932,169.580372 111.87304,167.614385 113.319878,168.692285 C112.121069,169.445635 110.056127,172.886849 112.102369,173.837879 C113.097439,173.060926 111.438989,171.923034 112.351382,170.665156 C114.888762,167.999911 116.39367,170.787108 118.427117,171.389985 C119.989111,171.853206 121.462523,171.128378 122.801094,172.11678 C123.796164,171.294587 125.364064,170.138008 127.175072,170.902176 C127.181962,171.481449 126.7548,171.628972 126.932948,172.372486 C127.6918,172.752112 129.31088,172.257419 129.604185,173.105183 C129.796112,174.044411 128.303999,174.556807 128.870923,175.070186 C129.094347,174.556807 129.591389,174.326671 130.33154,174.332572 C131.644521,174.981672 133.933871,175.63569 133.251791,177.51808 C134.966343,179.431942 137.618878,178.539921 140.297005,178.989374 C142.866864,179.426042 144.434764,181.263192 145.639478,183.1505 C146.181796,183.677648 145.397354,184.152671 145.639478,185.110586 C146.825491,185.637734 147.730995,186.426489 147.342219,188.533114 C148.273313,189.073047 149.637474,189.162544 150.262469,190.004407 C150.03314,191.251467 148.693585,191.372435 148.07548,192.213315 C149.65027,192.092346 149.644364,190.466645 151.231949,190.255196 C153.169924,189.991622 155.860845,191.674365 156.816546,192.940111 C156.797845,193.569541 155.873641,193.287281 155.84805,193.928513 C157.148236,193.928513 157.161031,192.638181 158.525192,192.703091 C160.234823,194.153731 162.26827,193.17123 164.110773,193.677724 C166.552681,194.353379 167.553657,198.276501 170.913864,197.595929 C171.456182,198.456479 171.908934,198.521389 172.138262,199.305226 C173.789823,205.317271 167.987708,206.440411 167.280037,210.570065 C166.706223,210.564164 166.559571,210.988046 165.81942,210.814953 C165.590091,218.663164 164.455259,225.599684 159.010424,228.201986 C156.568516,227.772203 156.090174,229.338895 154.636447,229.9103 C154.062633,229.917184 153.91598,229.492318 153.175829,229.666395 C152.455363,231.309799 150.377625,231.587142 149.529208,233.089907 C149.395351,234.938859 149.962275,236.094454 149.771332,237.997498 C147.609933,238.760682 147.699499,241.779982 144.913106,241.914719 C143.210365,244.34196 142.031242,249.224964 138.594264,249.73736 C137.508643,249.907503 136.642509,249.989132 135.946649,250.012735 C136.351173,250.796573 136.534242,252.094773 136.159246,254.163043 C135.629723,257.079076 130.949645,257.458701 127.404401,257.34265 C127.022514,258.672322 127.162277,260.10526 126.920153,261.491974 C125.013673,262.006336 124.056989,261.806689 122.54027,261.010066 C122.553065,261.820458 122.954636,262.243356 122.788299,263.213073 C123.668213,263.380265 124.949698,263.161931 124.975288,264.189673 C124.962493,265.069893 123.961517,264.953841 123.030423,264.92237 C122.737118,266.257943 122.124919,267.2788 122.055038,268.845492 C121.220399,269.545733 119.95171,269.822093 118.899554,270.317769 C119.090497,271.171434 118.529478,271.255031 118.65054,272.025099 C118.912349,273.316415 121.035362,272.738126 121.57079,273.747182 C121.53831,276.976947 117.911373,276.58552 118.166292,280.112298 C116.604298,280.258837 115.908438,281.267893 115.73718,282.803113 C116.826737,283.753159 117.311969,285.295264 117.438936,287.216011 C118.357235,289.059062 120.626901,289.540969 122.54027,290.401519 C121.576696,291.795117 118.701721,291.262068 117.190907,292.109832 L116.463551,292.109832 C115.271632,291.267969 114.161406,290.349394 113.059053,289.412133 C113.702748,288.647965 114.314948,288.249653 113.550191,287.216011 C112.573821,286.348577 113.198816,288.674519 111.84745,288.184743 C110.368132,287.638909 109.055151,286.926866 107.95772,285.988621 C108.2963,284.671735 107.504968,284.479955 107.231348,283.785614 C108.551219,281.743899 105.528607,279.186838 105.528607,276.187208 C106.013839,275.6994 107.499062,276.213763 107.715596,275.449595 C106.491197,275.441727 107.473472,274.730667 107.231348,273.740297 C105.566993,274.030426 104.890817,273.316415 104.802236,272.019198 C105.178217,271.018011 106.153602,270.618716 106.989224,270.060096 C106.969539,270.818363 107.722486,270.785908 108.448857,270.799677 C108.844523,267.811849 109.686051,265.48689 109.418337,262.711495 C108.041381,263.444192 109.379952,266.919828 106.989224,266.623799 C107.588629,262.070263 108.736256,259.173899 108.206733,254.632165 C109.386841,251.806612 111.253951,248.775511 111.605326,245.087442 C111.719498,243.848251 111.286431,242.698557 111.363202,241.414125 C111.502965,239.171779 112.663387,236.422938 113.064959,235.049009 C113.862196,232.395567 112.918306,229.570014 113.313972,226.974597 C113.620072,224.925997 114.633843,222.992465 113.79822,220.602596 C110.802183,217.661976 106.587653,215.952679 103.590632,213.012058 C101.926276,206.524007 98.0562314,202.258632 95.3279087,196.851431 C95.7609758,194.835286 97.9922556,194.635639 98.7324066,192.926342 C98.1772933,192.515245 97.0867517,194.230443 96.0601858,193.427919 L96.0601858,190.730219 C97.3229701,188.982566 99.2737405,187.929254 99.7077918,185.347605 C100.307196,184.884384 101.053252,184.583437 101.652657,184.122183 C102.512885,180.575736 102.347533,174.884307 98.2471746,174.820381 C97.6546601,175.204923 98.3495359,176.882749 97.520803,177.024371 C95.4735767,176.742111 94.2688628,175.334743 92.9047015,176.297575 C91.8082544,174.620733 90.3417317,173.317615 88.2817103,172.623275 C87.9254142,170.202918 86.2797593,169.084696 85.3614602,167.229843 C82.3782185,167.542591 81.6065717,165.622828 78.5524645,166.015238 C77.2640899,165.153705 76.2316186,162.682207 74.1784869,162.340938 C72.9353875,162.128505 71.4304794,162.919227 70.288757,162.828747 C67.5220489,162.617297 64.4679417,160.587384 61.78391,159.405235 C58.9079508,158.134572 56.9502907,157.800187 55.4650674,155.243126 C55.3253049,153.76003 56.0004958,153.34795 55.9493152,152.545426 C53.8390974,149.944108 51.6776989,147.381146 49.1462249,145.204693 L49.1462249,143.7334 C46.1373929,141.954275 43.9307192,139.352957 42.8342721,135.653086 C42.1964824,135.313784 41.2210972,135.313784 40.6413778,134.915472 C41.4701107,140.77901 46.6915219,142.20408 47.686592,147.895509 C49.1846104,147.722415 50.1097992,149.957877 48.6619772,150.587307 C47.2653358,148.64099 44.0330805,148.557394 44.2820941,144.952921 C43.2486385,143.547521 40.5901972,143.77864 40.1561458,141.767413 C40.4376394,141.562848 40.8067307,141.446797 41.3677494,141.524492 C37.3579419,137.10471 36.9435754,130.437664 30.1847761,129.038165 C30.5735522,127.201015 28.1316444,125.666778 27.7556634,123.160858 C26.6592163,123.038906 26.4357931,122.042635 25.8107985,121.439759 C25.8619792,119.589823 24.6818713,118.986947 24.3501813,117.527455 C25.2428901,116.159427 24.6759659,114.347848 24.1080575,113.114557 C26.3974076,110.406039 24.1592381,103.814722 24.5991949,101.604831 C22.6671251,101.669741 22.2980339,100.166976 20.9525732,99.6467122 C20.0470692,98.8441884 18.2803524,98.9199167 18.2803524,97.1998012 C18.784285,96.3195821 20.3915544,97.6551548 20.709465,96.9549134 C19.6956944,96.3776077 18.3187379,94.8227177 19.2498321,93.7694051 C17.324652,94.1618157 17.1071343,92.8321438 16.8207194,91.5663985 C15.7941536,91.6234406 15.2518355,91.1877567 14.3975122,91.0776064 C13.4162216,87.7386744 11.9496989,84.4302305 9.53338142,83.2421804 C9.25287205,81.1611259 7.58162679,80.4736698 6.6131313,79.0800714 C2.3277356,80.7628144 0.816922009,75.7460569 -2.1417136,74.9248468 C-2.68304747,74.7714231 -2.33265682,75.3939692 -3.11020909,75.4195398 C-3.55016589,75.4254407 -3.78047884,74.8864909 -4.07968883,74.9248468 C-4.81885561,75.0271292 -5.54621147,75.6634441 -6.5088015,75.6575432 C-9.49302744,75.6309891 -11.2715552,72.6579136 -14.5294008,72.9657444 C-14.4595196,73.8400627 -13.6819673,74.8609203 -14.287277,75.6575432 C-16.9211123,75.6172203 -17.9535836,76.3499167 -19.8787636,77.3648734 C-20.3384053,76.8583785 -20.6573001,76.196493 -20.8482434,75.4126554 C-20.1336827,73.9993873 -19.075621,72.9519756 -17.6917748,72.2212462 C-20.8797392,72.6825007 -21.8177231,75.4126554 -23.7684935,77.1219525 C-23.3413319,77.3530715 -23.2261754,77.8920214 -23.277356,78.5922628 C-28.5056569,82.6314362 -33.4347478,86.9676221 -41.0212958,88.6247945 C-41.9592797,89.7174465 -44.6816969,91.3736354 -45.8864108,90.5897978 C-42.6216755,88.3228646 -39.4917815,85.9339792 -34.9455614,84.9632794 C-33.7152571,83.4280591 -32.1148774,82.2665632 -30.3294599,81.2899625 C-31.1965783,79.4331426 -28.6966001,78.6306187 -29.602104,78.347375 C-31.7133061,78.8882918 -33.2369148,78.7535543 -34.4613136,77.3648734 C-35.0597336,77.9884029 -35.2447713,79.0230293 -36.4051943,79.0800714 C-38.5410024,78.6375031 -37.2536121,76.6459457 -37.6236876,75.1618667 C-39.3638299,75.0723696 -43.0370262,76.7039714 -43.6935166,73.9423451 C-43.0872226,73.4928925 -41.9395948,73.589274 -41.7545571,72.7218401 C-42.0990423,71.8475218 -43.6482414,72.1760059 -44.4267779,71.7393385 C-44.4198882,68.894116 -42.0163658,68.4574486 -40.7860616,66.844533 C-38.4268302,67.5693616 -37.827426,65.759749 -35.6788227,65.6250115 C-35.7427985,64.7959335 -35.4937849,63.639355 -35.9209465,63.177117 C-39.1472964,64.1153618 -46.5369957,64.3199268 -47.5891519,60.2355131 C-44.9622063,59.4192204 -41.2644039,56.2268277 -39.0902102,59.2579288 C-37.7378598,58.8999403 -35.9465369,58.9835365 -35.1945749,58.0325064 C-35.9524423,57.4158612 -37.2792024,57.3519347 -38.5990728,57.29981 C-40.3461048,54.9748512 -43.6295407,54.2037988 -45.4021631,51.9103115 C-42.3352607,50.8442137 -39.0134393,50.0230036 -37.6295931,47.2603939 C-34.0016719,46.7666844 -32.0312167,43.9145775 -28.1483765,44.3256743 C-26.2871723,44.5194209 -24.470259,45.9444908 -22.0726421,45.0583707 C-21.2567044,45.2186788 -21.7793376,46.721444 -20.612025,46.528681 C-18.3364542,45.63666 -17.2528023,46.7027578 -14.7656192,47.0420602 C-13.656377,47.1767976 -12.495954,46.8502806 -11.6032453,47.0420602 C-10.4113265,47.2928489 -9.71546644,48.2625652 -8.68299513,48.2625652 C-7.70072024,48.2566643 -7.01863957,47.1069702 -6.01175859,47.5239679 C-4.23913626,49.0267332 -2.22439005,48.4553283 0.556097512,49.4840537 C2.09250143,50.0554586 3.18894856,51.4687267 4.19681379,51.4421726 C5.74601288,51.3910314 6.25585095,49.6187912 7.84343553,49.4840537 C10.4447908,50.5108122 11.6308041,48.1671672 14.1622781,47.7688557 C15.0992778,48.2183084 15.9791913,48.7248032 17.5726814,48.5015521 C18.6445224,48.2832184 17.9742527,46.2965785 19.2685327,46.2965785 C20.2576973,47.5111826 20.7606457,49.1939256 22.1828774,49.9718624 C23.5470387,49.9521927 23.0116103,48.0255453 24.3698662,48.0117765 L24.3698662,48.0117765 Z M-45.8864108,154.748433 C-46.5242005,154.999222 -47.3844292,155.038561 -48.3155235,154.98742 C-47.9139522,153.869197 -48.5330413,155.186084 -49.2850032,154.98742 C-49.138351,153.580053 -49.7761407,153.682335 -50.7446362,153.027334 C-49.0300842,152.165801 -46.3519579,153.027334 -45.8864108,154.748433 L-45.8864108,154.748433 Z M-53.4227624,152.057618 C-52.6963908,150.207682 -50.2288926,151.621934 -50.9936497,153.278123 C-52.0773017,153.143385 -52.9001292,152.751958 -53.4227624,152.057618 L-53.4227624,152.057618 Z M-59.4994811,151.320004 L-59.4994811,150.587307 C-57.8922116,150.490926 -57.4138693,150.092614 -56.0939989,149.359918 C-56.0752983,150.278493 -55.8262847,150.054258 -56.0939989,150.830228 C-57.841031,150.291278 -58.4857104,151.904194 -59.4994811,151.320004 L-59.4994811,151.320004 Z M-42.4878184,158.667621 C-43.6738317,159.026593 -44.6433114,159.598982 -45.6442869,160.137931 C-46.4986102,158.743349 -46.4346344,156.8049 -45.6442869,155.480146 C-44.0626078,156.014178 -43.0872226,157.157971 -42.4878184,158.667621 L-42.4878184,158.667621 Z M301.684377,215.959563 C303.444204,215.208181 306.198117,215.446184 307.760111,214.488269 C308.200068,212.401314 309.456947,211.129668 310.667566,209.845236 C312.344717,210.763811 312.727587,212.985504 313.109474,215.219982 C313.314196,216.254609 312.019916,215.760899 311.649841,216.203468 C311.822084,217.269565 311.235474,217.584281 311.400827,218.650379 C307.792591,221.1622 310.572094,231.407164 306.300478,232.607999 C300.351711,234.265172 299.94325,224.809946 303.386133,222.074874 C302.8635,219.985951 301.709967,218.534327 301.684377,215.959563 L301.684377,215.959563 Z M390.883402,180.697688 C393.662905,185.572824 400.357729,186.484514 402.302594,192.207414 C403.125421,192.52803 404.240569,192.5477 404.731706,193.189916 C404.419701,195.2454 404.145097,197.333339 403.520103,199.073124 C397.794759,197.969653 394.262309,190.626954 391.36765,185.598394 C391.011353,184.975848 390.360769,184.038587 389.901127,183.640275 C388.485785,182.37453 385.355891,182.0726 387.000562,179.727971 C388.600941,179.740757 388.945427,181.018304 390.883402,180.697688 L390.883402,180.697688 Z M418.102653,200.04284 C418.357572,200.608344 418.944181,200.826678 418.835914,201.764923 C417.833954,201.957686 417.579035,201.386281 416.642035,201.521018 C417.668601,202.767094 420.678418,202.021612 421.021918,203.967929 C414.550518,204.116435 411.12732,201.200402 404.738596,201.283998 C404.419701,200.608344 404.145097,199.91597 404.253364,198.823319 C408.761199,200.139222 411.707039,200.653584 418.102653,200.04284 L418.102653,200.04284 Z M435.597579,180.21578 C434.571013,179.542093 434.37318,178.006873 433.646808,177.030272 C432.843666,176.637861 432.244262,178.308802 430.49723,177.768869 C431.140925,176.940775 431.504111,175.835337 432.198986,175.070186 C434.692075,174.967903 436.642845,174.313886 436.821978,171.885661 C438.415468,172.553448 438.224524,175.032814 438.275705,177.267292 C436.611349,177.466939 436.503083,179.251965 435.597579,180.21578 L435.597579,180.21578 Z M420.289641,196.857332 C417.57313,195.59257 414.729651,194.44976 411.534797,193.671823 C411.14602,190.446976 407.56928,188.976666 410.808425,185.35449 C411.840896,185.463657 411.981643,186.458944 412.510182,187.075589 C413.530842,186.54254 413.40289,184.865698 413.970799,183.883196 C418.962881,183.613721 420.110509,178.153412 423.929373,177.51808 C424.389015,179.258849 426.187228,179.650276 426.6075,181.429401 C425.906718,181.879837 424.713815,181.802142 424.165592,182.412886 C423.840792,185.194182 425.542548,185.931796 425.874238,188.039404 C421.998288,188.944211 422.935288,194.712351 420.289641,196.857332 L420.289641,196.857332 Z M432.448,174.583361 C432.308237,173.721828 433.308229,173.985402 433.175356,173.112067 C432.499181,172.476736 431.637968,172.045969 430.745259,171.647658 C430.891911,170.845134 430.585811,170.503865 430.503135,169.925575 C426.620295,168.236931 426.900804,175.81075 422.960878,174.827265 C423.904767,172.598688 426.684271,172.213162 426.372266,168.692285 C427.034661,168.307742 427.837804,168.056954 428.794488,167.967456 C428.781693,167.25443 428.246265,167.06265 427.831898,166.740067 C428.061227,166.233572 428.323036,165.770351 428.552365,165.269757 C428.444098,163.99811 427.315171,163.754206 426.856513,162.822846 C426.715766,159.347209 429.509049,156.117444 432.448,158.659753 C430.917501,160.921769 429.954911,165.449735 432.448,167.229843 C433.564132,166.836449 434.09956,167.216074 435.362345,167.229843 C434.653689,168.608689 436.898749,168.44248 437.064101,169.674787 C436.03163,171.827636 434.946994,173.915574 432.448,174.583361 L432.448,174.583361 Z M479.827508,195.881715 C480.91116,196.003667 481.045017,195.546346 481.778278,195.881715 C481.842254,197.166146 481.185764,197.743452 481.051907,198.823319 C479.062751,200.281827 476.034234,198.970841 473.751774,198.57253 C476.199587,198.110292 479.95546,198.952155 479.827508,195.881715 L479.827508,195.881715 Z M473.763584,200.04284 C472.775404,204.108568 477.220247,204.462622 478.6287,206.902649 C472.520485,207.673701 472.457494,202.342228 466.961478,202.490735 C466.259713,203.569618 465.666214,204.770453 464.538271,205.425454 C463.282377,204.231503 461.095388,203.987599 459.91528,202.728738 C458.659386,203.13295 457.00192,203.04247 456.268658,202.239946 C456.102321,200.859133 457.35231,200.898472 457.486167,199.793035 C456.109211,195.952525 449.879935,196.992069 447.27169,194.410421 C447.832708,194.000308 448.030541,193.21647 448.967541,193.184015 C447.794323,192.407062 445.824852,192.438533 444.594548,191.712721 C444.594548,189.28548 448.380932,189.58741 450.435048,189.991622 C451.033468,191.35965 451.199805,193.158444 451.888775,194.410421 C454.43206,194.436975 455.420241,191.084274 457.971399,191.224913 C458.742062,191.270153 460.170199,192.619494 461.369008,193.184015 C462.708563,193.826231 463.919182,194.366164 465.016614,194.899213 C468.861068,196.812091 472.712413,197.353008 473.763584,200.04284 L473.763584,200.04284 Z M469.874839,111.413128 C469.957515,112.39563 469.31382,112.653303 469.389607,113.623019 C467.669149,112.955233 466.463451,114.041 465.506767,114.849425 C464.569767,114.643877 463.957568,114.123613 463.077654,113.873808 C462.745964,113.963305 462.695768,114.304574 462.338487,114.361617 C462.740059,116.404315 464.225282,117.161599 464.289258,119.011534 C464.404414,122.300308 460.756808,125.569413 460.399528,128.806062 C457.773566,128.581828 454.43895,129.616454 453.11219,131.497861 C451.059058,130.508475 449.24805,134.888918 448.004951,131.741766 C448.572859,130.284241 450.765754,130.451433 452.136805,129.783647 C450.543315,129.409922 448.323846,130.51536 446.787442,131.003168 C448.120107,132.063365 447.189013,135.769137 445.327809,135.903875 C444.154591,135.364925 444.007938,133.80315 443.376054,132.718366 C444.919348,129.365666 448.439002,127.015136 452.857271,127.329851 C454.565917,126.526344 455.242092,124.670508 455.764726,122.673049 C456.861173,123.943712 458.812927,123.186429 459.673156,122.191142 C459.60918,119.333134 461.381803,117.386817 460.393622,114.361617 C461.350307,112.299248 463.658358,111.599007 463.077654,107.9906 C466.004794,108.46464 466.839432,111.047272 469.874839,111.413128 L469.874839,111.413128 Z M464.77449,88.6375798 C465.163266,88.5795542 465.187872,88.8745997 465.500861,88.8942694 C466.406365,90.4688291 465.966408,92.3315499 466.221327,94.0260948 C466.648489,96.7119926 468.490993,98.8441884 468.166192,101.130791 C467.445726,101.733668 467.183917,100.308598 466.463451,100.147306 C464.142605,101.766123 466.533333,104.445136 465.979204,106.763211 C465.086495,106.236063 463.747924,105.575161 463.071749,106.763211 C462.281401,105.311586 463.345368,103.621959 463.79812,102.595201 C464.219376,98.040681 462.81683,91.6637635 464.77449,88.6375798 L464.77449,88.6375798 Z M416.871364,227.462405 C419.2178,223.372091 426.141953,223.90514 430.49034,221.83687 C431.17931,220.165929 431.192105,217.809499 432.193081,216.441471 C433.888932,215.830727 434.38007,216.679474 435.591673,215.959563 C437.083786,215.053773 436.631034,212.889123 438.020786,212.530151 C439.760928,212.080698 440.666432,213.94932 442.642793,214.245349 C443.012868,212.252808 443.363259,210.230762 444.587658,209.105655 C446.506932,209.323989 447.641765,207.782868 449.210649,207.880233 C450.19194,207.937275 450.440953,208.881421 451.403543,209.105655 C452.7805,209.420371 454.10726,208.033657 455.280478,209.344642 C455.202723,210.632024 447.35535,218.184207 461.841444,218.16257 C463.881781,216.210352 462.134749,210.449096 463.064859,207.384556 C465.341414,206.081439 466.201643,209.748855 466.457546,212.042342 C469.071696,213.281533 469.383701,217.602967 470.843334,219.883669 C472.137614,221.907681 475.517506,222.317795 475.944668,225.755075 C476.41612,226.255669 477.506662,226.132733 478.131657,226.487771 C478.864918,230.341066 482.339297,231.091465 482.740868,234.317296 C483.244801,238.31123 482.524335,243.192266 481.039112,246.314831 C479.935775,248.620121 477.818667,249.982247 477.149382,252.435059 C476.74781,253.913237 477.481072,255.1839 476.42301,255.859554 C473.075598,253.874882 471.009671,259.706948 468.886659,255.608766 C467.66226,255.775958 467.669149,257.181358 466.450656,257.335766 C461.955617,256.398504 459.902485,252.994662 457.467467,249.982247 C457.447782,248.767643 457.696795,247.297333 456.727316,247.046544 C454.840521,247.252093 455.139731,249.686218 453.335613,249.982247 C451.933066,241.123997 437.274729,243.013272 433.639919,248.511937 C430.574001,248.118543 426.174433,248.267049 424.656729,250.226152 C421.914627,250.12977 419.300477,249.904552 418.822135,247.540254 C418.937291,246.590207 420.16169,246.764284 420.766999,246.314831 C419.734528,241.805552 417.974701,238.022085 416.380227,234.07831 C417.388092,232.671926 417.228644,229.511988 416.871364,227.462405 L416.871364,227.462405 Z M474.484051,260.033465 C475.134636,262.025023 473.80197,264.042151 473.757679,266.154677 C472.84627,266.252042 472.170094,266.257943 470.850224,266.39268 C470.001806,264.946957 469.294135,263.39305 468.166192,262.243356 C468.057926,261.389691 468.267569,260.862543 468.414222,260.27737 C469.460472,260.888114 472.87186,260.894015 474.484051,260.033465 L474.484051,260.033465 Z" fill="#E6ECF0" mask="url(#mask-2)"></path>
                    </g>
                </g>
                <ellipse id="Oval" fill="#56A3FD" cx="96.7950741" cy="125.97547" rx="6.12919824" ry="6.12447628"></ellipse>
                <ellipse id="Oval" fill="#56A3FD" cx="236.571633" cy="102.382754" rx="6.12919824" ry="6.12447628"></ellipse>
                <ellipse id="Oval" fill="#56A3FD" cx="259.238102" cy="82.5648736" rx="6.12919824" ry="6.12447628"></ellipse>
                <ellipse id="Oval" fill="#56A3FD" cx="298.904422" cy="145.79335" rx="6.12919824" ry="6.12447628"></ellipse>
            </g>
        </g>
    </g>
</svg>