<?xml version="1.0" encoding="UTF-8" standalone="no"?>
<!-- Created with Inkscape (http://www.inkscape.org/) -->

<svg
   xmlns:dc="http://purl.org/dc/elements/1.1/"
   xmlns:cc="http://creativecommons.org/ns#"
   xmlns:rdf="http://www.w3.org/1999/02/22-rdf-syntax-ns#"
   xmlns:svg="http://www.w3.org/2000/svg"
   xmlns="http://www.w3.org/2000/svg"
   xmlns:xlink="http://www.w3.org/1999/xlink"
   xmlns:sodipodi="http://sodipodi.sourceforge.net/DTD/sodipodi-0.dtd"
   xmlns:inkscape="http://www.inkscape.org/namespaces/inkscape"
   width="116.28173mm"
   height="125.62521mm"
   viewBox="0 0 116.28173 125.62521"
   version="1.1"
   id="svg1846"
   inkscape:version="0.92.3 (2405546, 2018-03-11)"
   sodipodi:docname="favicon.svg">
  <defs
     id="defs1840">
    <linearGradient
       id="bd728978-41b2-43c0-bd97-469b38b81c56"
       x1="-861.71002"
       y1="737.12"
       x2="-861.71002"
       y2="290.85001"
       gradientTransform="matrix(0.26458333,0,0,0.26458333,136.73855,-60.501074)"
       xlink:href="#a5379cfd-588e-41af-a564-cd72c8f0ee48" />
    <linearGradient
       id="a5379cfd-588e-41af-a564-cd72c8f0ee48"
       x1="729.01001"
       y1="758.40002"
       x2="729.01001"
       y2="122.4"
       gradientUnits="userSpaceOnUse">
      <stop
         offset="0"
         stop-color="gray"
         stop-opacity="0.25"
         id="stop1278" />
      <stop
         offset="0.54"
         stop-color="gray"
         stop-opacity="0.12"
         id="stop1280" />
      <stop
         offset="1"
         stop-color="gray"
         stop-opacity="0.1"
         id="stop1282" />
    </linearGradient>
  </defs>
  <sodipodi:namedview
     id="base"
     pagecolor="#ffffff"
     bordercolor="#666666"
     borderopacity="1.0"
     inkscape:pageopacity="0.0"
     inkscape:pageshadow="2"
     inkscape:zoom="0.35"
     inkscape:cx="489.56716"
     inkscape:cy="-25.455183"
     inkscape:document-units="mm"
     inkscape:current-layer="layer1"
     showgrid="false"
     inkscape:window-width="1366"
     inkscape:window-height="705"
     inkscape:window-x="-8"
     inkscape:window-y="-8"
     inkscape:window-maximized="1" />
  <metadata
     id="metadata1843">
    <rdf:RDF>
      <cc:Work
         rdf:about="">
        <dc:format>image/svg+xml</dc:format>
        <dc:type
           rdf:resource="http://purl.org/dc/dcmitype/StillImage" />
        <dc:title></dc:title>
      </cc:Work>
    </rdf:RDF>
  </metadata>
  <g
     inkscape:label="Layer 1"
     inkscape:groupmode="layer"
     id="layer1"
     transform="translate(146.54024,-16.473102)">
    <path
       inkscape:connector-curvature="0"
       style="fill:#35323e;stroke-width:0.26458332"
       d="m -118.85424,110.71874 c 0,16.51529 9.58586,29.89792 21.410086,29.89792 11.824229,0 21.410083,-13.38792 21.410083,-29.89792 0,-16.510003 -9.585854,-29.89792 -21.410083,-29.89792 -11.824226,0 -21.410086,13.385271 -21.410086,29.89792 z m 1.47638,-0.39952 c 0,-14.456837 8.42962,-26.177879 18.825101,-26.177879 10.39548,0 18.84098,11.726334 18.84098,26.177879 0,14.45154 -8.429625,26.17788 -18.82775,26.17788 -10.398121,0 -18.838331,-11.72105 -18.838331,-26.17788 z"
       id="path1484" />
    <path
       inkscape:connector-curvature="0"
       style="fill:#464353;stroke-width:0.26458332"
       d="m -100.02913,45.379883 1.476371,25.103667 h 29.014209 a 10.054167,10.054167 0 0 1 6.820958,2.579687 9.0910833,9.0910833 0 0 1 2.926292,5.910792 v 37.652861 h -3.704167 l 0.02646,-2.58499 h -36.573353 v -3.70416 h 36.623622 l 0.301625,-30.210128 a 4.905375,4.905375 0 0 0 -0.116416,-1.129771 c -0.227542,-0.994833 -0.865188,-2.809875 -2.57175,-3.828521 a 4.79425,4.79425 0 0 0 -2.460625,-0.640291 h -32.877126 l -1.85208,-26.209625 h -11.05959 v -2.939521 z"
       id="path1486" />
    <path
       inkscape:connector-curvature="0"
       style="opacity:0.1;stroke-width:0.26458332"
       d="m -100.02913,45.379883 1.476371,25.103667 h 29.014209 a 10.054167,10.054167 0 0 1 6.820958,2.579687 9.0910833,9.0910833 0 0 1 2.926292,5.910792 v 37.652861 h -3.704167 l 0.02646,-2.58499 h -36.573353 v -3.70416 h 36.623622 l 0.301625,-30.210128 a 4.905375,4.905375 0 0 0 -0.116416,-1.129771 c -0.227542,-0.994833 -0.865188,-2.809875 -2.57175,-3.828521 a 4.79425,4.79425 0 0 0 -2.460625,-0.640291 h -32.877126 l -1.85208,-26.209625 h -11.05959 v -2.939521 z"
       id="path1488" />
    <polygon
       transform="matrix(0.26458333,0,0,0.26458333,-180.65032,-38.294596)"
       style="fill:#35323e"
       points="301.23,367.17 195.89,363.69 201.47,510.18 454,512.97 447.72,453.68 310.29,476.7 "
       id="polygon1490" />
    <rect
       style="fill:#464353;stroke-width:0.26458332"
       x="-126.23876"
       y="110.34832"
       width="36.914669"
       height="3.6909375"
       id="rect1492" />
    <path
       inkscape:connector-curvature="0"
       style="fill:#464353;stroke-width:0.26458332"
       d="M -101.14303,107.55167 V 96.703758 h 2.952751 v 10.847912 c 1.092729,0.81757 1.852083,2.50561 1.852083,4.46088 0,2.75167 -1.489604,4.98211 -3.323167,4.98211 -1.833557,0 -3.323167,-2.23044 -3.323167,-4.98211 0.003,-1.95527 0.75671,-3.64331 1.8415,-4.46088 z"
       id="path1494" />
    <path
       inkscape:connector-curvature="0"
       style="fill:#464353;stroke-width:0.26458332"
       d="m -86.630634,116.78828 a 3.4713333,3.4713333 0 0 0 -4.537604,-0.16139 v 0 c 0,0 -4.429125,2.95275 -0.370416,15.50458 0,0 2.955395,1.85208 1.476375,-4.06135 -1.479021,-5.91344 -0.738188,-9.59909 0.738187,-9.59909 1.476375,0 3.323167,4.06136 3.323167,4.06136 l 2.584979,-1.10596 c 0,0 -1.166813,-2.72256 -3.214688,-4.63815 z"
       id="path1496" />
    <path
       inkscape:connector-curvature="0"
       style="fill:#464353;stroke-width:0.26458332"
       d="m -58.944634,116.78828 a 3.4713333,3.4713333 0 0 0 -4.537604,-0.16139 v 0 c 0,0 -4.429125,2.95275 -0.370416,15.50458 0,0 2.955395,1.85208 1.47902,-4.06135 -1.476375,-5.91344 -0.740833,-9.59909 0.738188,-9.59909 1.479021,0 3.320521,4.06136 3.320521,4.06136 l 2.584979,-1.10596 c 0,0 -1.166813,-2.72256 -3.214688,-4.63815 z"
       id="path1498" />
    <ellipse
       style="fill:#35323e;stroke-width:0.26458332"
       cx="-59.238319"
       cy="131.02286"
       rx="8.3052702"
       ry="11.075459"
       id="ellipse1500" />
    <ellipse
       style="fill:#35323e;stroke-width:0.26458332"
       cx="-86.924324"
       cy="131.02286"
       rx="8.3052702"
       ry="11.075459"
       id="ellipse1502" />
    <path
       inkscape:connector-curvature="0"
       style="fill:url(#bd728978-41b2-43c0-bd97-469b38b81c56);stroke-width:0.26458332"
       d="m -37.378446,130.26351 c -0.8546,-0.87048 -2.15635,-1.51606 -2.94217,-1.51606 -1.65364,0 -8.172976,-7.73642 -8.606893,-8.83179 -0.15875,-0.39952 -0.423333,-0.26459 -0.693208,0.0873 -0.529167,-1.25148 -1.222375,-3.0136 -1.407583,-4.27303 0.6985,-0.17727 1.145646,-0.30691 1.145646,-0.30691 0,0 0.08467,-2.49238 -0.529167,-2.75167 h -0.01588 c -0.592667,-0.34925 -0.592667,-5.4901 -0.592667,-5.4901 0,0 -1.389062,-4.5429 -1.214437,-6.18332 0.174625,-1.640411 -3.468688,-14.126099 -3.468688,-14.126099 0,0 -0.955146,-7.506229 -2.693458,-8.265583 -1.468438,-0.642938 -13.837708,-4.172479 -17.658292,-5.257271 -0.08202,-0.185208 -0.674687,-1.349375 -2.595562,-1.349375 -2.087563,0 -8.344959,0.08731 -10.429875,-2.320396 a 4.8233542,4.8233542 0 0 1 -0.642938,-1.042458 c 1.031875,-1.897063 1.098021,-5.027083 0.727604,-5.749396 -0.529166,-1.031875 -0.867833,-3.095625 -0.867833,-3.095625 0,0 -0.264583,-4.98475 -0.613833,-6.275917 -0.34925,-1.291166 -1.820334,-11.863917 -1.820334,-11.863917 0,0 -2.955395,-2.817812 -5.042958,-3.426354 a 8.73125,8.73125 0 0 1 -2.526771,-1.322916 c 0.03175,-0.17198 0.0635,-0.328084 0.08731,-0.460375 a 7.8131458,7.8131458 0 0 0 2.645833,-4.429125 1.2461875,1.2461875 0 0 0 0.08467,-0.293688 2.9818542,2.9818542 0 0 0 0.02117,-0.407458 c 0.02646,-0.248709 0.04233,-0.500063 0.04498,-0.754063 v -0.07673 c 0,-0.0291 0,-0.05821 0,-0.08731 a 1.0080625,1.0080625 0 0 1 0.14552,-0.343959 c 0.304271,-0.436562 0.931334,-0.529166 1.431396,-0.746125 a 2.1722292,2.1722292 0 0 0 0.219604,-0.116416 l 0.0635,-0.04233 c 0.04762,-0.0291 0.0926,-0.05821 0.134938,-0.08996 l 0.07408,-0.06085 0.108479,-0.0926 0.07144,-0.07144 c 0.03175,-0.03175 0.0635,-0.0635 0.0926,-0.0979 l 0.06879,-0.08202 c 0.02646,-0.03439 0.05292,-0.06615 0.07673,-0.100541 l 0.0635,-0.0926 a 1.0583333,1.0583333 0 0 0 0.0635,-0.100542 c 0.02117,-0.0344 0.04233,-0.06879 0.06085,-0.105833 0.01852,-0.03704 0.0344,-0.06615 0.05027,-0.0979 0.01588,-0.03175 0.03969,-0.07937 0.05556,-0.119063 a 0.9128125,0.9128125 0 0 0 0.03704,-0.08996 c 0.01852,-0.04498 0.03704,-0.08996 0.05292,-0.134938 l 0.02381,-0.07144 c 0.01588,-0.05292 0.0344,-0.105833 0.05027,-0.161396 0,0 0,0 0,-0.01587 a 4.1354375,4.1354375 0 0 0 0.121708,-1.373188 v 0 c 0,-0.116416 -0.02117,-0.230187 -0.03969,-0.343958 -0.129646,-0.79375 -0.415396,-1.611313 -0.320146,-2.394479 v 0 c 0,-0.06879 0.02117,-0.137584 0.0344,-0.206375 0,0 0,-0.01587 0,-0.02381 a 2.1007917,2.1007917 0 0 1 0.05822,-0.211662 c 0.108479,-0.314855 0.293688,-0.60325 0.394229,-0.918105 v 0 a 1.8176875,1.8176875 0 0 0 0.05027,-0.198437 v -0.05292 c 0,-0.05556 0.01588,-0.111125 0.01852,-0.166688 0,-0.01323 0,-0.02646 0,-0.03969 a 2.0081875,2.0081875 0 0 0 -0.0291,-0.433916 v 0 a 2.8389792,2.8389792 0 0 0 -0.944563,-1.5875 c -0.71702,-0.629709 -1.656291,-0.976313 -2.579687,-1.280584 -2.38125,-0.79375 -4.860398,-1.545166 -7.381878,-1.706562 -1.10595,-0.07144 -2.55322,-0.41275 -3.43958,0.264583 -1.03452,0.79375 -1.6801,1.389063 -2.96598,1.928813 -0.92869,0.388937 -1.89706,0.986895 -2.11666,1.926166 a 7.4083333,7.4083333 0 0 0 -0.045,1.259417 c -0.0423,0.846667 -0.4498,1.635125 -0.71173,2.44475 a 3.7041667,3.7041667 0 0 0 -0.1958,1.476375 c 0,0 0,0.01588 0,0.02381 0,0.05821 0.0159,0.116417 0.0265,0.171979 0,0 0,0.02117 0,0.0291 a 1.9737917,1.9737917 0 0 0 0.11378,0.367771 c 0,0.01587 0.0132,0.0291 0.0185,0.04498 0.005,0.01587 0.0423,0.08731 0.0661,0.129646 l 0.0238,0.04498 c 0.0344,0.05556 0.0688,0.108479 0.10847,0.161396 0.1614,0.214312 0.37836,0.394229 0.52917,0.619125 a 2.5347083,2.5347083 0 0 1 0.30163,1.140354 c 0.0423,0.402167 0.082,0.806979 0.12435,1.209146 0,0.03175 0,0.06085 0,0.08996 -0.0132,0.177271 -0.0212,0.357188 -0.0212,0.529167 a 8.0195208,8.0195208 0 0 0 0.10054,1.243542 c -0.88106,0.664104 -1.78858,1.4605 -1.97643,2.042583 a 0.98689583,0.98689583 0 0 0 -0.20903,0.582083 v 0 c -0.82814,0.648229 -4.3471,0.264584 -4.3471,0.264584 0,0 -2.86808,1.547812 -3.91054,0.944562 -1.04246,-0.60325 -7.3025,4.212167 -7.3025,4.212167 0,0 -1.651,0.08731 -1.73831,0.775229 0,0 -2.08492,1.547812 -3.65125,1.547812 -1.56634,0 -2.52148,1.976438 -2.52148,1.976438 0,0 -2.60615,1.203854 -3.47663,1.375834 -0.87048,0.171979 -2.34685,1.031875 -1.91029,1.375833 0.43656,0.343958 -0.0873,1.116542 -0.87048,1.719792 -0.78317,0.60325 -2.00025,3.704166 -0.95514,4.124854 1.0451,0.420687 3.91054,1.291166 4.6937,1.719791 a 1.6959792,1.6959792 0 0 0 0.97367,0.182563 2.4897292,2.4897292 0 0 0 1.11125,-0.182563 l 0.12171,-0.150812 c 1.02129,0.775229 2.35215,1.571625 3.63273,1.698625 2.01612,0.201083 6.35,1.026583 8.18621,1.383771 0,0.113771 0,0.227541 0,0.341312 -0.0159,3.212042 0.13493,6.5405 0.75406,7.559146 1.3044,2.151063 1.47637,18.999729 1.47637,18.999729 0,0 4.08517,0.60325 5.47688,1.891771 1.32292,1.217083 7.98512,3.439583 9.3001,0.552979 l 0.41804,0.179917 c 3.38667,1.468437 7.88194,3.558646 8.39788,4.497917 0.83344,1.547812 6.831539,4.1275 6.831539,4.1275 0,0 3.913188,0.08467 2.780771,3.704166 -1.132416,3.6195 7.508875,12.28196 7.508875,12.28196 a 2.38125,2.38125 0 0 0 0.497417,1.51606 2.4738542,2.4738542 0 0 0 0.370417,0.37571 c 0.346604,0.26458 1.426104,0.74877 2.677583,0.96308 0.320146,0.71967 0.574146,1.34409 0.529167,1.44463 -0.04498,0.10054 0.375708,0.4736 0.928687,0.96044 v 0 a 19.647958,19.647958 0 0 0 1.494896,2.72785 v 0 a 2.25425,2.25425 0 0 0 0.775229,0.78052 c 0.846667,0.34396 9.667875,5.588 11.321521,5.75998 1.537229,0.1614 4.659312,0.91546 7.469187,-1.27265 l -0.452437,3.66713 -0.150813,1.21708 c 0,0 4.434417,1.80446 6.260042,1.80446 1.825625,0 7.995712,2.92365 7.995712,2.92365 0,0 4.08516,0.85989 6.78127,-0.94457 1.41023,-0.94456 1.01071,-2.17223 0.0688,-3.11679 z M -65.424279,90.396091 c -0.436563,0.944563 -0.153459,2.664354 0.05292,2.664354 0.206375,0 1.164167,1.375834 0.642938,2.923646 -0.521229,1.547813 3.389312,15.644809 5.127625,17.536579 0,0 0,0.0476 -0.03175,0.12965 -0.127,0.57415 -0.492125,2.91042 1.944687,3.05065 h 0.277813 c 0.185208,1.47108 0.463021,3.78619 0.632354,5.70706 -0.391583,-1.14035 -1.902354,-2.29658 -3.410479,-3.20675 a 30.104292,30.104292 0 0 0 -3.497792,-1.78329 c 0,0 -4.868333,-1.15888 -5.910792,-2.11667 -1.042458,-0.95779 -4.151312,-2.67494 -4.151312,-2.67494 v 0 c -0.489479,-0.44185 -1.039813,-0.93927 -1.558396,-1.41552 0.0291,-0.20108 0.04763,-0.41275 0.05821,-0.63764 a 10.19175,10.19175 0 0 0 -0.460375,-1.32292 c -0.203729,-0.46302 -0.465666,-0.91281 -0.756708,-1.09538 -0.693208,-0.42862 -3.042708,-9.284225 -3.042708,-10.318745 0,-1.034521 -1.476375,-5.931959 -1.997604,-6.791855 -0.52123,-0.859895 -1.129771,-3.01625 -1.129771,-3.01625 0,0 7.908396,1.211792 15.298208,0.529167 -0.01323,0.03175 2.333625,0.891646 1.912938,1.838854 z m -61.208711,-39.71925 v 0.100542 l -0.46037,-0.113771 c 0.28575,0.01323 0.46037,0.01323 0.46037,0.01323 z m 25.09309,-13.120688 c 0,0.156105 0,0.3175 0,0.478896 l -0.09,-0.0926 c -0.0741,-0.08202 -0.14288,-0.166687 -0.21432,-0.251354 0.10319,-0.03175 0.20373,-0.08731 0.30428,-0.134938 z m 8.50635,18.094855 c -0.08731,-0.505354 -0.134938,-0.79375 -0.134938,-0.79375 l 0.03175,-0.484188 z m -40.21667,-6.103938 a 2.5294167,2.5294167 0 0 1 0.56621,-0.121708 1.4022917,1.4022917 0 0 1 0.48419,0.132292 c 0.20373,0.09525 0.4154,0.185208 0.62971,0.264583 l -1.51606,-0.264583 a 0.841375,0.841375 0 0 0 -0.1614,-0.0079 z"
       id="path1504" />
    <path
       inkscape:connector-curvature="0"
       style="fill:#a1616a;stroke-width:0.26458332"
       d="m -81.783467,111.63419 c 0,0 1.74625,3.61421 1.661583,3.87086 -0.08467,0.25664 3.751792,3.32582 3.751792,3.32582 l 4.180417,-2.98451 -0.425979,-2.04787 c 0,0 -4.691063,-4.23334 -5.027084,-4.71752 -0.336021,-0.48419 -4.140729,2.55322 -4.140729,2.55322 z"
       id="path1506" />
    <path
       inkscape:connector-curvature="0"
       style="fill:#67647e;stroke-width:0.26458332"
       d="m -57.941863,123.86589 c -2.910416,2.81516 -6.312958,1.96056 -7.9375,1.79123 -1.624541,-0.16934 -10.279062,-5.37634 -11.1125,-5.71765 a 2.2013333,2.2013333 0 0 1 -0.759354,-0.77258 v 0 a 19.952229,19.952229 0 0 1 -1.465792,-2.70934 c 0.05821,0.0159 2.897188,0.8255 3.614209,0 0,0 1.193271,-1.46579 1.449916,-1.46579 0.256646,0 0.01852,-2.56911 0.01852,-2.56911 0,0 3.053292,1.71715 4.077229,2.64584 1.023938,0.92868 5.799667,2.09021 5.799667,2.09021 a 29.453417,29.453417 0 0 1 3.439583,1.77006 c 2.272771,1.38906 4.527021,3.3364 2.876022,4.93713 z"
       id="path1508" />
    <path
       inkscape:connector-curvature="0"
       style="opacity:0.1;stroke-width:0.26458332"
       d="m -57.941863,123.86589 c -2.910416,2.81516 -6.312958,1.96056 -7.9375,1.79123 -1.624541,-0.16934 -10.279062,-5.37634 -11.1125,-5.71765 a 2.2013333,2.2013333 0 0 1 -0.759354,-0.77258 c 1.010708,-0.60325 7.604125,3.59039 9.450917,4.35768 1.846791,0.7673 6.514041,0.34132 9.159875,-0.76729 1.322916,-0.55298 -0.01852,-2.25425 -1.685396,-3.82058 2.280708,1.38112 4.534958,3.32846 2.883958,4.92919 z"
       id="path1510" />
    <path
       inkscape:connector-curvature="0"
       style="fill:#a1616a;stroke-width:0.26458332"
       d="m -58.280529,114.99176 c 0,0 1.217083,9.12813 0.90752,10.31875 -0.309562,1.19063 7.625292,-4.09575 7.625292,-4.09575 0,0 -2.775479,-5.72029 -1.963208,-7.03527 0.812271,-1.31498 -6.569604,0.81227 -6.569604,0.81227 z"
       id="path1512" />
    <path
       inkscape:connector-curvature="0"
       style="fill:#4c4981;stroke-width:0.26458332"
       d="m -50.689634,115.16374 c 0,0 -4.947708,1.44992 -7.672916,1.27793 -2.38125,-0.14816 -2.034646,-2.45533 -1.907646,-3.02683 0.01852,-0.082 0.03175,-0.12965 0.03175,-0.12965 -1.706563,-1.87589 -5.55625,-15.874995 -5.027083,-17.404286 0.529166,-1.529292 -0.42598,-2.910417 -0.629709,-2.910417 -0.203729,0 -0.478896,-1.706562 -0.05292,-2.645833 0.425979,-0.939271 -1.875896,-1.791229 -1.875896,-1.791229 -7.252229,0.682625 -15.015104,-0.529167 -15.015104,-0.529167 0,0 0.595312,2.143125 1.108604,2.995083 0.513291,0.851959 1.963208,5.717646 1.963208,6.741584 0,1.023937 2.301875,9.810745 2.9845,10.236725 0.28575,0.17992 0.542396,0.62707 0.743479,1.08479 a 10.355792,10.355792 0 0 1 0.452438,1.3044 c -0.264584,5.715 -6.741584,3.49779 -7.672917,2.7305 a 2.3389167,2.3389167 0 0 1 -0.851958,-1.87854 c 0,0 -8.466667,-8.59631 -7.358063,-12.176125 1.108604,-3.579813 -2.7305,-3.667125 -2.7305,-3.667125 0,0 -5.884333,-2.566459 -6.704543,-4.101042 -0.50535,-0.944563 -4.92125,-3.018896 -8.24441,-4.47675 -2.08228,-0.912813 -3.73592,-1.5875 -3.73592,-1.5875 l 1.38377,-4.953 1.09802,-3.913188 2.05317,-0.772583 6.55637,-2.457979 11.787189,-1.621896 1.0795,0.140229 11.448521,1.481667 c 0,0 16.721667,4.775729 18.428229,5.529792 1.706563,0.754062 2.645833,8.202083 2.645833,8.202083 0,0 3.582459,12.371917 3.413125,13.999107 -0.169333,1.62718 1.193271,6.13568 1.193271,6.13568 0,0 0,5.10382 0.579438,5.45042 h 0.01852 c 0.592666,0.25929 0.510645,2.73315 0.510645,2.73315 z"
       id="path1514" />
    <path
       inkscape:connector-curvature="0"
       style="opacity:0.1;stroke-width:0.26458332"
       d="m -67.837279,88.544008 c -7.25223,0.682625 -15.015105,-0.529167 -15.015105,-0.529167 -0.513291,-1.611312 -7.672916,-6.048375 -7.672916,-6.048375 5.871104,-1.444625 22.688021,6.577542 22.688021,6.577542 z"
       id="path1516" />
    <path
       inkscape:connector-curvature="0"
       style="fill:#444053;stroke-width:0.26458332"
       d="m -75.600154,110.38536 c -0.264584,5.715 -6.741584,3.49779 -7.672917,2.7305 a 2.3944792,2.3944792 0 0 1 -0.362479,-0.37306 c 2.267479,0.83608 6.283854,1.47902 7.590896,-3.66183 a 10.355792,10.355792 0 0 1 0.4445,1.30439 z"
       id="path1518" />
    <path
       inkscape:connector-curvature="0"
       style="fill:#444053;stroke-width:0.26458332"
       d="m -50.689634,115.16374 c 0,0 -4.947708,1.44992 -7.672916,1.27793 -2.38125,-0.14816 -2.034646,-2.45533 -1.907646,-3.02683 2.505604,-0.0794 6.818312,-0.31485 9.056687,-0.99219 h 0.01852 c 0.587375,0.26723 0.505354,2.74109 0.505354,2.74109 z"
       id="path1520" />
    <path
       inkscape:connector-curvature="0"
       style="opacity:0.1;stroke-width:0.26458332"
       d="m -75.600154,110.38536 c -0.264584,5.715 -6.741584,3.49779 -7.672917,2.7305 a 2.3944792,2.3944792 0 0 1 -0.362479,-0.37306 c 2.267479,0.83608 6.283854,1.47902 7.590896,-3.66183 a 10.355792,10.355792 0 0 1 0.4445,1.30439 z"
       id="path1522" />
    <path
       inkscape:connector-curvature="0"
       style="opacity:0.1;stroke-width:0.26458332"
       d="m -50.689634,115.16374 c 0,0 -4.947708,1.44992 -7.672916,1.27793 -2.38125,-0.14816 -2.034646,-2.45533 -1.907646,-3.02683 2.505604,-0.0794 6.818312,-0.31485 9.056687,-0.99219 h 0.01852 c 0.587375,0.26723 0.505354,2.74109 0.505354,2.74109 z"
       id="path1524" />
    <path
       inkscape:connector-curvature="0"
       style="fill:#67647e;stroke-width:0.26458332"
       d="m -38.489696,132.99401 c -2.64583,1.79123 -6.65427,0.93927 -6.65427,0.93927 0,0 -6.056313,-2.91041 -7.847543,-2.91041 -1.791229,0 -6.143625,-1.79123 -6.143625,-1.79123 l 0.145521,-1.2065 0.709084,-5.78115 c 0,0 6.646333,-0.16933 6.910916,-0.76729 0,0 1.195917,-2.93952 1.621896,-1.85208 0.425979,1.08743 6.826251,8.76564 8.445501,8.76564 0.77258,0 2.05052,0.64029 2.88925,1.50284 0.9181,0.94456 1.2991,2.16429 -0.0767,3.10091 z"
       id="path1526" />
    <path
       inkscape:connector-curvature="0"
       style="opacity:0.1;stroke-width:0.26458332"
       d="m -61.439654,82.572362 c 0,0 -5.55625,3.497792 -4.008438,4.265083 1.547813,0.767292 4.008438,-4.265083 4.008438,-4.265083 z"
       id="path1528" />
    <path
       inkscape:connector-curvature="0"
       style="opacity:0.1;stroke-width:0.26458332"
       d="m -59.135134,89.3113 c 0,0 -4.778375,4.537604 -2.987145,4.656666 1.791229,0.119063 2.987145,-4.656666 2.987145,-4.656666 z"
       id="path1530" />
    <path
       inkscape:connector-curvature="0"
       style="opacity:0.1;stroke-width:0.26458332"
       d="m -54.015446,103.73109 c 0,0 -2.413,4.572 -1.513417,5.34988 0.899584,0.77787 1.513417,-5.34988 1.513417,-5.34988 z"
       id="path1532" />
    <path
       inkscape:connector-curvature="0"
       style="opacity:0.1;stroke-width:0.26458332"
       d="m -80.719842,108.33749 c 0.851958,0.8546 -8.106833,-2.81517 -6.058958,-2.98715 2.047875,-0.17198 6.058958,2.98715 6.058958,2.98715 z"
       id="path1534" />
    <path
       inkscape:connector-curvature="0"
       style="fill:#a1616a;stroke-width:0.26458332"
       d="m -98.637425,44.350654 -0.283104,-0.04233 c -1.058334,-0.164041 -4.908021,-0.767291 -8.358191,-1.516062 -0.84137,-0.182563 -1.65629,-0.373063 -2.40506,-0.568855 -2.64583,-0.693208 -4.41589,-1.441979 -3.28612,-2.053166 1.49754,-0.812271 2.286,-2.288646 2.70139,-3.558646 q 0.0609,-0.187854 0.11113,-0.365125 a 9.4112292,9.4112292 0 0 0 0.34396,-1.963208 c 0,0 9.64141,-3.413125 7.76287,0 -0.92075,1.674812 -0.30162,3.040062 0.56885,3.997854 a 7.4956458,7.4956458 0 0 0 2.076983,1.547812 z"
       id="path1536" />
    <path
       inkscape:connector-curvature="0"
       style="opacity:0.1;stroke-width:0.26458332"
       d="m -108.95882,41.70482 c 0,0 3.43958,2.473855 6.96912,0.425979 3.529546,-2.047875 8.13065,18.089563 8.13065,18.089563 l 4.778375,11.771313 c 0,0 3.095625,2.561166 -0.756709,3.66977 -3.852333,1.108605 -12.395726,-1.108604 -14.565316,2.132542 -2.16958,3.241146 -6.26533,3.754438 -6.6966,3.754438 -0.43127,0 -2.04523,-12.199938 -2.04523,-12.199938 l -0.43392,-17.666229 z"
       id="path1538" />
    <path
       inkscape:connector-curvature="0"
       style="fill:#f3f5f9;stroke-width:0.26458332"
       d="m -90.006717,74.97882 c -3.852333,1.108605 -12.398373,-1.108604 -14.552083,2.132542 a 8.35025,8.35025 0 0 1 -3.67242,2.955396 9.6467083,9.6467083 0 0 1 -3.02683,0.79375 c -0.0556,0 -0.13494,-0.224896 -0.23019,-0.611188 -0.6006,-2.468562 -1.81504,-11.58875 -1.81504,-11.58875 l -0.42069,-17.660937 4.05342,-8.781521 0.55298,-1.201209 a 7.2972083,7.2972083 0 0 0 1.75683,0.854605 6.19125,6.19125 0 0 0 5.21494,-0.42598 c 1.03452,-0.600604 2.161646,0.706438 3.2385,2.857501 2.590271,5.17525 4.8895,15.229416 4.8895,15.229416 l 4.778375,11.771313 a 4.1513125,4.1513125 0 0 1 0.325437,0.312208 c 0.664104,0.719667 1.93675,2.489729 -1.092729,3.362854 z"
       id="path1540" />
    <path
       inkscape:connector-curvature="0"
       style="opacity:0.1;stroke-width:0.26458332"
       d="m -108.35822,75.571487 a 22.225,22.225 0 0 1 0.11377,4.497917 52.313417,52.313417 0 0 1 -0.79375,6.35 2.1166667,2.1166667 0 0 1 -0.10318,0.386291 c -2.08227,-0.912812 -3.73592,-1.5875 -3.73592,-1.5875 l 1.37583,-4.960937 c -0.6006,-2.468563 -1.81504,-11.58875 -1.81504,-11.58875 l -0.42069,-17.660938 4.05342,-8.781521 c -2.64583,-0.693208 -4.41589,-1.441979 -3.28612,-2.053166 1.64041,-0.891646 2.43152,-2.582334 2.81252,-3.923771 a 14.316604,14.316604 0 0 0 2.42358,2.608791 l 0.0529,0.04498 0.30692,2.976562 0.0952,0.915458 0.19579,1.899709 c 0,0 -0.93927,22.436667 -1.6219,23.71725 -0.68262,1.280583 -0.34131,3.754438 0.26459,6.654271 0.0265,0.164042 0.0556,0.330729 0.082,0.505354 z"
       id="path1542" />
    <path
       inkscape:connector-curvature="0"
       style="fill:#19a0ff;stroke-width:0.26458332"
       d="m -108.78949,74.722175 c 0.59796,2.910416 0.0847,7.672916 -0.59796,11.347979 -0.68262,3.675062 -7.9375,1.280583 -9.29745,0 -1.35996,-1.280584 -5.37634,-1.875896 -5.37634,-1.875896 0,0 -0.16933,-16.724313 -1.44991,-18.856854 -0.60854,-1.010709 -0.75407,-4.312709 -0.73819,-7.500938 0,-2.865437 0.15346,-5.638271 0.20637,-6.580187 0.0132,-0.216959 0.0185,-0.336021 0.0185,-0.336021 0,0 -5.55625,-9.384771 -5.45835,-10.067396 0.0979,-0.682625 1.70656,-0.767292 1.70656,-0.767292 0,0 6.14098,-4.778375 7.16492,-4.180417 1.02394,0.597959 3.8391,-0.93927 3.8391,-0.93927 0,0 3.56923,0.404812 4.30477,-0.283105 a 0.37570833,0.37570833 0 0 0 0.1323,-0.314854 c -0.0847,-1.092729 3.63537,-3.423708 3.75179,-3.495146 -3.13532,2.820459 1.9341,7.164917 2.50825,7.641167 l 0.0529,0.04498 0.59795,5.79173 c 0,0 -0.93927,22.436666 -1.62189,23.71725 -0.68263,1.280583 -0.34131,3.754437 0.25664,6.654271 z"
       id="path1544" />
    <circle
       style="fill:#444053;stroke-width:0.26458332"
       cx="-109.12022"
       cy="50.348755"
       r="0.42597917"
       id="circle1546" />
    <path
       inkscape:connector-curvature="0"
       style="opacity:0.1;stroke-width:0.26458332"
       d="m -108.24445,38.855258 -2.59291,2.50825 -3.79942,-6.35 a 0.38364583,0.38364583 0 0 0 0.13229,-0.314855 c -0.0847,-1.092729 3.63538,-3.423708 3.74915,-3.495145 -3.13531,2.831041 1.93939,7.1755 2.51089,7.65175 z"
       id="path1548" />
    <circle
       style="opacity:0.1;stroke-width:0.26458332"
       cx="-109.97218"
       cy="63.998608"
       r="0.42597917"
       id="circle1550" />
    <circle
       style="fill:#444053;stroke-width:0.26458332"
       cx="-109.97218"
       cy="63.82663"
       r="0.42597917"
       id="circle1552" />
    <path
       inkscape:connector-curvature="0"
       style="fill:#19a0ff;stroke-width:0.26458332"
       d="m -108.07511,38.513945 -2.59292,2.50825 -3.80206,-6.35 a 0.37570833,0.37570833 0 0 0 0.13229,-0.314854 c -0.0847,-1.092729 3.63538,-3.423708 3.75179,-3.495146 -3.13266,2.828396 1.93675,7.1755 2.5109,7.65175 z"
       id="path1554" />
    <path
       inkscape:connector-curvature="0"
       style="opacity:0.1;stroke-width:0.26458332"
       d="m -76.536779,73.954883 c -2.132542,0.939271 -16.126355,-1.534583 -18.171584,-2.132542 -2.045229,-0.597958 -5.027083,-5.204354 -3.585104,-8.532812 1.441979,-3.328459 -0.513292,-6.580188 -0.513292,-6.580188 0,0 -3.071811,-6.566958 -3.754441,-7.847541 -0.68262,-1.280584 -2.11666,-5.005917 -2.30452,-5.630334 a 0.52916667,0.52916667 0 0 1 0.12171,-0.391583 c 0.55563,-0.844021 2.69346,-2.338917 2.69346,-2.338917 0.60325,0.216958 0.67733,-1.508125 0.65352,-2.775479 -0.0132,-0.709084 -0.0556,-1.275292 -0.0556,-1.275292 0,0 0.28311,0.288396 0.74613,0.679979 0.16933,0.142875 0.36248,0.298979 0.57414,0.460375 a 8.8926458,8.8926458 0 0 0 2.69346,1.481667 c 2.047875,0.60325 4.947709,3.399896 4.947709,3.399896 l -0.854605,13.104813 c 0,0 1.963209,12.321645 4.011084,14.710833 2.047875,2.389187 8.202083,2.301875 10.236729,2.301875 2.034646,0 2.561167,1.36525 2.561167,1.36525 z"
       id="path1556" />
    <path
       inkscape:connector-curvature="0"
       style="fill:#19a0ff;stroke-width:0.26458332"
       d="m -76.370092,73.444237 c -2.132542,0.936625 -16.123708,-1.537229 -18.171583,-2.135187 -2.047875,-0.597959 -5.027084,-5.204355 -3.582459,-8.530167 1.444625,-3.325813 -0.513291,-6.569604 -0.513291,-6.569604 0,0 -3.071815,-6.569604 -3.754435,-7.850188 -0.68263,-1.280583 -2.10344,-5.005916 -2.30188,-5.630333 a 0.492125,0.492125 0 0 1 0.12171,-0.388938 c 0.55298,-0.846667 2.69346,-2.341562 2.69346,-2.341562 0.60325,0.219604 0.67733,-1.50548 0.65352,-2.772834 -0.0132,-0.711729 -0.0556,-1.277937 -0.0556,-1.277937 0,0 0.2831,0.288396 0.74348,0.682625 0.16933,0.140229 0.36248,0.298979 0.576791,0.460375 a 8.8159167,8.8159167 0 0 0 2.688167,1.468437 c 2.047875,0.605896 4.947708,3.402542 4.947708,3.402542 l -0.851958,13.102167 c 0,0 1.963208,12.321646 4.008437,14.710833 2.045229,2.389188 8.202084,2.304521 10.239375,2.304521 2.037292,0 2.558521,1.36525 2.558521,1.36525 z"
       id="path1558" />
    <path
       inkscape:connector-curvature="0"
       style="opacity:0.1;stroke-width:0.26458332"
       d="m -99.57405,36.288799 c 0,0 -0.08202,0.452438 -0.216959,1.143 -0.457731,2.341563 -1.553101,7.458605 -2.344211,7.260167 -0.5662,-0.142875 -1.524,-1.145646 -2.26748,-2.010833 0.55563,-0.846667 2.69346,-2.341563 2.69346,-2.341563 0.60325,0.219604 0.67734,-1.505479 0.65352,-2.772833 l 0.69057,-0.595313 z"
       id="path1560" />
    <path
       inkscape:connector-curvature="0"
       style="fill:#19a0ff;stroke-width:0.26458332"
       d="m -99.746029,35.947487 c 0,0 -0.07937,0.452437 -0.214313,1.143 -0.460378,2.341562 -1.555748,7.458604 -2.344208,7.260167 -0.56621,-0.142875 -1.524,-1.145646 -2.26748,-2.010834 0.55298,-0.846667 2.69346,-2.341562 2.69346,-2.341562 0.60325,0.219604 0.67733,-1.50548 0.65352,-2.772834 l 0.68792,-0.595312 z"
       id="path1562" />
    <polygon
       transform="matrix(0.26458333,0,0,0.26458333,-180.65032,-38.294596)"
       style="fill:#f86d70"
       points="263.84,378.45 243.41,377.1 243.41,337.97 263.84,338.55 272.98,338.81 296.08,339.46 304.46,329.83 304.46,362.55 295.81,380 295.54,380.55 272.64,379.04 "
       id="polygon1564" />
    <polygon
       transform="matrix(0.26458333,0,0,0.26458333,-180.65032,-38.294596)"
       style="opacity:0.1"
       points="295.81,380 296.3,347.28 296.4,340.68 300.55,336.09 300.55,336.08 302.36,334.08 304.46,331.76 304.46,362.55 302.35,366.81 300.18,371.18 "
       id="polygon1566" />
    <polygon
       transform="matrix(0.26458333,0,0,0.26458333,-180.65032,-38.294596)"
       style="fill:#f86d70"
       points="296.3,347.28 241.62,344.47 241.62,333.2 241.75,333.05 248.28,325.98 250.65,323.43 254.92,318.8 305.63,321.15 305.63,332.57 304.46,334.44 302.36,337.79 300.5,340.75 296.4,347.29 "
       id="polygon1568" />
    <polygon
       transform="matrix(0.26458333,0,0,0.26458333,-180.65032,-38.294596)"
       style="opacity:0.1"
       points="296.4,347.29 241.62,344.47 241.62,333.2 241.75,333.05 296.4,336.02 "
       id="polygon1570" />
    <polygon
       transform="matrix(0.26458333,0,0,0.26458333,-180.65032,-38.294596)"
       style="opacity:0.15"
       points="296.4,347.29 296.4,336.02 305.63,321.15 305.63,332.57 "
       id="polygon1572" />
    <polygon
       transform="matrix(0.26458333,0,0,0.26458333,-180.65032,-38.294596)"
       style="fill:#3f3d56"
       points="300.5,340.75 300.55,336.09 300.55,336.08 300.63,329.21 248.28,325.98 250.65,323.43 302.37,326.4 302.36,334.08 302.36,337.79 302.35,366.81 300.18,371.18 "
       id="polygon1574" />
    <polygon
       transform="matrix(0.26458333,0,0,0.26458333,-180.65032,-38.294596)"
       style="fill:#3f3d56"
       points="268.54,326.78 276.68,326.78 273.01,334.75 272.98,338.81 272.64,379.04 263.84,378.45 263.84,334.22 "
       id="polygon1576" />
    <path
       inkscape:connector-curvature="0"
       style="fill:#3f3d56;stroke-width:0.26458332"
       d="m -110.64157,48.30882 a 3.0532917,3.0532917 0 0 1 -1.73567,0.06086 0.68527083,0.68527083 0 0 1 -0.30427,-0.14023 0.7699375,0.7699375 0 0 1 -0.18785,-0.373062 2.88925,2.88925 0 0 1 -0.16669,-0.894292 0.98425,0.98425 0 0 1 0.37042,-0.79375 0.9286875,0.9286875 0 0 0 0.14023,-0.105833 0.56885417,0.56885417 0 0 0 0.11112,-0.22225 c 0.16933,-0.505354 0.49742,-1.039813 1.02394,-1.121833 0.52652,-0.08202 0.93133,0.264583 1.30704,0.584729 l 0.82285,0.701146 a 1.2991042,1.2991042 0 0 1 2.42094,-0.0344 4.587875,4.587875 0 0 1 1.83092,-1.254125 0.5715,0.5715 0 0 1 0.48154,-0.02117 0.587375,0.587375 0 0 1 0.19315,0.264583 3.96875,3.96875 0 0 1 0.35454,1.561042 0.26458333,0.26458333 0 0 1 0.3175,0.111125 0.70114583,0.70114583 0 0 1 0.10583,0.343958 4.4979167,4.4979167 0 0 1 0.0344,0.566209 0.84402083,0.84402083 0 0 1 -0.15081,0.566208 0.93397917,0.93397917 0 0 1 -0.71438,0.22225 0.28839583,0.28839583 0 0 1 -0.0741,0.425979 0.82814583,0.82814583 0 0 1 -0.48154,0.09525 c -0.64029,0 -1.32291,-0.02646 -1.85208,-0.381 -0.21167,-0.140229 -0.38629,-0.328083 -0.59796,-0.465666 -0.51594,-0.343959 -1.16681,-0.359834 -1.76477,-0.33073 -0.5424,0.01323 -0.9816,0.463021 -1.48431,0.635 z"
       id="path1578" />
    <path
       inkscape:connector-curvature="0"
       style="fill:#3f3d56;stroke-width:0.26458332"
       d="m -110.76063,48.168591 c 0,0 -5.34194,0.743479 -6.08542,3.96875 l 1.11654,-0.164041 0.79375,1.407583 c 0,0 0.82815,-3.148542 3.27025,-3.894667 2.44211,-0.746125 3.31259,-0.867833 3.31259,-0.867833 0,0 1.69862,0.41275 3.23056,5.341937 l 0.87048,-1.201208 1.53193,0.330729 c 0,0 -1.11918,-3.852333 -4.14072,-4.926541 z"
       id="path1580" />
    <path
       inkscape:connector-curvature="0"
       style="fill:#a1616a;stroke-width:0.26458332"
       d="m -94.285029,61.07232 c 0,0 -4.26773,-0.851958 -5.461,-2.7305 -1.193271,-1.878541 -9.318621,-3.497791 -8.329081,-1.534583 0.98954,1.963208 8.329081,8.382 8.329081,8.382 l 3.175,4.553479 4.233333,-1.076854 1.788583,-3.476625 z"
       id="path1582" />
    <path
       inkscape:connector-curvature="0"
       style="opacity:0.1;stroke-width:0.26458332"
       d="m -104.37888,65.940654 c 0,0 4.13279,1.534583 4.762496,3.582458 0.629709,2.047875 -4.762496,-3.582458 -4.762496,-3.582458 z"
       id="path1584" />
    <path
       inkscape:connector-curvature="0"
       style="opacity:0.1;stroke-width:0.26458332"
       d="m -106.91359,68.32455 c 0,0 -0.37571,2.132541 4.80483,1.960562 z"
       id="path1586" />
    <path
       inkscape:connector-curvature="0"
       style="opacity:0.1;stroke-width:0.26458332"
       d="m -129.26559,41.022195 -1.8759,-0.169333 c 0,0 -2.04787,1.534583 -3.5851,1.534583 -1.53723,0 -2.47385,1.963209 -2.47385,1.963209 0,0 -2.55853,1.193271 -3.41313,1.36525 -0.8546,0.171979 -2.30188,1.023937 -1.8759,1.36525 0.42598,0.341312 -0.0847,1.108604 -0.85195,1.706562 -0.7673,0.597959 -1.96321,3.667125 -0.93928,4.093104 1.02394,0.42598 3.83911,1.280584 4.6064,1.706563 0.76729,0.425979 1.70656,0 1.70656,0 0,0 4.51909,-5.886979 6.82361,-4.775729 2.30452,1.11125 5.461,1.108604 5.461,1.108604 l 2.4765,-5.204354 z"
       id="path1588" />
    <path
       inkscape:connector-curvature="0"
       style="fill:#19a0ff;stroke-width:0.26458332"
       d="m -90.006717,69.094487 a 2.2807083,2.2807083 0 0 1 -1.5875,1.105958 12.057062,12.057062 0 0 1 -4.966229,-0.457729 c 0,0 8.593667,-2.7305 0.3175,-9.368896 h 2.217208 l 0.740834,-0.280458 -0.338667,-1.767417 -0.486833,-15.9385 1.791229,-0.425979 c 0,0 1.441979,10.493375 1.788583,11.773959 0.346604,1.280583 0.600604,6.228291 0.600604,6.228291 0,0 0.341313,2.047875 0.854604,3.071813 0.367771,0.769937 0.280459,4.238625 -0.931333,6.058958 z"
       id="path1590" />
    <path
       inkscape:connector-curvature="0"
       style="opacity:0.1;stroke-width:0.26458332"
       d="m -90.348029,69.094487 a 2.2833542,2.2833542 0 0 1 -1.5875,1.105958 12.065,12.065 0 0 1 -4.974167,-0.457729 c 0,0 8.593667,-2.7305 0.3175,-9.368896 h 2.219854 l 0.738188,-0.280458 c 1.222375,2.151063 3.13002,5.979583 3.286125,9.001125 z"
       id="path1592" />
    <path
       inkscape:connector-curvature="0"
       style="fill:none;stroke-width:0.26458332"
       d="m -90.006717,69.094487 a 2.2807083,2.2807083 0 0 1 -1.5875,1.105958 12.057062,12.057062 0 0 1 -4.966229,-0.457729 c 0,0 8.593667,-2.7305 0.3175,-9.368896 h 2.217208 l 0.740834,-0.280458 c 1.209145,2.151063 3.122083,5.979583 3.278187,9.001125 z"
       id="path1594" />
    <path
       inkscape:connector-curvature="0"
       style="fill:#19a0ff;stroke-width:0.26458332"
       d="m -90.006717,69.094487 a 2.2807083,2.2807083 0 0 1 -1.5875,1.105958 12.057062,12.057062 0 0 1 -4.966229,-0.457729 c 0,0 8.593667,-2.7305 0.3175,-9.368896 h 2.217208 l 0.740834,-0.280458 c 1.209145,2.151063 3.122083,5.979583 3.278187,9.001125 z"
       id="path1596" />
    <path
       inkscape:connector-curvature="0"
       style="opacity:0.1;stroke-width:0.26458332"
       d="m -101.4817,38.281112 a 7.7681667,7.7681667 0 0 1 -8.78681,-1.680104 q 0.0609,-0.187855 0.11113,-0.365125 a 9.4112292,9.4112292 0 0 0 0.34396,-1.963209 c 0,0 9.64141,-3.413125 7.76287,0 -0.92075,1.685396 -0.30162,3.050646 0.56885,4.008438 z"
       id="path1598" />
    <path
       inkscape:connector-curvature="0"
       style="fill:#a1616a;stroke-width:0.26458332"
       d="m -96.930863,30.870133 v 0.07408 c 0,0.264583 -0.01588,0.502708 -0.04233,0.748771 -0.02646,0.246062 -0.06085,0.468312 -0.105833,0.6985 a 7.7681667,7.7681667 0 0 1 -14.959544,1.002771 c -0.0503,-0.150813 -0.0979,-0.301625 -0.14023,-0.455084 a 7.7337708,7.7337708 0 0 1 -0.28046,-2.069041 c 0,-0.179917 0,-0.357188 0.0212,-0.529167 a 7.762875,7.762875 0 0 1 15.507233,0.529167 z"
       id="path1600" />
    <path
       inkscape:connector-curvature="0"
       style="opacity:0.1;stroke-width:0.26458332"
       d="m -96.930863,30.944216 a 3.4792708,3.4792708 0 0 0 -0.04233,0.748771 2.9421667,2.9421667 0 0 1 -0.02117,0.404812 1.1641667,1.1641667 0 0 1 -0.08467,0.293688 c -0.314855,0.735541 -1.338792,1.211791 -2.01348,0.738187 a 2.1854583,2.1854583 0 0 1 -0.605895,-0.79375 c -0.717022,-1.322916 -1.714502,-2.865437 -3.283482,-2.891896 -0.66939,-0.01323 -1.2991,0.264584 -1.94733,0.433917 -0.64823,0.169333 -1.41288,0.185208 -1.89706,-0.264583 -0.37042,-0.338667 -0.54504,-0.918104 -1.04246,-1.037167 -0.49742,-0.119062 -0.95779,0.338667 -1.18533,0.79375 -0.22755,0.455083 -0.41011,0.971021 -0.87048,1.203854 -0.20638,0.100542 -0.44715,0.129646 -0.64823,0.238125 -0.92869,0.510646 -0.50271,2.291292 -1.46579,2.579688 l -0.0926,0.02117 -0.0476,-0.47625 q -0.1323,-1.30175 -0.26459,-2.6035 a 7.762875,7.762875 0 0 1 15.507231,0.529167 z"
       id="path1602" />
    <path
       inkscape:connector-curvature="0"
       style="fill:#464353;stroke-width:0.26458332"
       d="m -110.72359,19.281382 c -0.91017,0.386292 -1.85208,0.981604 -2.0664,1.912938 a 7.5538542,7.5538542 0 0 0 -0.0423,1.248833 c -0.0423,0.841375 -0.4445,1.621896 -0.6985,2.426229 -0.254,0.804334 -0.34925,1.746251 0.16404,2.431521 0.1614,0.214313 0.37307,0.391584 0.51594,0.61648 a 2.5135417,2.5135417 0 0 1 0.29898,1.12977 l 0.42069,4.198938 c 1.08479,-0.201083 0.6006,-2.076979 1.55839,-2.600854 0.20109,-0.108479 0.44186,-0.140229 0.64823,-0.240771 0.46038,-0.230188 0.64029,-0.756708 0.87048,-1.203854 0.23019,-0.447146 0.67998,-0.904875 1.18534,-0.79375 0.50535,0.111125 0.67204,0.6985 1.04245,1.034521 0.48419,0.441854 1.25413,0.420687 1.89971,0.264583 0.64559,-0.156104 1.27529,-0.447146 1.94469,-0.436563 1.56898,0.02646 2.56646,1.561042 3.283479,2.891896 a 2.2172083,2.2172083 0 0 0 0.605895,0.79375 c 0.762,0.529167 1.965855,-0.140229 2.098146,-1.034521 0.07144,-0.500062 -0.08467,-1.058333 0.206375,-1.484312 0.291042,-0.425979 0.912813,-0.529167 1.402292,-0.740833 1.246187,-0.574146 1.632479,-2.129896 1.426104,-3.439584 -0.150815,-0.939271 -0.52917,-1.910292 -0.216961,-2.815167 0.105833,-0.312208 0.288396,-0.597958 0.386291,-0.910166 0.264584,-0.878417 -0.174625,-1.852084 -0.878416,-2.471209 -0.703792,-0.619125 -1.624542,-0.968375 -2.529417,-1.272646 -2.328333,-0.777875 -4.762498,-1.531937 -7.246938,-1.693333 -1.08479,-0.06879 -2.5056,-0.407458 -3.3655,0.264583 -1.00542,0.804334 -1.651,1.389063 -2.91306,1.923521 z"
       id="path1604" />
    <circle
       style="opacity:0.1;stroke-width:0.26458332"
       cx="-108.69424"
       cy="43.60717"
       r="0.42597917"
       id="circle1606" />
    <circle
       style="fill:#444053;stroke-width:0.26458332"
       cx="-108.69424"
       cy="43.437843"
       r="0.42597917"
       id="circle1608" />
    <circle
       style="opacity:0.1;stroke-width:0.26458332"
       cx="-111.4221"
       cy="70.396233"
       r="0.42597917"
       id="circle1610" />
    <circle
       style="fill:#444053;stroke-width:0.26458332"
       cx="-111.4221"
       cy="70.226898"
       r="0.42597917"
       id="circle1612" />
    <circle
       style="opacity:0.1;stroke-width:0.26458332"
       cx="-109.97218"
       cy="77.479134"
       r="0.42597917"
       id="circle1614" />
    <circle
       style="fill:#444053;stroke-width:0.26458332"
       cx="-109.97218"
       cy="77.307152"
       r="0.42597917"
       id="circle1616" />
    <path
       inkscape:connector-curvature="0"
       style="opacity:0.1;stroke-width:0.26458332"
       d="m -95.308967,50.359341 c 0,0 0.939271,6.371167 0,7.482417 -0.939271,1.11125 0,-7.482417 0,-7.482417 z"
       id="path1618" />
    <path
       inkscape:connector-curvature="0"
       style="opacity:0.1;stroke-width:0.26458332"
       d="m -123.20663,62.180925 c 0,0 -1.79388,3.86027 0,7.561791 1.79387,3.701521 2.91041,5.204354 2.30187,7.567084 -0.60854,2.362729 -2.30187,-15.128875 -2.30187,-15.128875 z"
       id="path1620" />
    <path
       inkscape:connector-curvature="0"
       style="opacity:0.1;stroke-width:0.26458332"
       d="m -38.489696,132.99401 c -2.64583,1.79123 -6.65427,0.93927 -6.65427,0.93927 0,0 -6.056313,-2.91041 -7.847543,-2.91041 -1.791229,0 -6.143625,-1.79123 -6.143625,-1.79123 l 0.145521,-1.2065 c 1.770063,0.34131 5.789084,1.15093 6.252104,1.54781 0.597959,0.51329 7.937503,2.98715 7.937503,2.98715 0,0 4.99533,-0.62442 6.38704,-2.67759 0.9181,0.95515 1.2991,2.17488 -0.0767,3.1115 z"
       id="path1622" />
    <g
       transform="matrix(0.26458333,0,0,0.26458333,-180.65032,-38.294596)"
       style="opacity:0.1"
       id="g1630">
      <path
         inkscape:connector-curvature="0"
         d="m 296.82,310.92 c 0,-0.35 0,-0.7 0,-1.06 0,0.41 0,0.81 0,1.21 a 0.77,0.77 0 0 0 0,-0.15 z"
         transform="translate(-40.5,-83.93)"
         id="path1624" />
      <path
         inkscape:connector-curvature="0"
         d="m 362.76,338.34 c -1.85,0.86 -4.18,1.16 -5.3,2.8 -1.12,1.64 -0.51,3.72 -0.78,5.61 -0.5,3.38 -5.05,5.93 -7.93,3.91 a 8.3,8.3 0 0 1 -2.29,-3 c -2.71,-5 -6.48,-10.83 -12.41,-10.93 -2.53,0 -4.91,1 -7.35,1.65 -2.44,0.65 -5.35,0.7 -7.18,-1 -1.4,-1.27 -2.06,-3.46 -3.94,-3.91 -1.88,-0.45 -3.61,1.27 -4.48,3 -0.87,1.73 -1.55,3.68 -3.29,4.55 -0.78,0.38 -1.69,0.5 -2.45,0.91 -3.61,2 -1.79,9.07 -5.89,9.83 l -1.59,-15.87 a 9.5,9.5 0 0 0 -1.13,-4.27 c -0.54,-0.85 -1.34,-1.52 -1.95,-2.33 a 7.17,7.17 0 0 1 -1.32,-3.41 8.27,8.27 0 0 0 1.32,6 c 0.61,0.81 1.41,1.48 1.95,2.33 a 9.5,9.5 0 0 1 1.13,4.27 l 1.59,15.87 c 4.1,-0.76 2.28,-7.85 5.89,-9.83 0.76,-0.41 1.67,-0.53 2.45,-0.91 1.74,-0.87 2.43,-2.86 3.29,-4.55 0.86,-1.69 2.57,-3.42 4.48,-3 1.91,0.42 2.54,2.64 3.94,3.91 1.83,1.67 4.74,1.59 7.18,1 2.44,-0.59 4.82,-1.69 7.35,-1.65 5.93,0.1 9.7,5.9 12.41,10.93 a 8.38,8.38 0 0 0 2.29,3 c 2.88,2 7.43,-0.53 7.93,-3.91 0.27,-1.89 -0.32,-4 0.78,-5.61 1.1,-1.61 3.45,-2 5.3,-2.8 4.31,-2 5.89,-7.07 5.53,-11.7 -0.29,3.77 -2.01,7.49 -5.53,9.11 z"
         transform="translate(-40.5,-83.93)"
         id="path1626" />
      <path
         inkscape:connector-curvature="0"
         d="m 368.79,311.27 c -0.37,1.18 -1.06,2.26 -1.46,3.44 A 10,10 0 0 0 367,319 a 8.1,8.1 0 0 1 0.37,-1.66 c 0.4,-1.18 1.09,-2.26 1.46,-3.44 a 7.27,7.27 0 0 0 0.19,-3.37 7.55,7.55 0 0 1 -0.23,0.74 z"
         transform="translate(-40.5,-83.93)"
         id="path1628" />
    </g>
    <path
       inkscape:connector-curvature="0"
       style="opacity:0.1;stroke-width:0.26458332"
       d="m -118.85688,59.789091 c -1.96321,-0.428625 -6.56961,-1.788583 -6.56961,-1.788583 l -0.82285,-0.164042 c 0,-2.865437 0.15346,-5.638271 0.20637,-6.580187 h 0.0185 c 0,0 3.92642,1.277937 4.86305,1.960562 0.93662,0.682625 3.8391,0.513292 3.8391,0.513292 0,0 4.52173,0.264583 8.27617,4.437062 3.75443,4.17248 -7.84755,2.053167 -9.81075,1.621896 z"
       id="path1632" />
    <path
       inkscape:connector-curvature="0"
       style="fill:#a1616a;stroke-width:0.26458332"
       d="m -138.03388,52.174383 a 1.1377083,1.1377083 0 0 0 -0.26459,1.912937 c 1.03717,0.859896 2.55588,1.891771 4.00315,2.037292 2.41829,0.243417 8.23383,1.410229 8.81327,1.526646 l 0.09,0.02117 c 0.4789,0.140229 4.67519,1.370541 6.52463,1.775354 1.9632,0.431271 13.56518,2.563812 9.81075,-1.616604 -3.45546,-3.849688 -7.55915,-4.370917 -8.20209,-4.431771 a 1.4340417,1.4340417 0 0 0 -0.15081,0 c -0.43921,0.02117 -2.91042,0.105833 -3.77296,-0.529167 a 8.1015417,8.1015417 0 0 0 -1.41023,-0.701149 26.9875,26.9875 0 0 0 -5.76792,-1.664229 l -4.00314,-0.674687 a 1.158875,1.158875 0 0 0 -0.67469,0.08467 z"
       id="path1634" />
    <path
       inkscape:connector-curvature="0"
       style="fill:#19a0ff;stroke-width:0.26458332"
       d="m -129.6069,41.022195 -1.8759,-0.169333 c 0,0 -2.04787,1.534583 -3.5851,1.534583 -1.53723,0 -2.47386,1.963209 -2.47386,1.963209 0,0 -2.55852,1.193271 -3.41312,1.36525 -0.85461,0.171979 -2.30188,1.023937 -1.8759,1.36525 0.42598,0.341312 -0.0847,1.108604 -0.85196,1.706562 -0.76729,0.597959 -1.96321,3.667125 -0.93927,4.093104 1.02394,0.42598 3.83911,1.280584 4.6064,1.706563 0.76729,0.425979 1.70656,0 1.70656,0 0,0 4.51908,-5.886979 6.82361,-4.775729 2.30452,1.11125 5.47158,1.108604 5.47158,1.108604 l 2.4765,-5.204354 z"
       id="path1636" />
    <path
       inkscape:connector-curvature="0"
       style="fill:#464353;stroke-width:0.26458332"
       d="m -125.50057,72.319758 v 22.148271 h 35.438291 v 3.704166 h -35.067871 v 15.874995 h -3.70417 V 72.319758 Z"
       id="path1638" />
    <path
       inkscape:connector-curvature="0"
       style="fill:#464353;stroke-width:0.26458332"
       d="m -141.74334,45.379883 h 14.02292 l 1.47637,25.103667 h 29.0195 a 10.054167,10.054167 0 0 1 6.820958,2.579687 9.0910833,9.0910833 0 0 1 2.926292,5.910792 v 37.652861 h -3.690938 l 0.365125,-36.486049 a 4.905375,4.905375 0 0 0 -0.116416,-1.129771 c -0.227542,-0.994833 -0.865188,-2.809875 -2.57175,-3.82852 a 4.79425,4.79425 0 0 0 -2.460625,-0.640292 h -32.869186 l -1.85208,-26.209625 h -11.07017 z"
       id="path1640" />
    <path
       inkscape:connector-curvature="0"
       style="fill:#35323e;stroke-width:0.26458332"
       d="m -146.54024,110.71874 c 0,16.51529 9.58586,29.89792 21.41009,29.89792 11.82423,0 21.41008,-13.38792 21.41008,-29.89792 0,-16.510003 -9.58585,-29.89792 -21.41008,-29.89792 -11.82423,0 -21.41009,13.385271 -21.41009,29.89792 z m 1.47638,-0.39952 c 0,-14.456837 8.42962,-26.177879 18.8251,-26.177879 10.39548,0 18.82775,11.721042 18.82775,26.177879 0,14.45683 -8.42962,26.17788 -18.82775,26.17788 -10.39812,0 -18.8251,-11.72105 -18.8251,-26.17788 z"
       id="path1642" />
    <ellipse
       style="fill:#35323e;stroke-width:0.26458332"
       cx="-127.34472"
       cy="111.64214"
       rx="3.3231668"
       ry="4.9847503"
       id="ellipse1644" />
    <ellipse
       style="fill:#464353;stroke-width:0.26458332"
       cx="-128.0829"
       cy="111.82735"
       rx="0.73818749"
       ry="1.476375"
       id="ellipse1646" />
    <path
       inkscape:connector-curvature="0"
       style="fill:#464353;stroke-width:0.26458332"
       d="m -88.215488,104.44547 v 4.0587 c 1.158875,-0.72231 2.431521,-0.52916 3.556,-0.0423 a 6.7045417,6.7045417 0 0 1 3.685646,4.33917 c 0.894292,3.09563 2.645833,9.18634 4.201583,14.91192 2.214563,8.10683 6.275917,6.25475 6.275917,6.25475 l 28.238976,2.032 11.99886,-6.08542 v -3.70416 h -30.270982 c 0,0 -7.014104,2.58497 -9.966854,3.70416 -2.95275,1.11919 -1.852083,-1.1086 -5.744104,-15.03627 -3.892021,-13.92767 -11.975042,-10.43252 -11.975042,-10.43252 z"
       id="path1648" />
    <polygon
       transform="matrix(0.26458333,0,0,0.26458333,-180.65032,-38.294596)"
       style="opacity:0.1"
       points="568.41,635.75 456.79,634.36 416.33,651.1 523.06,658.77 "
       id="polygon1650" />
  </g>
</svg>
