<svg id="Data_integration" data-name="Data integration" xmlns="http://www.w3.org/2000/svg" viewBox="0 0 30 30"><defs><style>.cls-1,.cls-2{fill:none;stroke-linecap:round;stroke-linejoin:round;}.cls-1{stroke:#191742;}.cls-2{stroke:#009bca;}</style></defs><title>retail-features3</title><path class="cls-1" d="M17.49,9.5a2.09,2.09,0,0,1-3.83.64A2.1,2.1,0,0,1,15.91,7"/><line class="cls-1" x1="12.67" y1="10.01" x2="14.71" y2="8.75"/><line class="cls-1" x1="13.36" y1="10.98" x2="15.4" y2="9.73"/><polyline class="cls-2" points="14.47 19.65 9.63 21.7 3.46 16.94"/><line class="cls-2" x1="26.6" y1="14.52" x2="22.59" y2="16.22"/><polyline class="cls-2" points="14.47 16.64 10.04 18.52 3.44 13.43"/><line class="cls-2" x1="26.6" y1="11.51" x2="22.59" y2="13.21"/><polyline class="cls-2" points="14.47 13.63 10.45 15.33 3.46 9.94 7.72 8.14"/><polyline class="cls-2" points="15.64 4.79 19.61 3.11 26.6 8.5 22.42 10.27"/><line class="cls-1" x1="7.73" y1="8.14" x2="15.64" y2="4.79"/><line class="cls-1" x1="14.47" y1="13.63" x2="22.42" y2="10.27"/><line class="cls-1" x1="16.25" y1="18.83" x2="20.64" y2="16.97"/><polyline class="cls-2" points="3.46 9.94 3.46 20.44 9.22 24.88 14.51 22.65"/><polyline class="cls-2" points="26.6 8.5 26.6 17.53 22.42 19.3"/><polyline class="cls-2" points="3.46 9.94 3.46 20.44 9.22 24.88 14.51 22.65"/><polyline class="cls-2" points="26.6 8.5 26.6 17.53 22.42 19.3"/><polyline class="cls-1" points="7.72 8.41 14.51 13.51 14.51 22.65 22.42 19.3 22.42 9.9 15.64 4.8"/></svg>