<svg id="Isolation_Mode" xmlns="http://www.w3.org/2000/svg" width="360" height="400" viewBox="0 0 360 400"><style>.st3{fill:#004d99}.st5{fill:#331799}.st26{fill:#528c00}.st28{fill:#2c1d9a}.st36{fill:#4200b7}</style><linearGradient id="SVGID_1_" gradientUnits="userSpaceOnUse" x1="-42.3182" y1="307.1081" x2="61.6959" y2="307.1081" gradientTransform="matrix(-.4858 -.874 -.842 .468 531.5156 200.2989)"><stop offset="0" stop-color="#8c00ff"/><stop offset="1" stop-color="#003ae6"/></linearGradient><path d="M240.1 397.4c7 1.2 13.4-5.1 19.1-7.9 5-2.5 10.4-4 15.9-5 8.9-1.6 19.9-1.1 25.6-9.2 2.3-3.2 4.8-9.9 1.6-13.3-5.4-5.7-16.5-.1-23.2-2.6-2.4-.9-4.6-2.8-5.2-5.2-.6-2.2.2-4.5 1.5-6.2 5.1-6.6 14-7.9 21.8-9 9.3-1.3 17.8-2.5 24.5-9.5 2-2.1 3.6-4.7 4.1-7.6.5-2.9-.4-6.1-2.6-8.2-4.1-3.8-10.6-.6-14.9.9-5.8 2-12 2.6-16.7-2.6-8-8.8.9-19.9 4.1-28.3 1.5-4.4 2.4-11.8-2.9-12.5-10.2-1.5-18.1 3.9-22.3 12.9-2.6 5.6-2.4 10.7-2.1 16.7.2 4.5.6 13-6 12.3-10.2-1.4-7.3-25.8-17.5-23.8-1.8.4-3.3 1.7-4.6 3-5.1 5.6-7.4 13.5-6.3 21 1.2 8.1 5.7 13.2 11.5 18.5 4 3.7 9.6 10.2 6.1 15.7-3.2 5.3-12.9-4.5-18.9-1.7-9.1 4.9-10.3 15.5-8.6 24.9 1.5 7.9 4 17.6 10.1 23.5 2.1 1.9 4 2.9 5.9 3.2z" fill="url(#SVGID_1_)"/><path d="M254.6 317.8c5 4.6 8.9 10.3 11.4 16.5 1.7-18.1 8.7-35.4 20.1-49.4-10.1 14.7-16.2 32.1-17.4 50.1 7.3-8 18.8-12 29.7-10.1 3.3.6 6.6 1.6 9.9 1.7 1.6 0 3.3-.2 4.8-.8.8-.3 1.5-.7 2.1-1.2.6-.5 1.1-1.3 1.6-1.6-1.1 2.4-4.6 3.6-7.1 3.9-2.9.3-5.8-.2-8.7-.5-5.3-.6-10.7-.7-15.9.6-5.1 1.3-10 4-13.1 8.2-6.9 9.1-4.7 23.2-12.5 31.6 2.5-1.3 5.7-.5 8.1 1 2.5 1.5 4.6 3.6 7.2 4.9 5.5 2.8 12.7 1.3 16.4-3.4-3.5 5.1-10.8 7.1-16.7 4.5-3.3-1.5-6.2-4.2-9.7-4.8-4.6-.8-8.8 2.2-11.8 5.6-3 3.4-5.6 7.4-9.5 9.6-.9.5-2 .8-2.8.2-.7-.6-.6-1.7-.1-2.4s1.2-1.2 1.9-1.7c3.1-2.4 4.6-6.7 3.8-10.6-.8-3.9-3.9-7.3-7.8-8.6 5.8 1.2 10.3 7.3 9.7 13.1 10.2-6.7 16.5-18.9 16.1-31.3-.4-12.4-7.5-24.6-18.1-31.3 3 1.7 5.8 3.8 8.4 6.2z" fill="#081b9a"/><radialGradient id="SVGID_2_" cx="198.9547" cy="198.2781" r="178.1055" gradientTransform="matrix(1.0002 0 0 .9737 -.03768566 19.9808)" gradientUnits="userSpaceOnUse"><stop offset="0" stop-color="#004fe3"/><stop offset=".1634" stop-color="#0070c4"/><stop offset=".568" stop-color="#00bc7d"/><stop offset=".8568" stop-color="#00ed50"/><stop offset="1" stop-color="#00ff3f"/></radialGradient><path d="M240.1 321.5c-28.4 27.2-52.4 39.4-65.7 37.1-1.4-.2-2.6-.8-3.5-1.7-.2-.2-.4-.5-.6-.7-26.4-37.8-4.9-82.3-4.9-82.3.9 16.8 14.3 30.7 14.3 30.7-14.1-57 22.5-72.5 22.5-72.5-11.1 20.8-2.5 35-2.5 35 2.9-47.3 61.7-30.7 61.7-30.7-1.5 29.4-46.9 49.9-46.9 49.9 22.5 5.5 49.9-13.7 49.9-13.7-14 39.3-58.3 39.9-58.3 39.9 3.7 12 34 9 34 9z" fill="url(#SVGID_2_)"/><path class="st3" d="M233.4 255.9c-5.3 1.7-9.9 4.6-13.9 7.9-4 3.3-7.5 7.1-10.6 11.2-3.1 4-5.9 8.3-8.4 12.6-2.5 4.4-4.8 8.8-6.8 13.4-4.2 9.1-7.6 18.5-10.6 27.9-2.9 9.5-5.5 19.1-7.4 28.8-.1.5-.4.9-.8 1.2-1.6-.3-2.9-.9-3.8-1.9v-.2-.1c2.4-9.8 5.3-19.4 8.7-28.8 3.4-9.4 7.2-18.8 11.8-27.8 2.3-4.5 4.7-9 7.4-13.3 2.7-4.3 5.6-8.5 8.9-12.5 3.3-3.9 7-7.7 11.2-10.9 4.2-3.3 9-6 14.3-7.5z"/><linearGradient id="SVGID_3_" gradientUnits="userSpaceOnUse" x1="303.4164" y1="345.5287" x2="358.2036" y2="271.3553" gradientTransform="matrix(-1 0 0 1 403.3918 0)"><stop offset="0" stop-color="#003ae6"/><stop offset="1" stop-color="#8c00ff"/></linearGradient><path d="M55.6 316.4c10.5 22.4 18.5 21.3 27.6 17.6l1.5-.6 1.5-.6c9-3.9 15.2-8.6 4.7-31-11.1-23.5-46.3-53.7-46.3-53.7s-.1 44.8 11 68.3z" fill="url(#SVGID_3_)"/><path class="st5" d="M75.4 316.9l7.8 17.2 1.5-.6 1.5-.6-18.7-38.4-.5-16.6-1.4 13-13.1-26.8c-.4-.8-1.2-2.2-1.6-2.1-.3.1.2 1.7.6 2.5L74 313.9l-15.2-8.4 16.6 11.4z"/><radialGradient id="SVGID_4_" cx="82.4521" cy="418.393" r="111.265" gradientTransform="matrix(1.0002 0 0 .9197 -.03768566 32.1168)" gradientUnits="userSpaceOnUse"><stop offset="0" stop-color="#00ff3f"/><stop offset=".1432" stop-color="#00ed50"/><stop offset=".432" stop-color="#00bc7d"/><stop offset=".8366" stop-color="#0070c4"/><stop offset="1" stop-color="#004fe3"/></radialGradient><path d="M96.6 400H8.8c2.5-6.2 20.7-.4 23.5-7.8 1.8-5.2-5.7-6.6-9.6-7.4-5.3-1-9.8-1.8-14.2-5-7.1-5.2-10.4-12.7-7.3-20.6 1.6-4.1 7.9-1.9 11.4.2 6.8 4.3 14.8 13.7 23.9 9 5.4-2.8 6-8 5.2-13.1-.6-3.7-2.1-9.7 1.9-12.3 2.2-1.4 5.1-1.4 7.6-.4 2.4 1 4.4 2.8 5.9 4.8 4.9 6.9 4.4 14 3.9 21.8-.5 6.6-.9 14 3.9 19.5 1.3 1.4 3.1 2.5 5.1 2.5 2.3 0 4.3-1.4 5.5-3.2 3.4-5 .5-15.1 6.4-18.3 3.5-1.9 8.9 1.4 11.3 3.9 6 6.3 3.6 15.1 3.4 22.6-.1 1.3-.1 2.5 0 3.8z" fill="url(#SVGID_4_)"/><path class="st3" d="M72.2 400h-4.4c-2.9-1.5-6-2.7-9.3-3.3-7.9-1.6-16.2-.3-23.2 3.3h-1c.3-.2.5-.3.8-.5 4.9-3.1 10.5-5.2 16.4-6-15.4-5-29.3-14.2-39.4-26.2 11 11.2 25.1 19.6 40.5 24.2-5.7-7.5-7.1-17.6-3.5-26.1 1.1-2.6 2.6-5 3.2-7.7.3-1.3.4-2.7.1-4-.1-.7-.3-1.3-.7-1.9-.3-.6-.9-1.1-1.1-1.7 1.9 1.4 2.3 4.5 2.1 6.5-.2 2.4-1.2 4.7-2 7-1.5 4.2-2.5 8.6-2.3 13 .2 4.4 1.7 8.9 4.8 12.3 4.7 5.3 12.7 7.4 19 11.1zM87.2 394.5c-1.5 2-3.7 3.5-5.1 5.5h-2.4c.3-.4.6-.8 1-1.1 1.8-1.7 3.9-3 5.5-4.8 3.4-3.9 3.4-10 0-14 3.8 3.9 4.2 10.2 1 14.4z"/><radialGradient id="SVGID_5_" cx="162.9239" cy="356.5735" r="141.1333" gradientTransform="matrix(-.7782 -.6235 -.6497 .7132 489.9587 219.9177)" gradientUnits="userSpaceOnUse"><stop offset="0" stop-color="#00ff3f"/><stop offset=".1432" stop-color="#00ed50"/><stop offset=".432" stop-color="#00bc7d"/><stop offset=".8366" stop-color="#0070c4"/><stop offset="1" stop-color="#004fe3"/></radialGradient><path d="M92 377.6c5.1-.3 10.1-2.1 14.1-5.5 11.4-9.3 9.7-25.3 18-36.4 6.9-9 22.1-7.4 30.4-14.9 10.6-9.6-2-20-8.1-28.5-5-6.9-5.2-11.3-1.6-18.3 7.5-14.2 11.9-33.1-4.4-44.1-10-6.8-22-4.4-30.6 2.7-10.3 8.7-14.8 22.4-14.9 35.1-.1 11.2-24.2 7.8-29.9 16.1-7.6 11.3 2.7 23.5 9.3 33.1 3.4 5 7.3 10.5 8 16.5.9 7.4-4.6 12.3-7.4 18.7-2.3 5.1-6.9 15.2-1 19.9 5.1 4.2 11.7 6 18.1 5.6z" fill="url(#SVGID_5_)"/><path class="st3" d="M99.6 302.3c6 4.9 10.7 11.2 13.3 18.2 4-7.4 4.6-16 4.2-24.4-.4-8.3-1.7-16.7-1.1-25 .3-4 1.1-8.1 2.6-11.9 1.3-3.3 3.6-8.4 7-10.2-1.9 3-4.2 5.4-5.6 8.7-1.3 3.4-2 7-2.3 10.6-.4 7.2.9 14.4 1.9 21.6 1 7.2 1.6 14.6-.1 21.6 5.8-5.5 16.4-5.9 22.8-.7-3.6-3.1-9.3-3.5-13.8-1.7-4.4 1.8-7.8 5.4-10.1 9.4s-3.8 8.3-5.5 12.6c-5.5 13.3-13.8 25.5-24.3 35.8-1 1-2.5 2-3.8 1.4-1-.5-1.3-1.7-1-2.7s1.1-1.7 1.8-2.5c7.3-7.4 13.7-15.6 19.1-24.3 2.1-3.3 4-6.8 4.8-10.6 1.5-7.1-1.4-14.7-6.3-20.5-4.9-5.8-11.6-10-18.5-13.6 5.5 1.8 10.5 4.6 14.9 8.2z"/><linearGradient id="SVGID_6_" gradientUnits="userSpaceOnUse" x1="236.6688" y1="153.6713" x2="236.6688" y2="368.5615" gradientTransform="matrix(-1 0 0 1 403.3918 0)"><stop offset="0" stop-color="#f2f2ff"/><stop offset="1" stop-color="#b8b8e6"/></linearGradient><path fill="url(#SVGID_6_)" d="M146.8 378.8l39.9-17.3V161.9L151.2 176z"/><linearGradient id="SVGID_7_" gradientUnits="userSpaceOnUse" x1="261.5799" y1="98.8016" x2="261.5799" y2="339.3844" gradientTransform="matrix(-1 0 0 1 403.3918 0)"><stop offset="0" stop-color="#b8b8e6"/><stop offset="1" stop-color="#66c"/></linearGradient><path fill="url(#SVGID_7_)" d="M126.9 361.5l29.9 17.3V179.2l-29.9-17.3z"/><linearGradient id="SVGID_8_" gradientUnits="userSpaceOnUse" x1="114.1291" y1="134.8551" x2="239.5601" y2="134.8551" gradientTransform="matrix(-1 0 0 1 403.3918 0)"><stop offset="0" stop-color="#cccced"/><stop offset="1" stop-color="#5454d1"/></linearGradient><path fill="url(#SVGID_8_)" d="M281.7 173.4l-68.4-39.7-.9-5.7 22.8-24 22.2-7.7 13.8 3.3 9.4 9.5 5.4 42.6z"/><linearGradient id="SVGID_9_" gradientUnits="userSpaceOnUse" x1="156.3461" y1="194.9997" x2="267.3027" y2="130.9261" gradientTransform="matrix(-1 0 0 1 403.3918 0)"><stop offset="0" stop-color="#e6e6ff"/><stop offset="1" stop-color="#c9c9f5"/></linearGradient><path fill="url(#SVGID_9_)" d="M198.5 215.6l86.2-51.6-156.4-80.8-83.2 47.9z"/><linearGradient id="SVGID_10_" gradientUnits="userSpaceOnUse" x1="132.6638" y1="95.6093" x2="370.2072" y2="129.9905" gradientTransform="matrix(-1 0 0 1 403.3918 0)"><stop offset="0" stop-color="#00bfe6"/><stop offset="1" stop-color="#461eb4"/></linearGradient><path d="M193.2 44.9l81.5 47-41 12.3-27.9 33.3c-5.9 8-11.9 25.6-12.6 35.5l-3.9 53.6L36 137.5V94.9c0-15.7 5.3-33.4 14.9-50.1 9.5-16.5 22.3-30 35.8-37.8 13.6-7.8 26.3-9.1 35.9-3.6l70.6 41.5z" fill="url(#SVGID_10_)"/><linearGradient id="SVGID_11_" gradientUnits="userSpaceOnUse" x1="163.2875" y1="90.5747" x2="163.2875" y2="227.3612" gradientTransform="matrix(-1 0 0 1 403.3918 0)"><stop offset="0" stop-color="#08c"/><stop offset=".5" stop-color="#006cd9"/><stop offset="1" stop-color="#461eb4"/></linearGradient><path d="M189.4 226.7L290.8 168v-42.6c0-15.7-5.2-27.3-14.8-32.9-9.6-5.5-22.3-4.3-35.9 3.6-13.6 7.8-26.3 21.3-35.9 37.9-9.6 16.6-14.9 34.4-14.9 50.1v42.6zm9.1-16.2v-31.8c0-26.4 18.7-58.7 41.6-71.9s41.6-2.5 41.6 24v31.7l-83.2 48z" fill="url(#SVGID_11_)"/><g><linearGradient id="SVGID_12_" gradientUnits="userSpaceOnUse" x1="125.878" y1="179.2225" x2="171.0626" y2="179.2225" gradientTransform="matrix(-1 0 0 1 403.3918 0)"><stop offset="0" stop-color="#08c"/><stop offset="1" stop-color="#0000bf"/></linearGradient><path d="M235.9 150.2c.2-.2.3-.3.6-.3.4-.1.9 0 1.5.3l37.1 21.7c1.4.8 2.5 2.7 2.5 4.3l-.2 28.4c0 .8-.3 1.4-.8 1.6l-3.8 2.4-1.8-4.8-33.2-19.5c-1.4-.8-2.5-2.7-2.5-4.3l.2-24.8-3.1-2.8 3.5-2.2z" fill="url(#SVGID_12_)"/><linearGradient id="SVGID_13_" gradientUnits="userSpaceOnUse" x1="133.2157" y1="158.68" x2="186.5552" y2="180.0628" gradientTransform="matrix(-1 -.00611 -.00611 1 410.2226 13.293)"><stop offset="0" stop-color="#00bfe6"/><stop offset="1" stop-color="#0000bf"/></linearGradient><path d="M231.8 153.9l-.2 28.4c0 1.6 1.1 3.5 2.5 4.3l37.1 21.7c1.4.8 2.5.2 2.5-1.4l.2-28.4c0-1.6-1.1-3.5-2.5-4.3l-37.1-21.7c-1.4-.9-2.5-.2-2.5 1.4z" fill="url(#SVGID_13_)"/><path d="M235.2 156.2v3.5l17.5 24.7 17.8-4.2v-3.5l-17.8 4.2-17.5-24.7z" fill="#fff"/></g><g><linearGradient id="SVGID_14_" gradientUnits="userSpaceOnUse" x1="271.0951" y1="396.1032" x2="292.1878" y2="418.306" gradientTransform="matrix(-1.2983 -.5656 -.7856 1.7319 754.4927 -180.5597)"><stop offset="0" stop-color="#8c0"/><stop offset=".139" stop-color="#7dc608"/><stop offset=".3799" stop-color="#61b61e"/><stop offset=".6916" stop-color="#349d42"/><stop offset="1" stop-color="#00806a"/></linearGradient><path d="M46.5 357.3c-2 17.3 15.6 32.4 26.6 38.9 0 0 43.6-50.4 9.9-59.3s-36.5 20.4-36.5 20.4z" fill="url(#SVGID_14_)"/></g><g><linearGradient id="SVGID_15_" gradientUnits="userSpaceOnUse" x1="234.5356" y1="251.6663" x2="253.4795" y2="251.6663" gradientTransform="rotate(15.93 122.99264816 82.05423583)"><stop offset="0" stop-color="#fffb00"/><stop offset=".08565704" stop-color="#f4f604"/><stop offset=".2343" stop-color="#d8e810"/><stop offset=".4281" stop-color="#aad223"/><stop offset=".6597" stop-color="#6ab33e"/><stop offset=".9205" stop-color="#1a8d5f"/><stop offset="1" stop-color="#00806a"/></linearGradient><path d="M200.3 286.8c-1.4 5-6.7 7.9-11.7 6.5-5-1.4-7.9-6.7-6.5-11.7 1.4-5 15.1-18.3 15.1-18.3s4.5 18.5 3.1 23.5z" fill="url(#SVGID_15_)"/><path d="M189 293.4h-.3c-.3-.1-.4-.4-.4-.7l6.3-22.6c.1-.3.4-.4.7-.4.3.1.4.4.4.7l-6.3 22.6c-.1.2-.2.3-.4.4z" fill="#246a00"/></g><g><linearGradient id="SVGID_16_" gradientUnits="userSpaceOnUse" x1="138.0919" y1="313.5312" x2="205.6989" y2="384.6965"><stop offset="0" stop-color="#8c00ff"/><stop offset="1" stop-color="#003ae6"/></linearGradient><path d="M222.3 316.7c-2.3 11-11.1 19.5-19.7 27.2-8.6 7.8-17.7 15.8-20.9 26.6-2.7 9.3-.9 20.1-2.4 29.5h-55c-2-5.4-2-11.1.3-15.9 4.7-9.6 17.5-16.1 16.1-27.1-.7-5.8-5.4-11.1-9.9-15.8-7.4-7.7-17.8-20.9-6.1-27.6 8.5-4.9 22.9.2 32.7-5.4 7.7-4.4 13.4-10.8 20.6-15.7 7.3-4.9 17.1-8.2 26.7-5.2 13.1 4 19.9 18.3 17.6 29.4z" fill="url(#SVGID_16_)"/><path class="st5" d="M155.4 374.7c0-.1.1-.2.1-.3 1.1-7.8 1.2-21.6.2-27.5-.6-3.4-1.7-6.8-3.6-10-1.9-3.2-4.8-6.1-8.3-8.2 3.8 1.8 7 4.6 9.4 7.8 2.4 3.2 4 6.8 5 10.3 1.1 4 1.6 8 1.7 12 1.1-3.4 2.4-6.7 3.8-10 3.6-8.3 8.3-16.3 14.1-23.5 5.8-7.2 12.9-13.6 21.2-18.5-7.4 5.8-13.7 12.6-19 19.9-5.3 7.3-9.7 15.2-13.4 23.3-3.6 8.2-6.5 16.7-8.8 25.4l-2.4-.7z"/></g><g><radialGradient id="SVGID_17_" cx="193.7476" cy="392.2335" r="87.0852" gradientTransform="matrix(1.0002 0 0 .9197 -.03768566 32.1168)" gradientUnits="userSpaceOnUse"><stop offset="0" stop-color="#00d941"/><stop offset=".1305" stop-color="#00c74a"/><stop offset=".3939" stop-color="#009662"/><stop offset=".7624" stop-color="#004a87"/><stop offset="1" stop-color="#0015a1"/></radialGradient><path d="M158.3 387.3c11.3 9.7 31.4 7.4 31.4 7.4-2 2-4.1 3.7-6.1 5.3h-79.8c11-20.4 30.1-34.1 30.1-34.1-7.7 11.9-4.3 19.9-4.3 19.9C145.1 352.4 170 353 170 353c-6.5 3.8-11.4 17-11.4 17 19.4-20.5 45.9-.2 45.9-.2-15.4 20.1-46.2 17.5-46.2 17.5z" fill="url(#SVGID_17_)"/><path d="M133.2 394.2c3.3-2.3 6.7-4.5 10.1-6.6 3.4-2.1 7-4 10.6-5.7 3.6-1.7 7.4-3.2 11.2-4.3 3.8-1.1 7.7-1.6 11.4-1.4-3.7-.2-7.6.6-11.3 1.7-3.7 1.2-7.4 2.7-10.9 4.5-3.6 1.8-7 3.8-10.3 6-3.4 2.2-6.6 4.4-9.8 6.8l-1-1z" fill="#066"/></g><g><linearGradient id="SVGID_18_" gradientUnits="userSpaceOnUse" x1="268.1974" y1="339.2671" x2="328.706" y2="402.9604"><stop offset="0" stop-color="#00bfe6"/><stop offset="1" stop-color="#461eb4"/></linearGradient><path d="M315.7 400h-74.5c-1.1-9.7 12.5-69.8 27.2-70.5 10.7-.5 19.6 10.1 31.9 9.6 9.6-.4 19-3.4 28.6-4.4 9.6-1 20.4.5 26.6 7.2 3 3.3 4.3 7.4 4.5 11.6v2.5c-.5 9.3-6.8 17.3-15.5 20.6-7.3 2.8-20.7 9.6-28.8 23.4z" fill="url(#SVGID_18_)"/><path d="M277.7 376.4c8.9-5.5 18.3-10.3 28.3-13.9 9.9-3.6 20.4-6 31-6.5-10.4 1.7-20.4 4.8-30 8.7-9.6 3.9-18.8 8.7-27.5 14.1l-1.8-2.4z" fill="#1f2fab"/></g><g><linearGradient id="SVGID_19_" gradientUnits="userSpaceOnUse" x1="27.324" y1="366.7456" x2="100.9389" y2="335.5852"><stop offset="0" stop-color="#fffb00"/><stop offset=".08565704" stop-color="#f4f604"/><stop offset=".2343" stop-color="#d8e810"/><stop offset=".4281" stop-color="#aad223"/><stop offset=".6597" stop-color="#6ab33e"/><stop offset=".9205" stop-color="#1a8d5f"/><stop offset="1" stop-color="#00806a"/></linearGradient><path d="M109.2 400H53c-6.5-4.6-13.5-10.1-20.7-16.5 0 0 30 2.1 34.2-9.2 0 0-44.1.5-56.9-35.8.7.5 27 17.2 49.3 11.6 0 0-44.6-18.1-45.3-45.4 0 0 59-16.8 60.6 27.2 0 0 8.9-13.4-1.5-32.6 0 0 36 13.5 20.3 67 0 0 13.7-13.3 15.1-28.9-.1-.1 15.2 31 1.1 62.6z" fill="url(#SVGID_19_)"/><path class="st26" d="M88.7 388.9c-2.7-8.8-5.9-17.4-9.7-25.8-1.9-4.2-4-8.3-6.4-12.3-2.4-4-5-7.9-8-11.6-3-3.7-6.3-7.1-10.2-10.2-3.9-3-8.4-5.6-13.6-7 5.3 1.3 9.9 3.7 14 6.6 4.1 2.9 7.6 6.3 10.8 9.9 3.2 3.6 6 7.5 8.6 11.4 2.6 4 4.9 8 7 12.2 4.3 8.3 7.8 16.9 10.9 25.6l-3.4 1.2z"/></g><g><linearGradient id="SVGID_20_" gradientUnits="userSpaceOnUse" x1="265.399" y1="403.7474" x2="254.571" y2="334.958"><stop offset="0" stop-color="#003ae6"/><stop offset="1" stop-color="#8c00ff"/></linearGradient><path d="M289.3 397.5c0 .9 0 1.7-.1 2.5h-49.9c-.1-1.3-.1-2.6-.1-4 .2-26.1 25.6-66.8 25.6-66.8s24.7 42.2 24.5 68.3z" fill="url(#SVGID_20_)"/><path class="st28" d="M249.2 387.4l12 12.6h-2.4zM265.7 381l.2 19h-3.3l1.4-52.9c0-.8.3-2.5.7-2.5.5 0 .7 1.7.7 2.6l.3 29.9 9-11.3-9 15.2z"/></g><g><radialGradient id="SVGID_21_" cx="146.6507" cy="385.2592" r="126.2965" gradientTransform="matrix(1.0002 0 0 .9197 -.03768566 32.1168)" gradientUnits="userSpaceOnUse"><stop offset="0" stop-color="#00aee3"/><stop offset=".0055837" stop-color="#00ade3"/><stop offset=".4868" stop-color="#2660ca"/><stop offset=".8299" stop-color="#3d30ba"/><stop offset="1" stop-color="#461eb4"/></radialGradient><path d="M140.1 394c-.7 2.1-1.4 4.1-2.1 6H74.2c.1-6 1.6-13.7 4.9-23.8 12.4-37.5 62.7-88.3 62.7-88.3s10.7 68.6-1.7 106.1z" fill="url(#SVGID_21_)"/><path d="M136.9 343.8L118.7 363l-11.6 37h-4.8l1.3-3.8-8.3-29.1 9.9 24.4 27.1-78c.4-1.2 1.5-3.6 2.1-3.4.6.2 0 2.7-.4 3.9l-13.6 43.2 16.5-13.4z" fill="#039"/></g><g><linearGradient id="SVGID_22_" gradientUnits="userSpaceOnUse" x1="55.3326" y1="200.6007" x2="111.9419" y2="200.6007" gradientTransform="matrix(-1 0 0 1 403.3918 0)"><stop offset="0" stop-color="#461eb4"/><stop offset="1" stop-color="#00bfe6"/></linearGradient><path d="M293 187l53.6 30.8c.8.5 1.5.1 1.5-.9s-.7-2.1-1.5-2.6L293 183.5c-.8-.5-1.5-.1-1.5.9s.6 2.1 1.5 2.6z" fill="url(#SVGID_22_)"/><linearGradient id="SVGID_23_" gradientUnits="userSpaceOnUse" x1="73.0402" y1="210.3455" x2="111.9419" y2="210.3455" gradientTransform="matrix(-1 0 0 1 403.3918 0)"><stop offset="0" stop-color="#461eb4"/><stop offset="1" stop-color="#00bfe6"/></linearGradient><path d="M293 201.8l35.9 20.5c.8.5 1.5.1 1.5-.9s-.7-2.1-1.5-2.6L293 198.4c-.8-.5-1.5-.1-1.5.9s.6 2.1 1.5 2.5z" fill="url(#SVGID_23_)"/><linearGradient id="SVGID_24_" gradientUnits="userSpaceOnUse" x1="43.3918" y1="233.5247" x2="111.9419" y2="233.5247" gradientTransform="matrix(-1 0 0 1 403.3918 0)"><stop offset="0" stop-color="#461eb4"/><stop offset="1" stop-color="#00bfe6"/></linearGradient><path d="M293 216.4l65.5 37.8c.8.5 1.5.1 1.5-.9s-.7-2.1-1.5-2.6L293 212.9c-.8-.5-1.5-.1-1.5.9s.6 2.1 1.5 2.6z" fill="url(#SVGID_24_)"/></g><g><linearGradient id="SVGID_25_" gradientUnits="userSpaceOnUse" x1="144.7905" y1="420.1919" x2="270.138" y2="297.7593"><stop offset="0" stop-color="#fffb00"/><stop offset=".08565704" stop-color="#f4f604"/><stop offset=".2343" stop-color="#d8e810"/><stop offset=".4281" stop-color="#aad223"/><stop offset=".6597" stop-color="#6ab33e"/><stop offset=".9205" stop-color="#1a8d5f"/><stop offset="1" stop-color="#00806a"/></linearGradient><path d="M232.1 381.9c10.3-1.6 35.9-17.7 35.9-17.7-4.8 16-16.1 28.1-26.9 35.8h-73.2c-3.8-11.5-6.1-23.4-2.5-29.9 8.6-15.2 13.3 3.1 17.7 7 0 0-10.2-39.7-4.5-42 5.6-2.3 18.4 14.5 19.1 15.4v-.1c-8.9-17.9-3.6-39.1 12.6-51.1l3.2-2.4c4.6-3.4 11.3-2.5 14.8 2l-.1-.1c-4.1-9.1-5.6-19.1-4.4-28.9l.3-2.7c6.9 8 11.7 17.1 14 27.2.5-1.6 5.6-21.8 6.9-23.9l2.5 4.9c8.4 16.8 7.2 36.5-3.1 52.2 5.2-3.9 14.5-8.3 21.1-20.8.9-1.7 1.8-3.6 2.5-5.7 15.7 46.7-35.9 80.8-35.9 80.8z" fill="url(#SVGID_25_)"/><path class="st26" d="M236.6 329c0 5.9-1 11.7-2.4 17.2-1.4 5.6-3.3 10.9-5.5 16.1-2.2 5.2-4.7 10.3-7.4 15.2-4.3 7.8-9.1 15.3-14.3 22.6h-5c6.1-7.7 11.8-15.7 16.9-24.1 2.9-4.7 5.6-9.6 8-14.7 2.4-5 4.5-10.2 6.1-15.6 1.6-5.4 2.7-11 3-16.8.3-5.4-.3-11.1-2.2-16.8 2.1 5.5 2.9 11.3 2.8 16.9z"/></g><g><linearGradient id="SVGID_26_" gradientUnits="userSpaceOnUse" x1="312.8106" y1="250.7361" x2="322.3872" y2="250.7361" gradientTransform="rotate(31.781 343.67606123 121.20051897)"><stop offset="0" stop-color="#461eb4"/><stop offset="1" stop-color="#00bfe6"/></linearGradient><path d="M255.7 222.7c-1.4 2.2-4.3 2.9-6.6 1.5-2.2-1.4-2.9-4.3-1.5-6.6 1.4-2.2 9.8-6.8 9.8-6.8s-.3 9.7-1.7 11.9z" fill="url(#SVGID_26_)"/><path class="st36" d="M249.4 224.3h-.1c-.1-.1-.2-.2-.1-.4l6.4-10.2c.1-.1.2-.2.4-.1.1.1.2.2.1.4l-6.4 10.2c-.2.1-.3.2-.3.1z"/></g><g><linearGradient id="SVGID_27_" gradientUnits="userSpaceOnUse" x1="140.7019" y1="335.738" x2="149.3959" y2="335.738" gradientTransform="rotate(43.886 239.17875494 204.03964148)"><stop offset="0" stop-color="#461eb4"/><stop offset="1" stop-color="#00bfe6"/></linearGradient><path d="M81.2 238.7c-1.7 1.7-4.4 1.8-6.1.1-1.7-1.7-1.8-4.4-.1-6.1 1.7-1.7 10-4.2 10-4.2s-2.1 8.5-3.8 10.2z" fill="url(#SVGID_27_)"/><path class="st36" d="M75.2 239s-.1 0-.1-.1c-.1-.1-.1-.3 0-.3l7.4-7.7c.1-.1.3-.1.3 0 .1.1.1.3 0 .3l-7.4 7.7c0 .1-.1.1-.2.1z"/></g><g><radialGradient id="SVGID_28_" cx="293.9201" cy="258.5683" r="28.4909" gradientTransform="matrix(.9577 -.2879 .2879 .9577 -56.6388 90.6515)" gradientUnits="userSpaceOnUse"><stop offset="0" stop-color="#00ff3f"/><stop offset=".1432" stop-color="#00ed50"/><stop offset=".432" stop-color="#00bc7d"/><stop offset=".8366" stop-color="#0070c4"/><stop offset="1" stop-color="#004fe3"/></radialGradient><path d="M296.6 244.9c1.2 3.9-.7 9.3-4.6 10.5-3.9 1.2-8.1-1-9.2-5-1.6-5.3 3.7-11.1-1.2-16.1 8.4-.6 13.6 6 15 10.6z" fill="url(#SVGID_28_)"/><path class="st3" d="M291.1 255.6c0-.1 0-13.4-5.1-17-.2-.1-.2-.4-.1-.6.1-.2.4-.2.6-.1 5.4 3.8 5.4 16.9 5.4 17.5l-.8.2z"/></g><g><linearGradient id="SVGID_29_" gradientUnits="userSpaceOnUse" x1="89.2397" y1="295.3471" x2="68.6985" y2="260.19"><stop offset="0" stop-color="#fffb00"/><stop offset=".08565704" stop-color="#f4f604"/><stop offset=".2343" stop-color="#d8e810"/><stop offset=".4281" stop-color="#aad223"/><stop offset=".6597" stop-color="#6ab33e"/><stop offset=".9205" stop-color="#1a8d5f"/><stop offset="1" stop-color="#00806a"/></linearGradient><path d="M87.1 277.2c1.2 3.9-.7 9.3-4.6 10.5-3.9 1.2-8.1-1-9.2-5-1.6-5.3 3.7-11.1-1.2-16.1 8.3-.6 13.6 5.9 15 10.6z" fill="url(#SVGID_29_)"/><path d="M81.6 287.9c0-.1 0-13.4-5.1-17-.2-.1-.2-.4-.1-.6.1-.2.4-.2.6-.1 5.4 3.8 5.4 16.9 5.4 17.5l-.8.2z" fill="#317200"/></g><g><linearGradient id="SVGID_30_" gradientUnits="userSpaceOnUse" x1="353.9164" y1="146.4162" x2="364.3016" y2="146.4162" gradientTransform="matrix(-.9329 .3602 .3602 .9329 592.4446 -139.2463)"><stop offset="0" stop-color="#461eb4"/><stop offset="1" stop-color="#00bfe6"/></linearGradient><path d="M306.1 130.4c1 2.7 4.4 4.8 7 3.8 2.7-1 4-4 3-6.7-1.4-3.6-6.8-4.6-6.2-9.4-5 3.3-5.1 9.1-3.8 12.3z" fill="url(#SVGID_30_)"/><path class="st36" d="M313.7 134c-.1-.1-5.8-7.4-4.5-11.6 0-.1 0-.3-.2-.4-.1 0-.3 0-.4.2-1.3 4.4 4.3 11.7 4.6 12l.5-.2z"/></g><g><linearGradient id="SVGID_31_" gradientUnits="userSpaceOnUse" x1="390.8373" y1="266.6318" x2="401.2225" y2="266.6318" gradientTransform="scale(-1 1) rotate(-46.568 21.62844577 1090.1662554)"><stop offset="0" stop-color="#461eb4"/><stop offset="1" stop-color="#00bfe6"/></linearGradient><path d="M314 249.7c-2.1 2-2.8 5.9-.9 8 2 2.1 5.3 2.2 7.3.2 2.8-2.7 1.6-8.1 6.3-9.4-4.8-3.3-10.2-1.1-12.7 1.2z" fill="url(#SVGID_31_)"/><path class="st36" d="M313.6 258.1c0-.1 4.7-8.2 9-8.6.2 0 .3-.2.3-.3 0-.2-.2-.3-.3-.3-4.6.5-9.2 8.4-9.4 8.8l.4.4z"/></g><g><linearGradient id="SVGID_32_" gradientUnits="userSpaceOnUse" x1="608.1191" y1="114.8945" x2="618.5043" y2="114.8945" gradientTransform="matrix(-.9329 .3602 .3602 .9329 592.4446 -139.2463)"><stop offset="0" stop-color="#461eb4"/><stop offset="1" stop-color="#00bfe6"/></linearGradient><path d="M57.6 192.6c1 2.7 4.4 4.8 7 3.8s4-4 3-6.7c-1.4-3.6-6.8-4.6-6.2-9.4-5 3.2-5.1 9.1-3.8 12.3z" fill="url(#SVGID_32_)"/><path class="st36" d="M65.2 196.1c-.1-.1-5.8-7.4-4.5-11.6 0-.1 0-.3-.2-.4-.1 0-.3 0-.4.2-1.3 4.4 4.3 11.7 4.6 12l.5-.2z"/></g><g><linearGradient id="SVGID_33_" gradientUnits="userSpaceOnUse" x1="67.9872" y1="171.9304" x2="78.364" y2="154.9713" gradientTransform="matrix(-.6325 .7745 -.7745 -.6325 272.7661 250.0051)"><stop offset="0" stop-color="#fffb00"/><stop offset=".08565704" stop-color="#f4f604"/><stop offset=".2343" stop-color="#d8e810"/><stop offset=".4281" stop-color="#aad223"/><stop offset=".6597" stop-color="#6ab33e"/><stop offset=".9205" stop-color="#1a8d5f"/><stop offset="1" stop-color="#00806a"/></linearGradient><path d="M103.5 199.5c-1.5-2.2-4.9-3.4-7.1-2-2.2 1.5-2.8 4.4-1.3 6.6 2 2.9 7.1 2.7 7.5 7.2 3.8-3.9 2.6-9.2.9-11.8z" fill="url(#SVGID_33_)"/><path d="M95.9 197.9c.1.1 6.7 5.5 6.4 9.5 0 .1.1.3.2.3s.3-.1.3-.2c.3-4.3-6.3-9.6-6.5-9.8l-.4.2z" fill="#346e00"/></g><g><radialGradient id="SVGID_34_" cx="306.5084" cy="183.7703" r="22.9517" gradientUnits="userSpaceOnUse"><stop offset="0" stop-color="#00ff3f"/><stop offset=".1404" stop-color="#09ed50"/><stop offset=".4238" stop-color="#21bc7c"/><stop offset=".8206" stop-color="#4770c1"/><stop offset="1" stop-color="#594be3"/></radialGradient><path d="M320.3 174.4c-3.9 2.3-11.9 3.1-11.9 3.1s-1.5-5.3.5-7.9c2.8-3.7 7.3-5.9 14.1-6.5 2.8 6.5.5 9.4-2.7 11.3z" fill="url(#SVGID_34_)"/><path d="M309.1 177.4l-.7.1-.1-.4c.1-.1 11.1-7.8 12-11.2 0 0 .1-.3.4-.2s.2.4.2.4c-.9 3.6-11.3 11-11.8 11.3z" fill="#333bc2"/></g><g><linearGradient id="SVGID_35_" gradientUnits="userSpaceOnUse" x1="327.9763" y1="305.676" x2="322.1139" y2="291.1692" gradientTransform="matrix(.6791 .734 -.734 .6791 309.6879 -146.5528)"><stop offset="0" stop-color="#fffb00"/><stop offset=".08565704" stop-color="#f4f604"/><stop offset=".2343" stop-color="#d8e810"/><stop offset=".4281" stop-color="#aad223"/><stop offset=".6597" stop-color="#6ab33e"/><stop offset=".9205" stop-color="#1a8d5f"/><stop offset="1" stop-color="#00806a"/></linearGradient><path d="M314 297.8c-2.3 1.9-7.6 3.1-7.6 3.1s-1.4-3.4-.4-5.3c1.5-2.7 4.3-4.5 8.8-5.6 2.4 4.2 1.1 6.3-.8 7.8z" fill="url(#SVGID_35_)"/><path d="M306.9 300.8l-.5.1-.1-.2c.1-.1 6.7-6.1 7-8.4 0 0 0-.2.3-.2.2 0 .2.3.2.3-.4 2.4-6.6 8.1-6.9 8.4z" fill="#1f6500"/></g></svg>