<svg xmlns="http://www.w3.org/2000/svg" viewBox="0 0 30 30"><defs><style>.cls-1,.cls-2{fill:none;stroke-linecap:round;stroke-linejoin:round;}.cls-1{stroke:#009bca;}.cls-2{stroke:#191742;}</style></defs><title>livedooh-media-owner-benefitsArtboard 9</title><g id="Repoting_analytics" data-name="Repoting &amp; analytics"><path class="cls-1" d="M8.3,24.29a2.37,2.37,0,0,0,4.73,0"/><path class="cls-1" d="M5.88,3.13A2.36,2.36,0,0,0,3.52,5.49H8.24"/><path class="cls-1" d="M13,24.29H26.6a2.36,2.36,0,0,1-2.36,2.36H10.67"/><path class="cls-1" d="M21.29,3.13a2.36,2.36,0,0,1,2.36,2.36v18.8"/><path class="cls-1" d="M5.94,3.13A2.36,2.36,0,0,1,8.3,5.49v18.8"/><line class="cls-1" x1="5.88" y1="3.13" x2="21.29" y2="3.13"/><path class="cls-2" d="M18.7,20.24a2.36,2.36,0,1,1,0-3.33"/><line class="cls-2" x1="14.08" y1="19.35" x2="16.79" y2="19.35"/><line class="cls-2" x1="14.08" y1="17.84" x2="16.79" y2="17.84"/><line class="cls-2" x1="11.54" y1="8.17" x2="21.08" y2="8.17"/><line class="cls-2" x1="11.54" y1="12.26" x2="21.08" y2="12.26"/></g></svg>