<?xml version="1.0" encoding="utf-8"?>
<!-- Generator: Adobe Illustrator 21.1.0, SVG Export Plug-In . SVG Version: 6.00 Build 0)  -->
<svg version="1.1" id="Layer_1" xmlns="http://www.w3.org/2000/svg" xmlns:xlink="http://www.w3.org/1999/xlink" x="0px" y="0px"
	 viewBox="0 0 162.4 175.2" style="enable-background:new 0 0 162.4 175.2;" xml:space="preserve">
<style type="text/css">
	.st0{fill:url(#SVGID_1_);}
	.st1{opacity:0.2;fill:url(#SVGID_2_);}
	.st2{opacity:0.4;}
	.st3{fill:url(#SVGID_3_);}
	.st4{opacity:0.2;}
	.st5{fill:url(#SVGID_4_);}
	.st6{fill:url(#SVGID_5_);}
	.st7{fill:#FFFFFF;}
	.st8{enable-background:new    ;}
	.st9{fill:#F1F5F9;}
	.st10{fill:#28D5AC;}
	.st11{fill:none;stroke:#FFFFFF;stroke-miterlimit:10;}
	.st12{fill:#43C4C1;}
	.st13{fill:#1F19A0;}
	.st14{fill:#4EDC99;}
	.st15{fill:none;stroke:#1F19A0;stroke-miterlimit:10;}
	.st16{fill:#5551D6;}
	.st17{fill:#F5F6FA;}
	.st18{fill:#7467FB;}
	.st19{fill:#FBFDFF;}
	.st20{fill:none;stroke:#FFFFFF;stroke-width:2;stroke-linecap:round;stroke-miterlimit:10;}
	.st21{fill:none;stroke:#FFFFFF;stroke-linecap:round;stroke-linejoin:round;stroke-miterlimit:10;}
	.st22{opacity:0.5;}
	.st23{fill:none;stroke:#F5F6FA;stroke-width:2;stroke-miterlimit:10;}
	.st24{fill:#F4B2B0;}
	.st25{fill:#FDC2BF;}
	.st26{fill:#FDC42E;}
	.st27{fill:#767D9F;}
	.st28{fill:url(#SVGID_6_);}
	.st29{fill:url(#SVGID_7_);}
	.st30{fill:url(#SVGID_8_);}
	.st31{fill:url(#SVGID_9_);}
	.st32{fill:url(#SVGID_10_);}
	.st33{fill:url(#SVGID_11_);}
	.st34{fill:url(#SVGID_12_);}
	.st35{fill:url(#SVGID_13_);}
	.st36{fill:url(#SVGID_14_);}
	.st37{fill:url(#SVGID_15_);}
	.st38{opacity:0.7;fill:none;stroke:#FFFFFF;stroke-width:0.5;stroke-miterlimit:10;}
	.st39{fill:#424242;}
	.st40{fill:#FA6685;}
	.st41{fill:#212121;}
	.st42{fill:#EFF5F9;}
	.st43{fill:#005ED0;}
	.st44{fill:none;stroke:#005ED0;stroke-width:2;stroke-linecap:round;stroke-linejoin:round;stroke-miterlimit:10;}
	.st45{fill:none;stroke:#EFF5F9;stroke-width:3;stroke-miterlimit:10;}
	.st46{fill:#489BFC;}
	.st47{fill:#DCE7FB;}
	.st48{fill:#A6CBFF;}
	.st49{fill:none;stroke:#005ED0;stroke-width:1.5;stroke-linecap:round;stroke-linejoin:round;stroke-miterlimit:10;}
	.st50{fill:#E0E9F8;}
	.st51{fill:none;stroke:#1F19A0;stroke-width:0.8;stroke-linecap:round;stroke-linejoin:round;stroke-miterlimit:10;}
	.st52{fill:#CEDFE7;}
	.st53{fill:url(#SVGID_16_);}
	.st54{fill:#36D4AD;}
	.st55{fill:#20229D;}
	.st56{fill:url(#SVGID_17_);}
	.st57{fill:#E9EBED;}
	.st58{fill:#1E88E5;}
	.st59{fill:none;stroke:#E9EBED;stroke-miterlimit:10;}
	.st60{fill:url(#SVGID_18_);}
	.st61{fill:#278AE2;}
	.st62{fill:url(#SVGID_19_);}
	.st63{fill:url(#SVGID_20_);}
	.st64{fill:#F86886;}
	.st65{fill:url(#SVGID_21_);}
	.st66{fill:#284AA2;}
	.st67{fill:#CF565C;}
	.st68{fill:#C6CEE0;}
	.st69{fill:#EEF1F9;}
	.st70{fill:#6B7C92;}
	.st71{fill-rule:evenodd;clip-rule:evenodd;fill:#6B7C92;}
	.st72{fill-rule:evenodd;clip-rule:evenodd;fill:#F6F9FC;}
</style>
<g>
	<path class="st12" d="M105.4,84.1c0,0-7-70.5-65.6-51c0,0-17.2-17.4-39.8,2.8c0,0-3.4,26.9,34.2,40.1C34.2,76,54,114.3,105.4,84.1z
		"/>
	<g>
		<path class="st13" d="M34.7,52.3c14.4,1.5,28.5,5.8,41.7,11.8c13.2,6.1,25.4,14.5,35.9,24.6c5.3,5,9.9,10.7,14.2,16.6
			c1,1.5,2.1,3,3.1,4.5l2.9,4.7c1,1.5,1.8,3.2,2.7,4.8l1.3,2.4c0.4,0.8,0.9,1.6,1.2,2.4c1.5,3.3,3.1,6.6,4.3,10
			c0.6,1.7,1.3,3.4,1.9,5.1l1.6,5.2l0.8,2.6l0.6,2.6l1.3,5.3c0.8,3.5,1.3,7.1,2,10.7l-1.2-5.3l-0.6-2.6c-0.2-0.9-0.4-1.8-0.7-2.6
			l-1.5-5.2l-0.7-2.6l-0.9-2.6l-1.8-5.1c-0.6-1.7-1.3-3.3-2-5c-1.3-3.4-2.9-6.6-4.5-9.8c-6.5-12.8-15-24.7-25.3-34.6
			c-5.1-5-10.7-9.6-16.6-13.7c-5.9-4.1-12.2-7.7-18.6-10.9c-6.5-3.2-13.2-5.9-20-8.1C48.9,55.2,41.9,53.4,34.7,52.3z"/>
	</g>
	<path class="st14" d="M116,128c0,0-12.3-45.2-50.1-25.2c0,0-24.9-9.4-28.1,19.6c0,0-31,15.7-12.8,52.8
		C25.1,175.2,60.6,122.3,116,128z"/>
	<g>
		<path class="st13" d="M61.1,125c2.2-1,4.4-1.8,6.7-2.4c2.3-0.7,4.6-1.3,6.9-1.7c4.7-0.9,9.5-1.4,14.3-1.3
			c9.6,0.1,19.2,2.3,27.8,6.6c8.6,4.3,16.1,10.7,22.1,18.1c6.1,7.4,10.7,15.8,14.3,24.6c-4.3-8.5-9.3-16.5-15.5-23.6
			c-1.5-1.8-3.2-3.5-4.8-5.1c-0.8-0.9-1.7-1.6-2.6-2.4c-0.9-0.8-1.7-1.6-2.7-2.3l-2.8-2.2l-2.9-2c-0.9-0.7-2-1.2-3-1.8l-1.5-0.9
			c-0.5-0.3-1-0.5-1.6-0.8c-8.3-4.3-17.6-6.5-26.9-6.9c-4.7-0.2-9.4,0-14.1,0.7C70.2,122.4,65.6,123.4,61.1,125z"/>
	</g>
	<g>
		<path class="st14" d="M136.8,0c0,0-52.1,33.7,2.4,109.3C139.2,109.3,192.9,63.9,136.8,0z"/>
		<g>
			<path class="st13" d="M139.1,37.3c-0.6,5.2-0.9,10.5-1,15.7l-0.1,3.9l0,3.9c0,2.6,0,5.3,0,7.9c0.2,10.5,0.7,21,1.6,31.4
				c0.5,5.2,1,10.5,1.7,15.7c0.3,2.6,0.6,5.2,1,7.8l1.2,7.8l0.6,3.9l0.7,3.9l1.3,7.8c0.9,5.2,2,10.3,3,15.5c-0.7-2.5-1.4-5.1-2-7.6
				c-0.6-2.6-1.4-5.1-1.9-7.7l-1.7-7.7l-0.8-3.9l-0.7-3.9l-1.4-7.8c-0.4-2.6-0.8-5.2-1.1-7.8c-0.8-5.2-1.2-10.5-1.8-15.7
				c-0.9-10.5-1.4-21.1-1.2-31.6C136.6,58.2,137.3,47.6,139.1,37.3z"/>
		</g>
	</g>
</g>
</svg>
